<svg xmlns="http://www.w3.org/2000/svg" viewBox="0 0 125.65 125.64"><defs><style>.cls-1,.cls-2{fill:#fff;}.cls-2{opacity:0.5;}</style></defs><g id="Calque_2" data-name="Calque 2"><g id="Calque_1-2" data-name="Calque 1"><g id="_3_4" data-name="3/4"><path class="cls-1" d="M125.65,62.83a62.82,62.82,0,0,1-62.82,62.81h0v-11h0a51.88,51.88,0,0,0,51.82-51.81Z"/><path class="cls-1" d="M62.82,114.64v11A62.83,62.83,0,0,1,0,62.83H11A51.89,51.89,0,0,0,62.82,114.64Z"/><path class="cls-2" d="M62.82,0V11A51.88,51.88,0,0,0,11,62.82H0A62.82,62.82,0,0,1,62.82,0Z"/><path class="cls-1" d="M125.65,62.82h-11A51.88,51.88,0,0,0,62.83,11h0V0h0A62.82,62.82,0,0,1,125.65,62.82Z"/><path class="cls-1" d="M22.94,72.9l8-1A7.48,7.48,0,0,0,33,76.59a5.62,5.62,0,0,0,4,1.61,5.54,5.54,0,0,0,4.29-1.93A7.52,7.52,0,0,0,43,71.05a7,7,0,0,0-1.66-4.92,5.36,5.36,0,0,0-4.08-1.82,14.47,14.47,0,0,0-3.78.62l.91-6.71a7.18,7.18,0,0,0,5.1-1.45,5.18,5.18,0,0,0,1.76-4.09,4.44,4.44,0,0,0-4.72-4.74A5,5,0,0,0,33,49.4a6.89,6.89,0,0,0-1.82,4.28l-7.59-1.29a17.14,17.14,0,0,1,2.39-6.23,10.79,10.79,0,0,1,4.45-3.66,15,15,0,0,1,6.4-1.33A12.76,12.76,0,0,1,46.52,45a10.1,10.1,0,0,1,3,7.15q0,5.64-6.18,9a10,10,0,0,1,5.9,3.54,10.28,10.28,0,0,1,2.21,6.65A12.87,12.87,0,0,1,47.34,81a14.21,14.21,0,0,1-10.28,4,14.15,14.15,0,0,1-9.67-3.36A13.16,13.16,0,0,1,22.94,72.9Z"/><path class="cls-1" d="M54,85,64.6,40.61h6.18L60,85Z"/><path class="cls-1" d="M89.41,84.29V75.65H71.83v-7.2L90.47,41.17h6.91V68.42h5.33v7.23H97.38v8.64Zm0-15.87V53.74L79.54,68.42Z"/></g></g></g></svg>