<?xml version="1.0" encoding="utf-8"?>
<!-- Generator: Adobe Illustrator 25.2.0, SVG Export Plug-In . SVG Version: 6.00 Build 0)  -->
<svg version="1.1" id="Calque_1" xmlns="http://www.w3.org/2000/svg" xmlns:xlink="http://www.w3.org/1999/xlink" x="0px" y="0px"
	 viewBox="0 0 403.4 419.2" style="enable-background:new 0 0 403.4 419.2;" xml:space="preserve">
<style type="text/css">
	.st0{fill:url(#SVGID_1_);}
	.st1{fill:url(#SVGID_2_);}
	.st2{fill:url(#SVGID_3_);}
	.st3{fill:url(#SVGID_4_);}
	.st4{fill:url(#SVGID_5_);}
	.st5{fill:url(#SVGID_6_);}
	.st6{fill:url(#SVGID_7_);}
	.st7{fill:url(#SVGID_8_);}
	.st8{fill:url(#SVGID_9_);}
	.st9{fill:url(#SVGID_10_);}
	.st10{fill:url(#SVGID_11_);}
	.st11{fill:url(#SVGID_12_);}
	.st12{fill:url(#SVGID_13_);}
	.st13{fill:url(#SVGID_14_);}
	.st14{fill:url(#SVGID_15_);}
	.st15{display:none;fill:none;}
	.st16{font-family:'ArialMT';}
	.st17{font-size:12px;}
	.st18{fill:#FFFFFF;}
	.st19{font-family:'BigJohn';}
	.st20{font-size:25px;}
	.st21{fill:#005493;}
</style>
<g id="Calque_1_1_">
	<g>
		
			<radialGradient id="SVGID_1_" cx="201.7" cy="209.4213" r="388.3918" gradientTransform="matrix(1 0 0 -0.9275 0 393.2883)" gradientUnits="userSpaceOnUse">
			<stop  offset="0" style="stop-color:#006AC6"/>
			<stop  offset="0.2612" style="stop-color:#005493"/>
		</radialGradient>
		<path class="st0" d="M374.1,99.9c1.5-13.8,29.3-51.4,29.3-51.4s-33.5,32.6-46.9,36l-0.7,10.9L336,118.1c-4.1-2.2-2.3-0.9-6.9-4.9
			c-7.3-6.4,9.6-17.7,9.6-17.7s-15.7-9.8-35.8,13.4c-20.1,23.1-9.2,38.3-9.2,38.3s8.9-18.3,16.2-11.9c4.6,4,3.1,2.4,5.8,6.2
			L298,161.7c-55.9-22-96.5-74.3-96.5-74.3s-40.5,52-96.2,74.1l-17.6-20.2c2.7-3.7,1.2-2.2,5.8-6.2c7.3-6.4,16.2,11.9,16.2,11.9
			s10.9-15.2-9.2-38.3c-20.2-23-35.8-13.2-35.8-13.2s16.9,11.3,9.6,17.7c-4.6,4-2.8,2.7-6.9,4.9L47.6,95.4l-0.7-10.9
			C33.5,81.1,0,48.5,0,48.5s27.8,37.6,29.3,51.4l10.7,2.2l19.7,22.6c-2.7,3.7-1.2,2.2-5.8,6.2c-7.4,6.4-16.3-11.9-16.3-11.9
			s-11.8,14.2,8.3,37.3s36.7,14.4,36.7,14.4S65.7,159.4,73,153c4.6-4,2.8-2.7,6.9-4.9l15,17.1c-1.7,0.5-3.4,1-5.1,1.5
			c0,85.6,20.1,144,43.3,182.9l0.8-0.3l4.1-1.2l1.5-0.4l-0.6-0.9l-2.1-3.7l-2.2-3.6c-0.7-1.2-1.3-2.5-2-3.7l-2-3.7l-1-1.9l-0.9-1.9
			l-3.8-7.6l-3.3-7.7l-0.8-1.9l-0.8-2l-1.5-4c-2.1-5.2-3.8-10.6-5.6-16l-2.4-8.1l-1.2-4.1l-1-4.1l-2-8.2c-0.6-2.8-1.2-5.5-1.7-8.3
			c-1.2-5.5-2-11.1-3-16.7c-0.5-2.8-0.8-5.6-1.2-8.4l-1.1-8.4c-0.6-5.6-1-11.2-1.5-16.8l-0.9-16.9l-0.3-16.9V172l0.3-0.1
			c2.6-0.8,5.2-1.5,7.7-2.4c1.3-0.4,2.6-0.8,3.8-1.3l3.8-1.5c1.3-0.5,2.5-1,3.7-1.6s2.5-1.1,3.7-1.7l3.7-1.7l3.6-1.9
			c1.2-0.6,2.4-1.2,3.6-1.9s2.4-1.3,3.5-2c2.3-1.4,4.7-2.8,6.9-4.2c2.3-1.5,4.5-3,6.8-4.5c2.2-1.5,4.4-3.1,6.6-4.7
			c1.1-0.8,2.2-1.6,3.2-2.4c1.1-0.8,2.2-1.6,3.2-2.5l3.2-2.5l3.1-2.6c2-1.8,4.1-3.5,6.1-5.3s4-3.6,6-5.5c3.9-3.7,7.7-7.6,11.4-11.5
			c1.9-2,3.7-4,5.5-6s3.5-4.1,5.2-6.2l0.2-0.3l0.2,0.3c1.7,2.1,3.4,4.2,5.2,6.2s3.6,4,5.5,6c3.7,3.9,7.5,7.8,11.4,11.5
			c2,1.9,3.9,3.7,6,5.5s4.1,3.6,6.1,5.3l3.1,2.6l3.2,2.5c1,0.9,2.1,1.7,3.2,2.5c1.1,0.8,2.1,1.7,3.2,2.4c2.2,1.6,4.4,3.2,6.6,4.7
			c2.2,1.6,4.5,3.1,6.8,4.5s4.6,2.8,6.9,4.2c1.2,0.7,2.4,1.3,3.5,2c1.2,0.7,2.4,1.3,3.6,1.9l3.6,1.8l3.7,1.7
			c1.2,0.6,2.5,1.1,3.7,1.7c1.2,0.5,2.5,1.1,3.7,1.6l3.8,1.5c1.2,0.5,2.5,0.9,3.8,1.4c2.5,0.9,5.2,1.6,7.7,2.4l0.3,0.1v0.3
			l-0.3,16.9l-0.9,16.9c-0.5,5.6-1,11.2-1.5,16.8l-1.1,8.4c-0.4,2.8-0.7,5.6-1.2,8.4c-1,5.6-1.8,11.1-3,16.7
			c-0.6,2.8-1.1,5.5-1.7,8.3l-2,8.2l-1,4.1l-1.2,4.1l-2.4,8.1c-1.8,5.3-3.5,10.7-5.6,16l-1.5,4l-0.8,2l-0.8,1.9l-3.4,7.8l-3.7,7.6
			l-0.9,1.9l-1,1.9l-2,3.7c-0.7,1.2-1.3,2.5-2,3.7l-2.1,3.7l-2.2,3.5l-0.5,0.8l2.5,0.7l3.9,1.2c23.1-38.9,43.1-97.3,43.1-182.8
			c-1.6-0.4-3.1-0.9-4.7-1.4l15-17.3c4.1,2.2,2.3,0.9,6.9,4.9c7.3,6.4-9.6,17.7-9.6,17.7s16.6,8.7,36.7-14.4s8.4-37.3,8.4-37.3
			s-8.9,18.3-16.2,11.9c-4.6-4-3.1-2.4-5.8-6.2l19.7-22.6L374.1,99.9z M6.9,56.4c0,0,23.7,24.8,36.2,29.5l0.3,12.5L6.9,56.4z
			 M79.1,169.9c0,0-13,6.1-31.4-15S38,122.7,38,122.7S39.8,157.7,79.1,169.9z M71.3,117.6c7.6-5.9,6.2-9.5,6.2-9.5
			C83.3,109.2,73.2,116.3,71.3,117.6z M325.9,108.1L325.9,108.1c0,0.1-1.4,3.8,6.5,9.8C332.4,117.8,319.5,109.3,325.9,108.1z
			 M365.4,122.7L365.4,122.7c0,0,8.6,11.1-9.7,32.3c-18.4,21.1-31.4,15-31.4,15C363.6,157.7,365.4,122.7,365.4,122.7z M360.2,85.9
			c12.6-4.6,36.2-29.5,36.2-29.5L360,98.3L360.2,85.9z"/>
		
			<radialGradient id="SVGID_2_" cx="201.54" cy="16.5201" r="26.3573" gradientTransform="matrix(1 0 0 -1 0 422)" gradientUnits="userSpaceOnUse">
			<stop  offset="0" style="stop-color:#006AC6"/>
			<stop  offset="1" style="stop-color:#005493"/>
		</radialGradient>
		<path class="st1" d="M226.6,391.7c-3.4,3-6.9,5.8-10.5,8.4c-4.5,3.4-9.4,6.4-14.4,9l-0.3,0.1l-0.3-0.1c-5.1-2.6-9.9-5.6-14.4-9
			c-3.6-2.6-7-5.4-10.4-8.3l-3.7,0.5c-2,0.3-3.9,0.6-5.8,0.9c19.3,19,34.6,26,34.6,26s15.4-7,34.7-26.2c-1.7-0.3-3.5-0.5-5.3-0.8
			C229.5,392.1,228,391.9,226.6,391.7z"/>
		
			<radialGradient id="SVGID_3_" cx="201.52" cy="25.7" r="12.4184" gradientTransform="matrix(1 0 0 -1 0 422)" gradientUnits="userSpaceOnUse">
			<stop  offset="0" style="stop-color:#006AC6"/>
			<stop  offset="1" style="stop-color:#005493"/>
		</radialGradient>
		<path class="st2" d="M193.7,397.5c1.1,0.8,2.3,1.5,3.4,2.2c1.1,0.7,2.3,1.4,3.4,2l1,0.5c0.3-0.2,0.6-0.4,0.9-0.5
			c1.1-0.6,2.3-1.3,3.4-2c1.1-0.7,2.3-1.4,3.4-2.2c1.1-0.8,2.2-1.5,3.3-2.3c1.9-1.4,3.7-2.8,5.5-4.2l-1.4-0.1
			c-4.9-0.4-9.9-0.5-14.9-0.5s-9.9,0.2-14.8,0.5l-2,0.2c1.8,1.4,3.6,2.8,5.4,4.2C191.5,396,192.6,396.7,193.7,397.5z"/>
		
			<radialGradient id="SVGID_4_" cx="234.5533" cy="201.1791" r="1.6709" gradientTransform="matrix(1 0 0 -1 0 422)" gradientUnits="userSpaceOnUse">
			<stop  offset="0" style="stop-color:#006AC6"/>
			<stop  offset="1" style="stop-color:#005493"/>
		</radialGradient>
		<path class="st3" d="M236.5,222.1c0.1-0.7,0-1.4-0.5-1.9c-0.8-0.9-3.4-0.5-3.4-0.5C236.5,220,236.5,222.1,236.5,222.1z"/>
		
			<radialGradient id="SVGID_5_" cx="276.642" cy="176.1114" r="5.5939" gradientTransform="matrix(1 0 0 -1 0 422)" gradientUnits="userSpaceOnUse">
			<stop  offset="0" style="stop-color:#006AC6"/>
			<stop  offset="1" style="stop-color:#005493"/>
		</radialGradient>
		<path class="st4" d="M270.9,248.4c1.9,0.7,8.9-1.5,13.2-5.2c0,0-8.5,5.5-14.9,1.5C269.2,244.8,268.9,247.7,270.9,248.4z"/>
		
			<radialGradient id="SVGID_6_" cx="168.7455" cy="201.1791" r="1.6716" gradientTransform="matrix(1 0 0 -1 0 422)" gradientUnits="userSpaceOnUse">
			<stop  offset="0" style="stop-color:#006AC6"/>
			<stop  offset="1" style="stop-color:#005493"/>
		</radialGradient>
		<path class="st5" d="M167.3,220.1c-0.5,0.5-0.6,1.3-0.5,1.9c0,0,0-2.1,3.9-2.5C170.7,219.6,168.1,219.3,167.3,220.1z"/>
		
			<radialGradient id="SVGID_7_" cx="126.7297" cy="176.1114" r="5.5951" gradientTransform="matrix(1 0 0 -1 0 422)" gradientUnits="userSpaceOnUse">
			<stop  offset="0" style="stop-color:#006AC6"/>
			<stop  offset="1" style="stop-color:#005493"/>
		</radialGradient>
		<path class="st6" d="M119.3,243.2c4.4,3.6,11.3,5.8,13.2,5.2c1.9-0.7,1.7-3.6,1.7-3.6C127.8,248.8,119.3,243.2,119.3,243.2z"/>
		
			<radialGradient id="SVGID_8_" cx="152.9" cy="199.1864" r="6.2229" gradientTransform="matrix(1 0 0 -1 0 422)" gradientUnits="userSpaceOnUse">
			<stop  offset="0" style="stop-color:#006AC6"/>
			<stop  offset="1" style="stop-color:#005493"/>
		</radialGradient>
		<path class="st7" d="M152.1,218.6c-2.6,0.9-4.9,2.5-6.6,4.6c3.6-3.4,9.2-5.9,10.5-2.6c1.1,2.5,2.5,4.9,4.3,7
			C156.7,221.3,158.8,216.5,152.1,218.6z"/>
		
			<radialGradient id="SVGID_9_" cx="249.17" cy="199.178" r="6.2257" gradientTransform="matrix(1 0 0 -1 0 422)" gradientUnits="userSpaceOnUse">
			<stop  offset="0" style="stop-color:#006AC6"/>
			<stop  offset="1" style="stop-color:#005493"/>
		</radialGradient>
		<path class="st8" d="M256.6,223.2c-1.7-2.1-4-3.7-6.6-4.6c-6.8-2-4.6,2.7-8.2,9c1.8-2.1,3.3-4.4,4.3-7
			C247.5,217.3,253.1,219.8,256.6,223.2z"/>
		
			<radialGradient id="SVGID_10_" cx="207.9503" cy="60.3848" r="1.6789" gradientTransform="matrix(1 0 0 -1 0 422)" gradientUnits="userSpaceOnUse">
			<stop  offset="0" style="stop-color:#006AC6"/>
			<stop  offset="1" style="stop-color:#005493"/>
		</radialGradient>
		<path class="st9" d="M208.1,360L208.1,360h-1.8l-0.1,3.2h1.8c0.9,0,1.6-0.7,1.7-1.6S209,360,208.1,360z"/>
		
			<radialGradient id="SVGID_11_" cx="195.45" cy="58.8306" r="2.6905" gradientTransform="matrix(1 0 0 -1 0 422)" gradientUnits="userSpaceOnUse">
			<stop  offset="0" style="stop-color:#006AC6"/>
			<stop  offset="1" style="stop-color:#005493"/>
		</radialGradient>
		<path class="st10" d="M195.4,360.5L195.4,360.5c-1.5,0-2.7,1.3-2.6,2.7c0,1.5,1.3,2.7,2.7,2.6c1.5,0,2.7-1.3,2.6-2.7l0,0
			C198.1,361.6,196.9,360.5,195.4,360.5z"/>
		
			<radialGradient id="SVGID_12_" cx="258.42" cy="51.695" r="1.2331" gradientTransform="matrix(1 0 0 -1 0 422)" gradientUnits="userSpaceOnUse">
			<stop  offset="0" style="stop-color:#006AC6"/>
			<stop  offset="1" style="stop-color:#005493"/>
		</radialGradient>
		<polygon class="st11" points="257.3,371.1 259.5,371.6 259,369 		"/>
		
			<radialGradient id="SVGID_13_" cx="238.0173" cy="58.0167" r="1.7795" gradientTransform="matrix(1 0 0 -1 0 422)" gradientUnits="userSpaceOnUse">
			<stop  offset="0" style="stop-color:#006AC6"/>
			<stop  offset="1" style="stop-color:#005493"/>
		</radialGradient>
		<path class="st12" d="M238.5,362.5l-1.8-0.3l-0.5,3.2l1.8,0.3c0.9,0.1,1.7-0.5,1.8-1.4C240,363.5,239.3,362.6,238.5,362.5z"/>
		
			<radialGradient id="SVGID_14_" cx="201.865" cy="54.4756" r="88.9959" gradientTransform="matrix(1 0 0 -1 0 422)" gradientUnits="userSpaceOnUse">
			<stop  offset="0" style="stop-color:#006AC6"/>
			<stop  offset="1" style="stop-color:#005493"/>
		</radialGradient>
		<path class="st13" d="M316.5,330c-9.7,1.2-9.8,15.8-17.1,23.3c-3.6,3.7-6.7,4.4-9,3.9c-0.2-2.9-1.3-5.7-3.1-8
			c-6.5-7.3-13-3.5-10.3,0.1c1,1.4,2.2,2.7,3.5,3.9l-1-0.4l-6.3-1.7l-3.5-0.9l-4.1-1c-2.9-0.7-6.2-1.4-9.9-2.2
			c-1.8-0.4-3.7-0.7-5.7-1.1s-4-0.7-6.1-1c-4.2-0.6-8.6-1.2-13.2-1.7c-4.6-0.5-9.3-0.8-14.2-1c-4.8-0.3-9.8-0.3-14.7-0.2
			c-4.9,0.1-9.9,0-14.7,0.2s-9.6,0.5-14.2,1c-4.6,0.5-9,1-13.2,1.6c-2.1,0.3-4.1,0.7-6.1,1s-3.8,0.7-5.7,1.1
			c-3.6,0.8-6.9,1.5-9.9,2.2l-4.1,1l-3.5,0.9l-4.8,1.3l-2.8,1c1.3-1.2,2.5-2.5,3.5-3.9c2.7-3.6-3.8-7.5-10.3-0.1
			c-1.3,1.5-2.7,4-3.1,8c-2.4,0.5-5.5-0.2-9.1-3.9c-7.2-7.5-7.3-22.2-17-23.3c3.6,6.7,5.9,14,6.7,21.6c0,0-7.2,1.6-12.2,2.3
			c4.1,4.7,7.2,10.1,9.2,16c3.7,11.6,6.2,18.5,15,22.8c3.2,1.6,5.9,1.6,8.1,0.4c0.2,2.8,0.8,5.6,1.5,8.3c1.7,4.1,2.8,4.1,8.3,2.3
			l0.8-0.3l0.8-0.3c1.1-0.4,2.6-1.1,4.7-1.8l3.4-1.2l4-1.4c1.4-0.5,3-1,4.6-1.5s3.4-1,5.2-1.5s3.7-1,5.6-1.5c2-0.5,4-1,6.1-1.4
			c4.2-1,8.6-1.8,13.3-2.5s9.5-1.3,14.4-1.7c4.9-0.3,9.9-0.6,15-0.6s10,0.2,15,0.6c5,0.3,9.7,1,14.4,1.6c4.6,0.6,9.1,1.5,13.3,2.5
			c2.1,0.4,4.1,1,6.1,1.4s3.9,1,5.7,1.5c3.6,1,6.9,2,9.8,3l4,1.4l3.4,1.2c2,0.7,3.6,1.4,4.7,1.8l1.7,0.7v0.1
			c5.5,1.8,6.7,1.8,8.4-2.3c0.8-2.7,1.3-5.5,1.5-8.3c2.3,1.2,4.9,1.2,8.1-0.4c8.7-4.3,11.3-11.2,15-22.8c2-5.9,5.1-11.3,9.2-16
			c-5-0.7-12.2-2.4-12.2-2.4C310.6,344,312.9,336.7,316.5,330z M127.2,381.5L127.2,381.5c-1.7,0.8-3.7,0.1-4.6-1.6c0,0,0,0,0-0.1
			l2.4-1.1c0.2,0.4,0.7,0.6,1.1,0.4l0,0c0.4-0.2,0.6-0.7,0.4-1.1l0,0c-0.2-0.4-0.7-0.6-1.1-0.4c-1.7,0.8-3.8,0.1-4.6-1.6
			c-0.8-1.7-0.1-3.8,1.6-4.6c1.7-0.8,3.8-0.1,4.6,1.6l0,0l-2.3,1.1c-0.2-0.4-0.7-0.6-1.1-0.4s-0.6,0.7-0.4,1.1l0,0
			c0.2,0.4,0.7,0.6,1.1,0.4c1.8-0.7,3.8,0.1,4.6,1.9C129.5,378.8,128.8,380.7,127.2,381.5z M132.2,379.4l-4-10.5l2.8-1l4,10.5
			L132.2,379.4z M142.1,376L142.1,376c-3,0.9-6.1-0.8-7-3.8s0.9-6.1,3.8-7c1.4-0.4,3-0.2,4.3,0.5l-1.4,2.6c-1.3-0.7-2.9-0.2-3.6,1.1
			c-0.7,1.3-0.2,2.9,1.1,3.6s2.9,0.2,3.6-1.1c0.1-0.1,0.1-0.2,0.2-0.4l-2.1,0.6l-0.5-1.9l5.4-1.6l0.1,0.4
			C146.7,372,145,375.1,142.1,376z M157,372.5l-6.3-4.1l1.1,5.2l-2.9,0.6l-2.3-11l1.2-0.2l6.3,4.1l-1.1-5.2l2.9-0.6l2.3,11
			L157,372.5z M166.9,371l-1.4-11.2l2.9-0.4l1.4,11.2L166.9,371z M180.2,369.5l-5.8-4.8l0.5,5.3l-3,0.3l-1-11.2l1.2-0.1l5.8,4.8
			l-0.5-5.3l2.9-0.3l1,11.2L180.2,369.5z M195.6,368.8L195.6,368.8c-3.1,0.1-5.7-2.4-5.8-5.5s2.4-5.7,5.5-5.7
			c3.1-0.1,5.7,2.4,5.7,5.5l0,0C201.2,366.2,198.7,368.7,195.6,368.8z M209.7,368.8l-1.7-3h-1.8l-0.1,3l-3-0.1l0.3-11.2l4.7,0.1
			c2.3,0.1,4.1,2,4,4.2c0,1.2-0.5,2.2-1.4,3l2.3,4.1L209.7,368.8z M229,362.6c-0.5-0.5-1.1-0.9-1.8-0.9c-1.5-0.1-2.7,0.9-2.9,2.4
			s0.9,2.7,2.4,2.9c0.7,0.1,1.4-0.1,2-0.6l1.9,2.3c-2.4,2-5.9,1.7-7.9-0.7c-2-2.4-1.7-5.9,0.7-7.9s5.9-1.7,7.9,0.7l0,0L229,362.6z
			 M239,371.4l-1.3-3.2l-1.8-0.3l-0.4,3l-2.9-0.4l1.6-11.1l4.7,0.7c2.3,0.3,3.8,2.4,3.5,4.7c-0.2,1.1-0.8,2.2-1.7,2.8l1.8,4.4
			L239,371.4z M251,371.1l-0.5,2.4l-6.9-1.3l2.1-11l6.9,1.3l-0.5,2.4l-4-0.8l-0.4,1.8l3.5,0.7l-0.5,2.4l-3.5-0.7l-0.4,2L251,371.1z
			 M260.3,376l-0.3-1.6l-4.5-1.2l-1,1.2l-2.9-0.8l7.9-9.5l1.3,0.3l2.3,12.2L260.3,376z M269,378.9l-2.8-1l2.8-7.9l-2.8-1l1-2.8
			l8.3,3l-1,2.8l-2.8-1L269,378.9z M283.5,375.9l-3.6-1.8l-0.8,1.6l3.2,1.6l-1.1,2.2l-3.2-1.7l-0.9,1.8l3.6,1.8l-1.1,2.2l-6.2-3.1
			l5.1-10l6.2,3.1L283.5,375.9z"/>
		
			<radialGradient id="SVGID_15_" cx="201.65" cy="199.75" r="112.7454" gradientTransform="matrix(1 0 0 -1 0 422)" gradientUnits="userSpaceOnUse">
			<stop  offset="0" style="stop-color:#006AC6"/>
			<stop  offset="1" style="stop-color:#005493"/>
		</radialGradient>
		<path class="st14" d="M145.6,346.2c0.8-0.2,1.5-0.4,2.3-0.6c1.8-0.5,3.7-0.9,5.6-1.4c2-0.4,4-0.8,6.1-1.2c4.2-0.8,8.6-1.4,13.3-2
			c4.6-0.6,9.4-0.9,14.3-1.2s9.8-0.3,14.8-0.3s9.9,0.1,14.8,0.3s9.7,0.7,14.3,1.2s9.1,1.2,13.3,2c2.1,0.4,4.1,0.8,6.1,1.2
			c2,0.4,3.9,0.9,5.7,1.3l1.3,0.3l1.5-2.4l2.1-3.5l2.1-3.5c0.7-1.2,1.3-2.4,2-3.6l2-3.6l1-1.8l0.9-1.9l3.7-7.4l3.4-7.6l0.8-1.9
			l0.8-1.9l1.5-3.9c2.1-5.1,3.8-10.4,5.6-15.6l2.4-8l1.2-4l1-4l2.1-8.1c0.6-2.7,1.2-5.4,1.8-8.1c1.3-5.4,2.2-10.9,3.2-16.4
			c0.5-2.7,0.9-5.5,1.3-8.3l1.2-8.3c0.7-5.5,1.2-11.1,1.8-16.7l1.1-16.7l0.5-14.3c-1.8-0.6-3.6-1.1-5.3-1.8
			c-1.3-0.5-2.6-0.9-3.9-1.4l-3.8-1.5c-1.3-0.5-2.5-1.1-3.8-1.7s-2.5-1.1-3.8-1.8l-3.7-1.8l-3.6-2c-1.2-0.7-2.4-1.3-3.6-2
			s-2.4-1.4-3.5-2.1c-2.3-1.5-4.7-2.9-6.9-4.5c-2.3-1.5-4.5-3.1-6.7-4.7c-2.2-1.6-4.4-3.2-6.5-4.9c-1.1-0.8-2.2-1.7-3.2-2.5
			c-1-0.9-2.1-1.7-3.2-2.6l-3.1-2.6l-3.1-2.7c-2-1.8-4-3.6-6-5.5c-1.9-1.9-3.9-3.8-5.9-5.7s-3.8-3.9-5.7-5.9s-3.7-4-5.5-6
			s-3.6-4.1-5.3-6.2s-3.2-4-4.8-6.1c-1.6,2.1-3.2,4.1-4.8,6.1s-3.5,4.2-5.3,6.2s-3.6,4.1-5.5,6.1s-3.8,3.9-5.7,5.9s-3.9,3.8-5.8,5.7
			c-2,1.9-4,3.7-6,5.5l-3.1,2.7l-3.1,2.6c-1,0.9-2.1,1.7-3.2,2.6c-1,0.9-2.1,1.7-3.2,2.6c-2.1,1.7-4.4,3.3-6.6,4.9
			c-2.2,1.6-4.4,3.2-6.7,4.7s-4.6,3-6.9,4.4c-1.2,0.7-2.4,1.4-3.5,2.1c-1.2,0.7-2.4,1.4-3.6,2l-3.6,2l-3.7,1.8
			c-1.2,0.6-2.5,1.2-3.7,1.8s-2.5,1.2-3.8,1.7l-3.8,1.6c-1.3,0.5-2.6,1-3.9,1.4c-1.7,0.7-3.5,1.2-5.3,1.8l0.5,14.3l1.1,16.7
			c0.6,5.6,1.1,11.1,1.8,16.6l1.2,8.3c0.4,2.8,0.7,5.5,1.3,8.2c1,5.5,1.9,11,3.2,16.4c0.6,2.7,1.2,5.4,1.8,8.1l2.1,8l1,4l1.2,4
			l2.4,8c1.9,5.2,3.5,10.5,5.6,15.6l1.5,3.9l0.8,1.9l0.8,1.9l3.4,7.6l3.6,7.4l0.9,1.8l1,1.8l2,3.6c0.7,1.2,1.3,2.4,2,3.6l2.1,3.5
			l2.1,3.5L145.6,346.2z M144.9,306.4c0,0,2.5-2.9,5.3-1.4c0.3-0.1,0.7-0.2,1-0.2c2.6,0.1,4.9,4.1,4.9,4.1c0.1,0,0.3,0.1,0.4,0.1
			c2.1-2.1,4.1-4.4,5.8-6.9c-1.2-0.7-2.3-1.4-3.4-2.2c1.9,0.1,3.6,0.1,4.7,0l0.2-0.3c-5.6-0.9-8.6-0.7-14-7
			c3.8,0.3,7.6,0.4,11.4,0.1c-8.4-1.3-13.9-0.5-19.5-8.4c3.7,0.8,7.5,1.3,11.3,1.5c-8.8-2.5-14.9-3.8-19.3-11.7
			c2.9,1.2,5.9,2.2,8.9,3.1c-8.1-4.3-14-7.4-16.4-15.3c2.8,1.5,5.8,2.7,8.8,3.8c-6.5-4.1-12.1-6-13.7-14c2.4,1.7,5,3.2,7.6,4.6
			c-6-5.1-11.3-8.4-11.9-16.3c2.2,1.3,17.1,9.9,20.5-5.6c3.6-16.7,21.6-23.7,24.2-13.6c2.2,8.5,5.8,15.5,12.8,21.2
			c0.3-0.7,0.6-1.5,0.9-2.3c-0.9,0.6-1.5,1.2-1.5,1.2c0.4-1.9,1.4-3.6,2.8-4.9c-0.7,0.5-1.4,1.1-2,1.7c0.4-2,1.3-3.9,2.8-5.3
			c0.4-3-0.2-5.7-2.9-7.2c-4.6-2.5-7,2.2-7,2.2c-0.9-1.9-1.5-4-1.6-6.1c-0.4-4,6.5-1.2,7.5-4.2s4.8-3.9,11.1-3.8
			c4.7,0.1,8.2,2.1,10.2,5.3c2.7,2,4.4,5.2,4.6,8.6c0,0-0.6-0.7-1.5-1.7c1.4,2.1,2.2,4.6,2.2,7.1c0,0-0.8-0.9-2.1-2.1
			c1.6,2.5,2.3,5.5,2.1,8.4c0,0-0.3-0.6-0.9-1.4c1.2,6.8,2.2,13.1,2.2,13.1s1.1-6.2,2.3-13c-0.5,0.8-0.8,1.4-0.8,1.4
			c-0.2-3,0.5-5.9,2.1-8.4c-1.3,1.2-2.1,2.1-2.1,2.1c0.1-2.5,0.9-5,2.2-7.1c-0.9,0.9-1.5,1.7-1.5,1.7c0.2-3.4,1.8-6.6,4.6-8.6
			c2-3.2,5.5-5.3,10.2-5.3c6.2-0.1,10.1,0.8,11.1,3.8s8,0.2,7.5,4.2c-0.2,2.1-0.7,4.2-1.6,6.1c0,0-2.3-4.6-7-2.2
			c-2.7,1.4-3.3,4.2-2.9,7.2c1.5,1.5,2.4,3.3,2.8,5.3c-0.6-0.6-1.3-1.2-2-1.7c1.4,1.3,2.3,3,2.7,4.9c0,0-0.6-0.5-1.5-1.2
			c0.3,0.9,0.7,1.6,0.9,2.3c7-5.7,10.6-12.7,12.8-21.2c2.7-10.1,20.7-3.1,24.3,13.6c3.4,15.5,18.3,6.9,20.5,5.6
			c-0.5,7.9-5.8,11.1-11.8,16.3c2.6-1.4,5.2-2.9,7.6-4.6c-1.5,8-7.2,9.9-13.7,14c3-1.1,5.9-2.4,8.8-3.8c-2.4,7.9-8.3,11-16.4,15.3
			c3-0.8,6-1.8,8.9-3.1c-4.4,7.8-10.5,9.1-19.3,11.7c3.8-0.2,7.6-0.7,11.3-1.5c-5.6,7.9-11.1,7.1-19.5,8.4c3.8,0.2,7.6,0.2,11.4-0.1
			c-5.4,6.2-8.4,6.1-14,7l0.2,0.3c1.1,0,2.8,0.1,4.7,0c-1.1,0.8-2.2,1.5-3.4,2.2c1.7,2.5,3.7,4.8,5.8,6.9c0.1-0.1,0.3-0.1,0.4-0.1
			c0,0,2.3-4,4.9-4.1c0.3,0,0.7,0,1,0.2c2.8-1.5,5.3,1.4,5.3,1.4c-0.9,0-1.8,0.1-2.7,0.3c0.4-0.1,0.9,0,1.2,0.2
			c0.1,0.1,0.3,0.3,0.4,0.4c2.3-0.1,3.2,3.2,3.2,3.2c-0.8-0.7-1.8-1.1-2.9-1.2c-0.2,0.3-0.4,0.6-0.7,0.8c0.2,0.3,0.3,0.6,0.4,0.8
			c1,0.3,2.1,1.4,1.9,4.3c-0.6-0.8-1.3-1.5-2.1-2.1c-0.5,0.3-1.1,0.5-1.7,0.4c-3.8,0-5.9-1.7-8.7-0.8c-2.8,1-3.4,5.7-4.9,5.7h-0.5
			c-0.6,0.7-1.6,2.2-1.4,3.5c-1.3-1.1-1.7-3.1-0.8-4.6c-0.1-0.4-0.2-0.8-0.3-1.2c-0.2-1.8,2.3-2.6,4.1-3.7c-0.9-2.3-3.9-5.5-6.5-7.8
			c-2.1,1.1-4.3,2.1-6.5,3c3.2,3.3,5.6,6.9,5,9.8c-1.7,7.7-7.9,1.5-7.9,1.5s2.6,7.5-2.6,8.8s-5.7-1.5-5.7-1.5s-2.3,10.1-8.5,6.4
			c-1-0.8-1.8-1.8-2.2-3c0,0-1.4,5-6.3,5s-6.4-5-6.4-5c-0.4,1.2-1.2,2.3-2.2,3c-6.2,3.7-8.5-6.4-8.5-6.4s-0.6,2.8-5.7,1.5
			c-5.2-1.3-2.6-8.8-2.6-8.8s-6.2,6.2-7.9-1.5c-0.6-2.9,1.8-6.5,5-9.8c-2.2-0.9-4.4-1.9-6.5-3c-2.5,2.4-5.5,5.5-6.5,7.8
			c1.8,1.1,4.3,1.9,4.1,3.7c0,0.4-0.1,0.8-0.3,1.2c0.9,1.5,0.5,3.4-0.8,4.6c0.2-1.2-0.8-2.7-1.4-3.5h-0.5c-1.5,0-2.1-4.7-4.9-5.7
			c-2.8-1-5,0.8-8.7,0.8c-0.6,0-1.2-0.1-1.7-0.4c-0.8,0.6-1.5,1.3-2.1,2.1c-0.2-3,0.9-4,1.9-4.3c0.1-0.3,0.3-0.6,0.4-0.9
			c-0.3-0.2-0.5-0.5-0.7-0.8c-1.1,0.1-2.1,0.5-2.9,1.2c0,0,0.9-3.3,3.2-3.2c0.1-0.2,0.2-0.3,0.4-0.4c0.4-0.2,0.8-0.3,1.2-0.2
			C146.7,306.5,145.8,306.4,144.9,306.4z"/>
	</g>
	<path id="SVGID_x5F_16_x5F_" class="st15" d="M82.5,230.7c14.7-11.8,54.5-40.7,112.4-43.8c86.5-4.7,143.9,51.9,153,61.2"/>
	<text transform="matrix(0.9126 -0.409 0.409 0.9126 122.7135 206.3348)" class="st16 st17"> </text>
	<text transform="matrix(0.9392 -0.3433 0.3433 0.9392 125.6258 204.6367)" class="st18 st19 st20">M</text>
	<text transform="matrix(0.972 -0.2349 0.2349 0.972 147.756 196.6836)" class="st18 st19 st20">Y</text>
	<text transform="matrix(0.9902 -0.1394 0.1394 0.9902 166.2917 192.2309)" class="st18 st19 st20">B</text>
	<text transform="matrix(0.9987 -5.116654e-02 5.116654e-02 0.9987 183.8344 189.817)" class="st18 st19 st20">L</text>
	<text transform="matrix(0.999 4.567201e-02 -4.567201e-02 0.999 199.028 188.9005)" class="st18 st19 st20">A</text>
	<text transform="matrix(0.9893 0.146 -0.146 0.9893 220.0633 189.9519)" class="st18 st19 st20">Z</text>
	<text transform="matrix(0.9702 0.2423 -0.2423 0.9702 237.656 192.4577)" class="st18 st19 st20">O</text>
	<text transform="matrix(0.942 0.3356 -0.3356 0.942 258.7799 197.7974)" class="st18 st19 st20">N</text>
	<text transform="matrix(0.9232 0.3842 -0.3842 0.9232 277.1452 204.5665)" class="st16 st17"> </text>
	<text class="st16 st17"> </text>
</g>
<g id="Calque_3">
	<rect x="294.3" y="-82.2" class="st21" width="84.2" height="48.9"/>
</g>
</svg>
