<?xml version="1.0" encoding="iso-8859-1"?>
<!-- Generator: Adobe Illustrator 24.3.0, SVG Export Plug-In . SVG Version: 6.00 Build 0)  -->
<svg version="1.1" id="Calque_1" xmlns="http://www.w3.org/2000/svg" xmlns:xlink="http://www.w3.org/1999/xlink" x="0px" y="0px"
	 viewBox="0 0 133 72" style="enable-background:new 0 0 133 72;" xml:space="preserve">
<path style="fill:none;stroke:#A8A7A7;stroke-miterlimit:10;" d="M114.274,40.261c2.092-2.936,13.858-20.209,4.186-30.53
	c-3.822-4.079-10.562-6.612-29.368-7.692C49.209-0.25,23.874-1.705,11.947,12.302C-1.522,28.119,7.995,56.737,32.276,67.374
	C62.554,80.638,100.689,59.323,114.274,40.261z"/>
<path style="fill:none;stroke:#A8A7A7;stroke-miterlimit:10;" d="M118.17,33.168C92.365,14.839,61.223-7.281,33.959,3.206
	C12.909,11.302,0.856,36.263,10.394,51.074c13.914,21.605,68.523,13.461,101.265,8.578c8.061-1.202,18.39-3.229,20.474-8.494
	C134.014,46.405,128.566,40.551,118.17,33.168z"/>
<path style="fill:none;stroke:#A8A7A7;stroke-miterlimit:10;" d="M0.746,52.558C6.273,65.905,77.15,72.307,101.504,46.34
	c7.372-7.86,12.611-20.956,5.642-30.724C97.581,2.208,69.005,0.671,50.811,5.452C33.362,10.038,24.214,20.765,8.746,38.903
	C2.618,46.088-0.422,49.738,0.746,52.558z"/>
</svg>
