<svg xmlns="http://www.w3.org/2000/svg" viewBox="0 0 300.78 300.78"><defs><style>.cls-1{fill:#fff;}</style></defs><g id="Calque_2" data-name="Calque 2"><g id="Calque_1-2" data-name="Calque 1"><path class="cls-1" d="M1.86,0H300.78V298.91a1.87,1.87,0,1,1-3.73,0h0V3.73H1.86A1.87,1.87,0,0,1,1.86,0Z"/><path class="cls-1" d="M30,15.79H247.66a1.87,1.87,0,0,1,0,3.73H30a1.87,1.87,0,1,1,0-3.73Z"/><path class="cls-1" d="M283.54,49.7a1.56,1.56,0,0,1,1.56,1.56V269a1.56,1.56,0,0,1-3.12,0V51.26A1.56,1.56,0,0,1,283.54,49.7Z"/><polygon class="cls-1" points="275.78 59.05 275.78 59.05 275.78 59.05 275.78 59.05"/><path class="cls-1" d="M261.48,55.08c.23-.25.48-.5.73-.73a11.84,11.84,0,0,1,9.22-3,13.86,13.86,0,0,1,2,.32,10.7,10.7,0,0,1,8.07,6.87,10,10,0,0,1-2.68,10.55,8.15,8.15,0,0,1-6.24,2.09,9.88,9.88,0,0,1-1.46-.23,7.42,7.42,0,0,1-5.58-4.75,7,7,0,0,1,1.87-7.43,5.94,5.94,0,0,1,5.4-1.42,5.86,5.86,0,0,1,3,1.73,1.67,1.67,0,0,1,.4,1.51,1.59,1.59,0,0,1-.48.84,1.67,1.67,0,0,1-1.52.41,1.72,1.72,0,0,1-.84-.49,2.54,2.54,0,0,0-1.31-.76,2.64,2.64,0,0,0-2.38.63,3.67,3.67,0,0,0-1.08,1.87,3.57,3.57,0,0,0,.1,2,4.09,4.09,0,0,0,3.17,2.59,6.15,6.15,0,0,0,1,.16,4.81,4.81,0,0,0,3.69-1.21,6.75,6.75,0,0,0,2-3.39,6.68,6.68,0,0,0-.17-3.65,7.31,7.31,0,0,0-5.63-4.69,12.7,12.7,0,0,0-1.58-.26,8.44,8.44,0,0,0-6.64,2.16q-.28.27-.57.57a9.7,9.7,0,0,0-2.38,4.43,10.27,10.27,0,0,0,.06,4.77,10.85,10.85,0,0,0,6.94,7.68l.42.15h0a17,17,0,0,0,2.23.67,33.15,33.15,0,0,0,8.42.74h0a25.21,25.21,0,0,1,6.88.58c7.36,1.72,10.46,6.49,10.9,7.23a4.4,4.4,0,0,1,.3.45,8,8,0,0,1,1.12,5.46q0,.32-.12.63a8.05,8.05,0,0,1-3.09,4.67A6.79,6.79,0,0,1,290,96a6.72,6.72,0,0,1-3.88-2.52,5.71,5.71,0,0,1-1-4.58h0l0-.12a5.37,5.37,0,0,1,4-4.26,5,5,0,0,1,2.17,0,5,5,0,0,1,2.86,1.88h0a1.66,1.66,0,0,1-.35,2.32,1.7,1.7,0,0,1-1.37.29,1.68,1.68,0,0,1-1-.64,1.66,1.66,0,0,0-.93-.61,1.74,1.74,0,0,0-.72,0,1.65,1.65,0,0,0-.9.55,2.73,2.73,0,0,0-.59,1.22l0,.07h0a2.34,2.34,0,0,0,.37,1.88,3.4,3.4,0,0,0,2,1.28,3.47,3.47,0,0,0,2.87-.58,4.8,4.8,0,0,0,1.81-2.75c0-.12.05-.24.07-.37a4.65,4.65,0,0,0-.86-3.52v0l-.08-.12h0c-.09-.16-2.48-4.23-8.81-5.71a21.43,21.43,0,0,0-6-.5h0a36.19,36.19,0,0,1-9.29-.81,20.79,20.79,0,0,1-2.65-.8h0l-.39-.14a14.17,14.17,0,0,1-9.08-10,13.69,13.69,0,0,1-.07-6.33A13,13,0,0,1,261.48,55.08Z"/><polygon class="cls-1" points="239.75 24.39 239.75 24.39 239.76 24.39 239.75 24.39"/><path class="cls-1" d="M244,38.61c.25-.24.49-.49.73-.75a11.86,11.86,0,0,0,2.83-9.28,14.12,14.12,0,0,0-.36-2,10.71,10.71,0,0,0-7-7.92,9.84,9.84,0,0,0-5.48-.15,10,10,0,0,0-5,3,8.15,8.15,0,0,0-2,6.28,9.9,9.9,0,0,0,.26,1.46,7.46,7.46,0,0,0,4.87,5.48,7,7,0,0,0,7.38-2,5.94,5.94,0,0,0-.47-8.38,1.67,1.67,0,0,0-1.53-.37,1.71,1.71,0,0,0-.83.5,1.67,1.67,0,0,0,.14,2.36,2.49,2.49,0,0,1,.78,1.29,2.62,2.62,0,0,1-.58,2.39,3.65,3.65,0,0,1-1.85,1.12,3.57,3.57,0,0,1-2-.06,4.11,4.11,0,0,1-2.66-3.11,7.41,7.41,0,0,1-.18-1,4.84,4.84,0,0,1,1.14-3.71,6.7,6.7,0,0,1,3.35-2.05,6.58,6.58,0,0,1,3.65.11A7.3,7.3,0,0,1,244,27.38a12.67,12.67,0,0,1,.28,1.58,8.4,8.4,0,0,1-2,6.68c-.18.2-.37.39-.56.58a9.72,9.72,0,0,1-4.38,2.47,10.24,10.24,0,0,1-4.77,0A10.8,10.8,0,0,1,224.72,32l-.16-.42h0a18.19,18.19,0,0,1-.71-2.22,33.17,33.17,0,0,1-.91-8.41h0a25.47,25.47,0,0,0-.72-6.87c-1.87-7.32-6.7-10.32-7.45-10.75L214.3,3a8,8,0,0,0-5.49-1,6.19,6.19,0,0,0-.62.13,8,8,0,0,0-4.61,3.18,6.83,6.83,0,0,0,1.57,9.45,5.76,5.76,0,0,0,4.61.87h0l.11,0a5.38,5.38,0,0,0,4.18-4.12A4.8,4.8,0,0,0,214,9.3a4.91,4.91,0,0,0-1.94-2.82h0a1.69,1.69,0,0,0-1.37-.26,1.74,1.74,0,0,0-.95.66,1.65,1.65,0,0,0-.25,1.37,1.68,1.68,0,0,0,.65.95,1.62,1.62,0,0,1,.65,1.63,1.65,1.65,0,0,1-.52.92,2.81,2.81,0,0,1-1.21.61l-.07,0h0A2.36,2.36,0,0,1,207.1,12a3.4,3.4,0,0,1-1.32-1.94,3.47,3.47,0,0,1,.52-2.88A4.77,4.77,0,0,1,209,5.35l.37-.08a4.67,4.67,0,0,1,3.54.79h0l.12.08h0c.16.1,4.28,2.39,5.89,8.7a22.06,22.06,0,0,1,.63,6h0a36.21,36.21,0,0,0,1,9.27,20.83,20.83,0,0,0,.85,2.63h0l.14.39A14.18,14.18,0,0,0,231.81,42a13.39,13.39,0,0,0,6.33-.06A12.89,12.89,0,0,0,244,38.61Z"/><polygon class="cls-1" points="251.89 16.2 251.89 16.2 251.89 16.2 251.89 16.2"/><path class="cls-1" d="M256.1,1.15c-.36.08-.72.17-1.07.27a12.43,12.43,0,0,0-7.74,6.65,14.21,14.21,0,0,0-.79,2,11.27,11.27,0,0,0,1.8,11,10.53,10.53,0,0,0,11,3.32,8.58,8.58,0,0,0,5.28-4.48,10.84,10.84,0,0,0,.58-1.44,7.83,7.83,0,0,0-1.25-7.62,7.36,7.36,0,0,0-7.7-2.35,6.25,6.25,0,0,0-4.29,7.73A1.73,1.73,0,0,0,253,17.38a1.69,1.69,0,0,0,1,0,1.76,1.76,0,0,0,1.2-2.17,2.69,2.69,0,0,1,0-1.59,2.77,2.77,0,0,1,1.86-1.8,3.87,3.87,0,0,1,4,1.23,4.32,4.32,0,0,1,.62,4.26,6.91,6.91,0,0,1-.41,1A5,5,0,0,1,258.3,21,7,7,0,0,1,251,18.78a7.7,7.7,0,0,1-1.16-7.62,11.18,11.18,0,0,1,.63-1.57A8.84,8.84,0,0,1,256,4.79a8.34,8.34,0,0,1,.83-.2,10.13,10.13,0,0,1,5.28.26,10.66,10.66,0,0,1,4.27,2.65,11.42,11.42,0,0,1,3.15,10.43l-.1.46h0a19,19,0,0,1-.61,2.38,35.07,35.07,0,0,1-3.92,8h0a26.46,26.46,0,0,0-3.21,6.52c-2.46,7.57.15,12.95.58,13.75a4.9,4.9,0,0,0,.24.52,8.44,8.44,0,0,0,4.32,4l.63.23a8.43,8.43,0,0,0,5.89-.24,7.19,7.19,0,0,0,3.91-9.29,6,6,0,0,0-3.61-3.36h0l-.12,0a5.66,5.66,0,0,0-6,1.32,5.33,5.33,0,0,0-1.17,2,5.25,5.25,0,0,0,.14,3.6h0a1.76,1.76,0,0,0,1.08,1,1.69,1.69,0,0,0,1.21-.05,1.75,1.75,0,0,0,.95-2.29,1.63,1.63,0,0,1,0-1.17,1.59,1.59,0,0,1,.38-.65,1.8,1.8,0,0,1,1-.52,3,3,0,0,1,1.42.14l.08,0h0a2.55,2.55,0,0,1,1.5,1.37,3.66,3.66,0,0,1-2,4.73,5,5,0,0,1-3.46.14l-.37-.13a5,5,0,0,1-2.71-2.7v0l-.07-.14h0c-.09-.17-2.47-4.54-.36-11a23.18,23.18,0,0,1,2.81-5.66h0a38.32,38.32,0,0,0,4.32-8.81,21.27,21.27,0,0,0,.72-2.82h0l.09-.43A14.91,14.91,0,0,0,268.85,5a14.2,14.2,0,0,0-5.67-3.5A13.67,13.67,0,0,0,256.1,1.15Z"/><polygon class="cls-1" points="285.4 47.53 285.4 47.53 285.4 47.53 285.4 47.53"/><path class="cls-1" d="M300.13,42.32c-.05.36-.12.73-.19,1.09a12.51,12.51,0,0,1-6.12,8.17,17.55,17.55,0,0,1-1.91.92,11.28,11.28,0,0,1-11.1-1.06,10.55,10.55,0,0,1-4.05-10.73,8.57,8.57,0,0,1,4.12-5.56,10.48,10.48,0,0,1,1.39-.68,7.86,7.86,0,0,1,7.69.73,7.38,7.38,0,0,1,2.86,7.53,6.24,6.24,0,0,1-7.42,4.8,1.76,1.76,0,0,1-1.35-2.08,1.76,1.76,0,0,1,2.08-1.35,2.67,2.67,0,0,0,1.59-.13,2.76,2.76,0,0,0,1.67-2,3.9,3.9,0,0,0-.19-2.27A3.83,3.83,0,0,0,287.89,38a4.32,4.32,0,0,0-4.29-.33,8.49,8.49,0,0,0-1,.47,5.05,5.05,0,0,0-2.45,3.28,7,7,0,0,0,.34,4.11,6.89,6.89,0,0,0,2.36,3,7.65,7.65,0,0,0,7.67.65,11.1,11.1,0,0,0,1.52-.73,8.87,8.87,0,0,0,4.43-5.86c.06-.28.1-.55.14-.84a10.13,10.13,0,0,0-.62-5.25,10.78,10.78,0,0,0-2.92-4.08,11.41,11.41,0,0,0-10.62-2.44l-.45.13h0a18.58,18.58,0,0,0-2.33.77A34.81,34.81,0,0,0,272,35.41h0a26.7,26.7,0,0,1-6.29,3.65c-7.38,3-12.93.72-13.76.34l-.53-.2a8.47,8.47,0,0,1-4.26-4c-.1-.2-.19-.41-.27-.61a8.44,8.44,0,0,1-.16-5.9,7.18,7.18,0,0,1,4.14-4.36,7.1,7.1,0,0,1,4.86-.16,6,6,0,0,1,3.6,3.37h0l.05.11a5.7,5.7,0,0,1-.91,6.12A5.32,5.32,0,0,1,256.59,35a5.24,5.24,0,0,1-3.6.1h0a1.75,1.75,0,0,1-1.09-2.22,1.74,1.74,0,0,1,2.22-1.1,1.68,1.68,0,0,0,1.17,0,1.71,1.71,0,0,0,.62-.42,1.8,1.8,0,0,0,.45-1,2.85,2.85,0,0,0-.23-1.4l0-.08h0a2.48,2.48,0,0,0-1.46-1.4A3.65,3.65,0,0,0,250,29.77a5,5,0,0,0,.09,3.46l.16.36a4.94,4.94,0,0,0,2.88,2.52h0l.15.06h0c.18.08,4.69,2.16,11-.39a23,23,0,0,0,5.46-3.17h0a38.06,38.06,0,0,1,8.5-4.9,22.74,22.74,0,0,1,2.76-.91h0l.42-.12a14.91,14.91,0,0,1,13.88,3.18,14.34,14.34,0,0,1,3.88,5.42A13.73,13.73,0,0,1,300.13,42.32Z"/><path class="cls-1" d="M256.53,44.15a13.37,13.37,0,0,1,1.71-.82,14.29,14.29,0,0,1-.78,1.64,6.29,6.29,0,0,1-1.83,2.17h0a.93.93,0,0,1-.53.18.89.89,0,0,1-.6-.26.87.87,0,0,1-.26-.59,1,1,0,0,1,.19-.54A6.27,6.27,0,0,1,256.53,44.15Z"/><path class="cls-1" d="M252.53,49l.34-.35-.34.35a3.64,3.64,0,0,0,2.56,1.08,3.75,3.75,0,0,0,2.1-.66,10.79,10.79,0,0,0,3.51-4.76,20.09,20.09,0,0,0,1.06-3.23,1,1,0,0,0,0-.28,1.48,1.48,0,0,0-.43-1,1.41,1.41,0,0,0-1-.42,1.33,1.33,0,0,0-.28,0h0a20,20,0,0,0-3.23,1.07,10.76,10.76,0,0,0-4.75,3.5,3.75,3.75,0,0,0-.66,2.1A3.62,3.62,0,0,0,252.53,49Zm1.71-2.57a1,1,0,0,1,.19-.54,6.27,6.27,0,0,1,2.1-1.78,13.37,13.37,0,0,1,1.71-.82,14.29,14.29,0,0,1-.78,1.64,6.29,6.29,0,0,1-1.83,2.17h0a.93.93,0,0,1-.53.18.89.89,0,0,1-.6-.26A.87.87,0,0,1,254.24,46.47Z"/><path class="cls-1" d="M244.5,58a14,14,0,0,1-1.71.82,16.06,16.06,0,0,1,.77-1.64A6.52,6.52,0,0,1,245.39,55h0a.93.93,0,0,1,.53-.18.87.87,0,0,1,.59.26.79.79,0,0,1,.26.59.93.93,0,0,1-.18.54A6.27,6.27,0,0,1,244.5,58Z"/><path class="cls-1" d="M248.5,53.06l-.35.35.35-.35A3.62,3.62,0,0,0,245.94,52a3.75,3.75,0,0,0-2.1.66,10.79,10.79,0,0,0-3.51,4.76,20.71,20.71,0,0,0-1.07,3.23,1.33,1.33,0,0,0,0,.28,1.42,1.42,0,0,0,.43,1,1.37,1.37,0,0,0,1,.43,1.33,1.33,0,0,0,.28,0h0a20.78,20.78,0,0,0,3.24-1.07,10.87,10.87,0,0,0,4.75-3.5,3.75,3.75,0,0,0,.66-2.11A3.62,3.62,0,0,0,248.5,53.06Zm-1.72,2.57a.93.93,0,0,1-.18.54A6.27,6.27,0,0,1,244.5,58a14,14,0,0,1-1.71.82,16.06,16.06,0,0,1,.77-1.64A6.52,6.52,0,0,1,245.39,55h0a.93.93,0,0,1,.53-.18.87.87,0,0,1,.59.26A.79.79,0,0,1,246.78,55.63Z"/><path class="cls-1" d="M277.26,20.07a3.49,3.49,0,1,0,3.48-3.49A3.48,3.48,0,0,0,277.26,20.07Z"/><path class="cls-1" d="M261.52,1.85A1.54,1.54,0,0,1,263.08.32a36.73,36.73,0,0,1,25.53,10.51A35.81,35.81,0,0,1,299.32,36a1.55,1.55,0,0,1-3.1,0h0a32.66,32.66,0,0,0-9.79-23,33.63,33.63,0,0,0-23.37-9.63A1.54,1.54,0,0,1,261.52,1.85Z"/><path class="cls-1" d="M230.5,39.3a1.37,1.37,0,0,1,1.37,1.34h0a28.56,28.56,0,0,0,8.56,20.14,29.42,29.42,0,0,0,20.45,8.43,1.36,1.36,0,1,1,0,2.71,32.14,32.14,0,0,1-22.34-9.21,31.33,31.33,0,0,1-9.37-22A1.35,1.35,0,0,1,230.5,39.3Z"/><path class="cls-1" d="M15.33,18.68a1.33,1.33,0,0,1,0-2.22c.29-.18,7-4.47,12.32-3.42h0a4.61,4.61,0,0,1,0,9.06,9.48,9.48,0,0,1-1.77.16C21,22.26,15.58,18.84,15.33,18.68Zm11.81-3.06c-2.74-.54-6.24.87-8.39,2,2.33,1.16,5.8,2.46,8.39,1.94a2,2,0,0,0,0-3.89Z"/><path class="cls-1" d="M33.68,17.66a5.2,5.2,0,0,1-1.8-3.55,4.43,4.43,0,0,1,4-4.75,3.81,3.81,0,0,1,2.9,1.05,3.57,3.57,0,0,1,1,3.81,3.29,3.29,0,0,1-2,2c1.13-.1,4.63-.79,7.24-5.43a19.72,19.72,0,0,1,4.7-5.7L49.9,5a8.84,8.84,0,0,1,8.32-1.51,8.21,8.21,0,0,1,5.5,5.72l.15.64a7.51,7.51,0,0,1-1.44,5.94,7,7,0,0,1-7.21,3,6.37,6.37,0,0,1-4.79-5,5.23,5.23,0,0,1,1-4.11,5,5,0,0,1,5.11-2.14A4.54,4.54,0,0,1,60,11.06a3.9,3.9,0,0,1-3.07,4.57A1.32,1.32,0,1,1,56.38,13a1.26,1.26,0,0,0,1-1.48,1.92,1.92,0,0,0-1.45-1.5,2.39,2.39,0,0,0-2.41,1.14,2.63,2.63,0,0,0-.5,2,3.74,3.74,0,0,0,2.8,2.92,4.44,4.44,0,0,0,4.51-2,4.77,4.77,0,0,0,1-3.83,3.43,3.43,0,0,0-.11-.46A5.59,5.59,0,0,0,57.41,6a6.24,6.24,0,0,0-5.86,1l-.22.18a17.34,17.34,0,0,0-4,4.92c-3.69,6.57-9.16,6.77-9.91,6.78H37A5.13,5.13,0,0,1,33.68,17.66ZM36.12,12a1.79,1.79,0,0,0-1.61,1.93,2.58,2.58,0,0,0,.88,1.75,2.44,2.44,0,0,0,.55.35,1.34,1.34,0,0,1-.38-.82,1.32,1.32,0,0,1,1.21-1.42.66.66,0,0,0,.57-.44,1,1,0,0,0-.38-1,1.12,1.12,0,0,0-.77-.33Z"/><path class="cls-1" d="M49.9,30.2l-.16-.13A19.77,19.77,0,0,1,45,24.34c-2.6-4.65-6.11-5.33-7.24-5.42a3.28,3.28,0,0,1,2.06,2,3.57,3.57,0,0,1-1,3.81,3.77,3.77,0,0,1-2.9,1.05,4.43,4.43,0,0,1-4-4.75,5.18,5.18,0,0,1,5.51-4.78c.79,0,6.22.21,9.91,6.77A17.21,17.21,0,0,0,51.36,28l.19.16a6.24,6.24,0,0,0,5.86,1.05,5.58,5.58,0,0,0,3.76-3.91,3.69,3.69,0,0,0,.11-.45,4.77,4.77,0,0,0-1-3.83,4.44,4.44,0,0,0-4.51-2A3.73,3.73,0,0,0,53,21.92a2.6,2.6,0,0,0,.5,2,2.39,2.39,0,0,0,2.41,1.15,1.92,1.92,0,0,0,1.45-1.5,1.26,1.26,0,0,0-1-1.48,1.32,1.32,0,1,1,.51-2.59A3.92,3.92,0,0,1,60,24.1a4.58,4.58,0,0,1-3.45,3.57,5,5,0,0,1-5.11-2.14,5.24,5.24,0,0,1-1-4.11,6.36,6.36,0,0,1,4.79-5,7,7,0,0,1,7.21,3,7.5,7.5,0,0,1,1.44,5.94c0,.21-.1.43-.15.63a8.21,8.21,0,0,1-5.5,5.73A8.89,8.89,0,0,1,49.9,30.2ZM35.39,19.5a2.58,2.58,0,0,0-.88,1.75,1.77,1.77,0,0,0,1.61,1.92,1.08,1.08,0,0,0,.84-.32,1,1,0,0,0,.38-1,.69.69,0,0,0-.57-.44A1.31,1.31,0,0,1,35.56,20a1.34,1.34,0,0,1,.38-.82A2.44,2.44,0,0,0,35.39,19.5Z"/><path class="cls-1" d="M284.64,290.24a1.33,1.33,0,0,1-2.22,0c-.18-.29-4.47-7-3.42-12.32h0a4.61,4.61,0,0,1,9.06,0,9.29,9.29,0,0,1,.16,1.76C288.22,284.6,284.8,290,284.64,290.24Zm-3.06-11.81c-.54,2.74.87,6.23,1.95,8.39,1.16-2.33,2.46-5.8,1.94-8.39a2,2,0,0,0-3.89,0Z"/><path class="cls-1" d="M283.62,271.89a5.18,5.18,0,0,1-3.55,1.8,4.43,4.43,0,0,1-4.75-4,3.79,3.79,0,0,1,1.05-2.9,3.55,3.55,0,0,1,3.81-1,3.29,3.29,0,0,1,2,2.05c-.1-1.14-.79-4.64-5.43-7.24a19.88,19.88,0,0,1-5.7-4.7l-.15-.2a8.83,8.83,0,0,1-1.51-8.32,8.22,8.22,0,0,1,5.72-5.49c.21-.06.42-.11.64-.15a7.47,7.47,0,0,1,5.94,1.44,7,7,0,0,1,3,7.21,6.34,6.34,0,0,1-5,4.78,5.22,5.22,0,0,1-4.11-1,5,5,0,0,1-2.14-5.12A4.54,4.54,0,0,1,277,245.6a3.92,3.92,0,0,1,4.57,3.08,1.32,1.32,0,0,1-2.59.5,1.26,1.26,0,0,0-1.48-1,1.91,1.91,0,0,0-1.5,1.44,2.4,2.4,0,0,0,1.14,2.42,2.63,2.63,0,0,0,2,.5,3.74,3.74,0,0,0,2.92-2.8,4.43,4.43,0,0,0-2-4.51,4.77,4.77,0,0,0-3.83-1l-.46.1a5.62,5.62,0,0,0-3.9,3.77A6.24,6.24,0,0,0,273,254l.18.22a17.51,17.51,0,0,0,4.92,4c6.57,3.68,6.77,9.15,6.78,9.91,0,.12,0,.23,0,.35A5.15,5.15,0,0,1,283.62,271.89ZM278,269.45a1.78,1.78,0,0,0,1.92,1.61,2.55,2.55,0,0,0,1.75-.89,2.62,2.62,0,0,0,.35-.54,1.31,1.31,0,0,1-2.24-.83.66.66,0,0,0-.44-.57,1,1,0,0,0-1,.38,1.12,1.12,0,0,0-.33.76A.22.22,0,0,0,278,269.45Z"/><path class="cls-1" d="M296.16,255.67l-.13.16a19.76,19.76,0,0,1-5.73,4.73c-4.65,2.61-5.33,6.12-5.42,7.24a3.29,3.29,0,0,1,2-2.05,3.55,3.55,0,0,1,3.81,1,3.75,3.75,0,0,1,1.05,2.9,4.43,4.43,0,0,1-4.75,4,5.18,5.18,0,0,1-4.78-5.51c0-.8.21-6.23,6.78-9.91a17.45,17.45,0,0,0,4.94-4.06l.16-.19a6.24,6.24,0,0,0,1.05-5.86,5.61,5.61,0,0,0-3.91-3.77l-.45-.1a4.77,4.77,0,0,0-3.83,1,4.43,4.43,0,0,0-2,4.51,3.74,3.74,0,0,0,2.92,2.8,2.6,2.6,0,0,0,2-.5,2.4,2.4,0,0,0,1.15-2.42,1.91,1.91,0,0,0-1.5-1.44,1.26,1.26,0,0,0-1.48,1,1.32,1.32,0,0,1-2.59-.5,3.92,3.92,0,0,1,4.57-3.08,4.54,4.54,0,0,1,3.57,3.44,5,5,0,0,1-2.14,5.12,5.23,5.23,0,0,1-4.11,1,6.33,6.33,0,0,1-5-4.78,7,7,0,0,1,3-7.21,7.46,7.46,0,0,1,5.94-1.44,6.42,6.42,0,0,1,.63.15,8.22,8.22,0,0,1,5.73,5.49,9,9,0,0,1,.44,2.78A8.86,8.86,0,0,1,296.16,255.67Zm-10.7,14.5a2.55,2.55,0,0,0,1.75.89,1.78,1.78,0,0,0,1.92-1.61,1,1,0,0,0-.32-.84,1,1,0,0,0-1-.38.66.66,0,0,0-.44.57,1.31,1.31,0,0,1-2.24.83A2.38,2.38,0,0,0,285.46,270.17Z"/></g></g></svg>