<svg xmlns="http://www.w3.org/2000/svg" xmlns:xlink="http://www.w3.org/1999/xlink" viewBox="0 0 485.7 245.71"><defs><style>.cls-1{isolation:isolate;}.cls-2{fill:url(#linear-gradient);}.cls-3{fill:url(#linear-gradient-2);}.cls-4{fill:url(#linear-gradient-3);}.cls-5{fill:#a3a3a3;}.cls-6{fill:url(#linear-gradient-4);}.cls-7{fill:url(#linear-gradient-5);}.cls-8{fill:url(#linear-gradient-6);}.cls-9{fill:url(#linear-gradient-7);}.cls-10{fill:#b3b3b3;}.cls-11{fill:url(#linear-gradient-8);}.cls-12{fill:#c7c7c7;}.cls-13{fill:url(#linear-gradient-9);}.cls-14{fill:url(#linear-gradient-10);}.cls-15{fill:url(#linear-gradient-11);}.cls-16{fill:url(#linear-gradient-12);}.cls-17{fill:#ccbab3;mix-blend-mode:multiply;}.cls-18{fill:url(#linear-gradient-13);}.cls-19{fill:url(#linear-gradient-14);}.cls-20{fill:url(#linear-gradient-15);}.cls-21{fill:url(#linear-gradient-16);}.cls-22{fill:url(#linear-gradient-17);}.cls-23{fill:url(#linear-gradient-18);}.cls-24{fill:url(#linear-gradient-19);}.cls-25{fill:url(#linear-gradient-20);}.cls-26{fill:url(#linear-gradient-21);}.cls-27{fill:#6e192b;}.cls-28{fill:url(#linear-gradient-22);}.cls-29{fill:url(#linear-gradient-23);}.cls-30{fill:url(#linear-gradient-24);}.cls-31{fill:url(#linear-gradient-25);}.cls-32{fill:url(#linear-gradient-26);}.cls-33{fill:url(#linear-gradient-27);}.cls-34{fill:url(#linear-gradient-28);}.cls-35{fill:url(#linear-gradient-29);}.cls-36{fill:url(#linear-gradient-30);}.cls-37{fill:url(#linear-gradient-31);}.cls-38{fill:url(#linear-gradient-32);}.cls-39{fill:url(#linear-gradient-33);}.cls-40{fill:url(#linear-gradient-34);}.cls-41{fill:url(#linear-gradient-35);}.cls-42{fill:url(#linear-gradient-36);}.cls-43{fill:url(#linear-gradient-37);}.cls-44{fill:url(#linear-gradient-38);}.cls-45{fill:url(#linear-gradient-39);}.cls-46{fill:url(#linear-gradient-40);}.cls-47{fill:url(#linear-gradient-41);}.cls-48{fill:url(#linear-gradient-42);}.cls-49{fill:url(#linear-gradient-43);}.cls-50{fill:url(#linear-gradient-44);}.cls-51{fill:url(#linear-gradient-45);}.cls-52{fill:url(#linear-gradient-46);}.cls-53{fill:url(#linear-gradient-47);}.cls-54{fill:url(#linear-gradient-48);}.cls-55{fill:url(#linear-gradient-49);}.cls-56{fill:url(#linear-gradient-50);}.cls-57{fill:url(#linear-gradient-51);}.cls-58{fill:url(#linear-gradient-52);}.cls-59{fill:url(#linear-gradient-53);}.cls-60{fill:url(#linear-gradient-54);}.cls-61{fill:url(#linear-gradient-55);}.cls-62{fill:url(#linear-gradient-56);}.cls-63{fill:url(#linear-gradient-57);}.cls-64{fill:url(#linear-gradient-58);}.cls-65{fill:url(#linear-gradient-59);}.cls-66{fill:url(#linear-gradient-60);}.cls-67{fill:url(#linear-gradient-61);}.cls-68{fill:url(#linear-gradient-62);}.cls-69{fill:url(#linear-gradient-63);}.cls-70{fill:url(#linear-gradient-64);}.cls-71{fill:url(#linear-gradient-65);}.cls-72{fill:url(#linear-gradient-66);}.cls-73{fill:url(#linear-gradient-67);}.cls-74{fill:url(#linear-gradient-68);}.cls-75{fill:url(#linear-gradient-69);}.cls-76{fill:url(#linear-gradient-70);}.cls-77{fill:url(#linear-gradient-71);}.cls-78{fill:url(#linear-gradient-72);}.cls-79{fill:url(#linear-gradient-73);}.cls-80{fill:url(#linear-gradient-74);}.cls-81{fill:url(#linear-gradient-75);}.cls-82{fill:url(#linear-gradient-76);}.cls-83{fill:url(#linear-gradient-77);}.cls-84{fill:url(#linear-gradient-78);}.cls-85{fill:url(#linear-gradient-79);}.cls-86{fill:url(#linear-gradient-80);}.cls-87{fill:url(#linear-gradient-81);}.cls-88{fill:url(#linear-gradient-82);}.cls-89{fill:url(#linear-gradient-83);}.cls-90{fill:url(#linear-gradient-84);}.cls-91{fill:url(#linear-gradient-85);}.cls-92{fill:url(#linear-gradient-86);}.cls-93{fill:url(#linear-gradient-87);}.cls-94{fill:url(#linear-gradient-88);}.cls-95{fill:url(#linear-gradient-89);}.cls-96{fill:url(#linear-gradient-90);}.cls-97{fill:url(#linear-gradient-91);}.cls-98{fill:url(#linear-gradient-92);}.cls-99{fill:url(#linear-gradient-93);}.cls-100{fill:url(#linear-gradient-94);}.cls-101{fill:url(#linear-gradient-95);}.cls-102{fill:url(#linear-gradient-96);}.cls-103{fill:url(#linear-gradient-97);}.cls-104{fill:url(#linear-gradient-98);}.cls-105{fill:url(#linear-gradient-99);}.cls-106{fill:url(#linear-gradient-100);}.cls-107{fill:url(#linear-gradient-101);}.cls-108{fill:url(#linear-gradient-102);}.cls-109{fill:url(#linear-gradient-103);}.cls-110{fill:url(#linear-gradient-104);}.cls-111{fill:url(#linear-gradient-105);}.cls-112{fill:url(#linear-gradient-106);}.cls-113{fill:url(#linear-gradient-107);}.cls-114{fill:url(#linear-gradient-108);}.cls-115{fill:url(#linear-gradient-109);}.cls-116{fill:url(#linear-gradient-110);}.cls-117{fill:url(#linear-gradient-111);}.cls-118{fill:url(#linear-gradient-112);}.cls-119{fill:url(#linear-gradient-113);}.cls-120{fill:url(#linear-gradient-114);}.cls-121{fill:url(#linear-gradient-115);}.cls-122{fill:url(#linear-gradient-116);}.cls-123{fill:url(#linear-gradient-117);}.cls-124{fill:url(#linear-gradient-118);}.cls-125{fill:url(#linear-gradient-119);}.cls-126{fill:url(#linear-gradient-120);}.cls-127{fill:url(#linear-gradient-121);}.cls-128{fill:url(#linear-gradient-122);}</style><linearGradient id="linear-gradient" x1="65.65" y1="25.94" x2="65.65" y2="175.59" gradientUnits="userSpaceOnUse"><stop offset="0" stop-color="#bd6542"/><stop offset="1" stop-color="#7d422c"/></linearGradient><linearGradient id="linear-gradient-2" x1="420.04" y1="25.94" x2="420.04" y2="175.59" xlink:href="#linear-gradient"/><linearGradient id="linear-gradient-3" x1="177.89" y1="167.21" x2="252.3" y2="167.21" gradientUnits="userSpaceOnUse"><stop offset="0" stop-color="#b0b0b0"/><stop offset="1" stop-color="#696969"/></linearGradient><linearGradient id="linear-gradient-4" x1="221.88" y1="200.4" x2="227.91" y2="174.5" gradientTransform="translate(-54.11 64.6) rotate(-18.51)" gradientUnits="userSpaceOnUse"><stop offset="0" stop-color="#4f8c66"/><stop offset="1" stop-color="#aae07e"/></linearGradient><linearGradient id="linear-gradient-5" x1="214.86" y1="149.93" x2="220.89" y2="124.02" gradientTransform="translate(-40 232.58) rotate(-46.04)" xlink:href="#linear-gradient-4"/><linearGradient id="linear-gradient-6" x1="226.85" y1="108.32" x2="231.24" y2="89.45" gradientTransform="matrix(0.26, -0.96, 0.96, 0.26, 52.04, 374.93)" xlink:href="#linear-gradient-4"/><linearGradient id="linear-gradient-7" x1="254.62" y1="165.89" x2="329.03" y2="165.89" xlink:href="#linear-gradient-3"/><linearGradient id="linear-gradient-8" x1="215.1" y1="186.65" x2="299.99" y2="186.65" xlink:href="#linear-gradient-3"/><linearGradient id="linear-gradient-9" x1="300.28" y1="239.06" x2="307.79" y2="206.83" xlink:href="#linear-gradient-4"/><linearGradient id="linear-gradient-10" x1="266.43" y1="219.58" x2="273.94" y2="187.34" gradientTransform="translate(-40 232.58) rotate(-46.04)" xlink:href="#linear-gradient-4"/><linearGradient id="linear-gradient-11" x1="237.95" y1="194.12" x2="243.42" y2="170.64" gradientTransform="matrix(0.26, -0.96, 0.96, 0.26, 52.04, 374.93)" xlink:href="#linear-gradient-4"/><linearGradient id="linear-gradient-12" x1="254.99" y1="136.7" x2="254.99" y2="107.24" gradientUnits="userSpaceOnUse"><stop offset="0" stop-color="#cf7a5d"/><stop offset="1" stop-color="#ffa685"/></linearGradient><linearGradient id="linear-gradient-13" x1="345.1" y1="183.6" x2="362.27" y2="152.28" gradientUnits="userSpaceOnUse"><stop offset="0" stop-color="#ff641c"/><stop offset="1" stop-color="#ffa81c"/></linearGradient><linearGradient id="linear-gradient-14" x1="326.65" y1="184.89" x2="341.29" y2="168.92" xlink:href="#linear-gradient-13"/><linearGradient id="linear-gradient-15" x1="320.43" y1="197.05" x2="328.86" y2="181.67" xlink:href="#linear-gradient-13"/><linearGradient id="linear-gradient-16" x1="367.53" y1="140.27" x2="194.5" y2="108.24" gradientUnits="userSpaceOnUse"><stop offset="0" stop-color="#70192d"/><stop offset="1" stop-color="#d42f54"/></linearGradient><linearGradient id="linear-gradient-17" x1="248.32" y1="111.48" x2="191.06" y2="100.88" xlink:href="#linear-gradient-16"/><linearGradient id="linear-gradient-18" x1="294.92" y1="128.29" x2="197.84" y2="110.32" xlink:href="#linear-gradient-16"/><linearGradient id="linear-gradient-19" x1="274.13" y1="116.35" x2="357.39" y2="116.35" xlink:href="#linear-gradient-16"/><linearGradient id="linear-gradient-20" x1="263.32" y1="94.97" x2="314.04" y2="94.97" xlink:href="#linear-gradient-16"/><linearGradient id="linear-gradient-21" x1="216.57" y1="133.37" x2="284.13" y2="124.21" gradientUnits="userSpaceOnUse"><stop offset="0" stop-color="#d6642f"/><stop offset="1" stop-color="#d42f54"/></linearGradient><linearGradient id="linear-gradient-22" x1="-89.62" y1="-362.73" x2="-82.94" y2="-374.92" gradientTransform="translate(-36.52 341.03) rotate(81.17)" xlink:href="#linear-gradient-13"/><linearGradient id="linear-gradient-23" x1="-76.88" y1="-342.13" x2="-70.2" y2="-354.32" gradientTransform="translate(-53.3 266.65) rotate(92.72)" xlink:href="#linear-gradient-13"/><linearGradient id="linear-gradient-24" x1="-65.58" y1="-317.99" x2="-57.22" y2="-333.23" gradientTransform="translate(-51.85 196.34) rotate(104.28)" xlink:href="#linear-gradient-13"/><linearGradient id="linear-gradient-25" x1="-49.43" y1="-291.09" x2="-39.91" y2="-308.45" gradientTransform="translate(-35.19 129.5) rotate(116.09)" xlink:href="#linear-gradient-13"/><linearGradient id="linear-gradient-26" x1="-32.59" y1="-260.03" x2="-20.95" y2="-281.26" gradientTransform="matrix(-0.57, 0.82, -0.82, -0.57, -13.56, 88.64)" xlink:href="#linear-gradient-13"/><linearGradient id="linear-gradient-27" x1="-6.13" y1="-224.9" x2="5.51" y2="-246.12" gradientTransform="translate(57.73 18.22) rotate(145.09)" xlink:href="#linear-gradient-13"/><linearGradient id="linear-gradient-28" x1="27.72" y1="-186.16" x2="39.36" y2="-207.39" gradientTransform="translate(162.29 -10.86) rotate(169.8)" xlink:href="#linear-gradient-13"/><linearGradient id="linear-gradient-29" x1="61.35" y1="-148.98" x2="72.98" y2="-170.21" gradientTransform="translate(248.95 17.07) rotate(-166.65)" xlink:href="#linear-gradient-13"/><linearGradient id="linear-gradient-30" x1="89.75" y1="-117.01" x2="101.38" y2="-138.24" gradientTransform="matrix(-0.88, -0.47, 0.47, -0.88, 285.93, 54.21)" xlink:href="#linear-gradient-13"/><linearGradient id="linear-gradient-31" x1="123.63" y1="-85" x2="135.9" y2="-107.39" gradientTransform="matrix(-0.68, -0.73, 0.73, -0.68, 305.74, 115.62)" xlink:href="#linear-gradient-13"/><linearGradient id="linear-gradient-32" x1="165.76" y1="-57.18" x2="178.03" y2="-79.56" gradientTransform="translate(292.09 186.45) rotate(-111.71)" xlink:href="#linear-gradient-13"/><linearGradient id="linear-gradient-33" x1="205.21" y1="-31.33" x2="217.49" y2="-53.71" gradientTransform="matrix(0.06, -1, 1, 0.06, 224.87, 240.78)" xlink:href="#linear-gradient-13"/><linearGradient id="linear-gradient-34" x1="236.35" y1="-4.21" x2="248.62" y2="-26.59" gradientTransform="translate(153.92 246.66) rotate(-68.02)" xlink:href="#linear-gradient-13"/><linearGradient id="linear-gradient-35" x1="268.94" y1="20.68" x2="281.22" y2="-1.7" gradientTransform="matrix(0.64, -0.77, 0.77, 0.64, 85.14, 221.64)" xlink:href="#linear-gradient-13"/><linearGradient id="linear-gradient-36" x1="296.51" y1="45.9" x2="308.78" y2="23.52" gradientTransform="translate(25.6 151.56) rotate(-30.16)" xlink:href="#linear-gradient-13"/><linearGradient id="linear-gradient-37" x1="326.62" y1="66.72" x2="338.89" y2="44.34" xlink:href="#linear-gradient-13"/><linearGradient id="linear-gradient-38" x1="342.12" y1="97.38" x2="349.3" y2="72.54" xlink:href="#linear-gradient-13"/><linearGradient id="linear-gradient-39" x1="192.47" y1="144.38" x2="180.94" y2="142.24" xlink:href="#linear-gradient-16"/><linearGradient id="linear-gradient-40" x1="335.68" y1="135.56" x2="343.25" y2="132.66" gradientUnits="userSpaceOnUse"><stop offset="0" stop-color="#de385d" stop-opacity="0"/><stop offset="0.84" stop-color="#d1284f" stop-opacity="0.84"/><stop offset="1" stop-color="#cf254c"/></linearGradient><linearGradient id="linear-gradient-41" x1="333.53" y1="130.04" x2="341.1" y2="127.4" xlink:href="#linear-gradient-40"/><linearGradient id="linear-gradient-42" x1="331.77" y1="124.39" x2="340.95" y2="121.35" xlink:href="#linear-gradient-40"/><linearGradient id="linear-gradient-43" x1="329.95" y1="118.87" x2="337.68" y2="115.67" xlink:href="#linear-gradient-40"/><linearGradient id="linear-gradient-44" x1="326.43" y1="135.98" x2="334.36" y2="133.44" xlink:href="#linear-gradient-40"/><linearGradient id="linear-gradient-45" x1="324.39" y1="130.5" x2="331.07" y2="128.01" xlink:href="#linear-gradient-40"/><linearGradient id="linear-gradient-46" x1="323.07" y1="124.75" x2="329.11" y2="122.16" xlink:href="#linear-gradient-40"/><linearGradient id="linear-gradient-47" x1="317.23" y1="136.78" x2="324.96" y2="133.79" xlink:href="#linear-gradient-40"/><linearGradient id="linear-gradient-48" x1="315.88" y1="131" x2="322.56" y2="128.36" xlink:href="#linear-gradient-40"/><linearGradient id="linear-gradient-49" x1="267.21" y1="47.24" x2="274.79" y2="44.34" gradientTransform="matrix(-1, 0, 0, 1, 546, 0)" xlink:href="#linear-gradient-40"/><linearGradient id="linear-gradient-50" x1="265.07" y1="41.72" x2="272.64" y2="39.08" gradientTransform="matrix(-1, 0, 0, 1, 546, 0)" xlink:href="#linear-gradient-40"/><linearGradient id="linear-gradient-51" x1="263.31" y1="36.07" x2="272.48" y2="33.03" gradientTransform="matrix(-1, 0, 0, 1, 546, 0)" xlink:href="#linear-gradient-40"/><linearGradient id="linear-gradient-52" x1="261.49" y1="30.55" x2="269.22" y2="27.36" gradientTransform="matrix(-1, 0, 0, 1, 546, 0)" xlink:href="#linear-gradient-40"/><linearGradient id="linear-gradient-53" x1="257.97" y1="47.66" x2="265.9" y2="45.12" gradientTransform="matrix(-1, 0, 0, 1, 546, 0)" xlink:href="#linear-gradient-40"/><linearGradient id="linear-gradient-54" x1="255.93" y1="42.18" x2="262.61" y2="39.69" gradientTransform="matrix(-1, 0, 0, 1, 546, 0)" xlink:href="#linear-gradient-40"/><linearGradient id="linear-gradient-55" x1="254.61" y1="36.43" x2="260.64" y2="33.84" gradientTransform="matrix(-1, 0, 0, 1, 546, 0)" xlink:href="#linear-gradient-40"/><linearGradient id="linear-gradient-56" x1="248.77" y1="48.46" x2="256.49" y2="45.47" gradientTransform="matrix(-1, 0, 0, 1, 546, 0)" xlink:href="#linear-gradient-40"/><linearGradient id="linear-gradient-57" x1="247.42" y1="42.68" x2="254.1" y2="40.04" gradientTransform="matrix(-1, 0, 0, 1, 546, 0)" xlink:href="#linear-gradient-40"/><linearGradient id="linear-gradient-58" x1="297.19" y1="85.4" x2="304.77" y2="82.51" gradientTransform="matrix(-0.98, 0.2, 0.2, 0.98, 523.33, -59.09)" xlink:href="#linear-gradient-40"/><linearGradient id="linear-gradient-59" x1="295.04" y1="79.89" x2="302.62" y2="77.25" gradientTransform="matrix(-0.98, 0.2, 0.2, 0.98, 523.33, -59.09)" xlink:href="#linear-gradient-40"/><linearGradient id="linear-gradient-60" x1="293.28" y1="74.24" x2="302.46" y2="71.2" gradientTransform="matrix(-0.98, 0.2, 0.2, 0.98, 523.33, -59.09)" xlink:href="#linear-gradient-40"/><linearGradient id="linear-gradient-61" x1="291.47" y1="68.71" x2="299.2" y2="65.52" gradientTransform="matrix(-0.98, 0.2, 0.2, 0.98, 523.33, -59.09)" xlink:href="#linear-gradient-40"/><linearGradient id="linear-gradient-62" x1="287.95" y1="85.83" x2="295.87" y2="83.29" gradientTransform="matrix(-0.98, 0.2, 0.2, 0.98, 523.33, -59.09)" xlink:href="#linear-gradient-40"/><linearGradient id="linear-gradient-63" x1="285.91" y1="80.35" x2="292.59" y2="77.86" gradientTransform="matrix(-0.98, 0.2, 0.2, 0.98, 523.33, -59.09)" xlink:href="#linear-gradient-40"/><linearGradient id="linear-gradient-64" x1="284.59" y1="74.6" x2="290.62" y2="72.01" gradientTransform="matrix(-0.98, 0.2, 0.2, 0.98, 523.33, -59.09)" xlink:href="#linear-gradient-40"/><linearGradient id="linear-gradient-65" x1="278.74" y1="86.63" x2="286.47" y2="83.64" gradientTransform="matrix(-0.98, 0.2, 0.2, 0.98, 523.33, -59.09)" xlink:href="#linear-gradient-40"/><linearGradient id="linear-gradient-66" x1="277.4" y1="80.85" x2="284.08" y2="78.21" gradientTransform="matrix(-0.98, 0.2, 0.2, 0.98, 523.33, -59.09)" xlink:href="#linear-gradient-40"/><linearGradient id="linear-gradient-67" x1="352.59" y1="65.6" x2="360.16" y2="62.71" gradientTransform="matrix(-0.64, 0.77, 0.77, 0.64, 368.47, -254.5)" gradientUnits="userSpaceOnUse"><stop offset="0" stop-color="#de385d" stop-opacity="0"/><stop offset="0.73" stop-color="#e93f67" stop-opacity="0.73"/><stop offset="1" stop-color="#ed426a"/></linearGradient><linearGradient id="linear-gradient-68" x1="350.44" y1="60.09" x2="358.02" y2="57.44" xlink:href="#linear-gradient-67"/><linearGradient id="linear-gradient-69" x1="348.68" y1="54.44" x2="357.86" y2="51.4" xlink:href="#linear-gradient-67"/><linearGradient id="linear-gradient-70" x1="346.87" y1="48.91" x2="354.59" y2="45.72" xlink:href="#linear-gradient-67"/><linearGradient id="linear-gradient-71" x1="343.34" y1="66.03" x2="351.27" y2="63.49" xlink:href="#linear-gradient-67"/><linearGradient id="linear-gradient-72" x1="341.3" y1="60.55" x2="347.98" y2="58.06" xlink:href="#linear-gradient-67"/><linearGradient id="linear-gradient-73" x1="339.99" y1="54.8" x2="346.02" y2="52.21" xlink:href="#linear-gradient-67"/><linearGradient id="linear-gradient-74" x1="334.14" y1="66.82" x2="341.87" y2="63.83" xlink:href="#linear-gradient-67"/><linearGradient id="linear-gradient-75" x1="332.79" y1="61.05" x2="339.47" y2="58.4" xlink:href="#linear-gradient-67"/><linearGradient id="linear-gradient-76" x1="432.21" y1="120.51" x2="439.79" y2="117.61" gradientTransform="matrix(0.24, 0.97, 0.97, -0.24, -39.17, -276.35)" xlink:href="#linear-gradient-67"/><linearGradient id="linear-gradient-77" x1="430.06" y1="114.99" x2="437.64" y2="112.35" gradientTransform="matrix(0.24, 0.97, 0.97, -0.24, -39.17, -276.35)" xlink:href="#linear-gradient-67"/><linearGradient id="linear-gradient-78" x1="428.3" y1="109.34" x2="437.48" y2="106.3" gradientTransform="matrix(0.24, 0.97, 0.97, -0.24, -39.17, -276.35)" xlink:href="#linear-gradient-67"/><linearGradient id="linear-gradient-79" x1="426.49" y1="103.82" x2="434.21" y2="100.63" gradientTransform="matrix(0.24, 0.97, 0.97, -0.24, -39.17, -276.35)" xlink:href="#linear-gradient-67"/><linearGradient id="linear-gradient-80" x1="422.97" y1="120.93" x2="430.89" y2="118.39" gradientTransform="matrix(0.24, 0.97, 0.97, -0.24, -39.17, -276.35)" xlink:href="#linear-gradient-67"/><linearGradient id="linear-gradient-81" x1="420.93" y1="115.45" x2="427.61" y2="112.96" gradientTransform="matrix(0.24, 0.97, 0.97, -0.24, -39.17, -276.35)" xlink:href="#linear-gradient-67"/><linearGradient id="linear-gradient-82" x1="419.61" y1="109.7" x2="425.64" y2="107.11" gradientTransform="matrix(0.24, 0.97, 0.97, -0.24, -39.17, -276.35)" xlink:href="#linear-gradient-67"/><linearGradient id="linear-gradient-83" x1="413.76" y1="121.73" x2="421.49" y2="118.74" gradientTransform="matrix(0.24, 0.97, 0.97, -0.24, -39.17, -276.35)" xlink:href="#linear-gradient-67"/><linearGradient id="linear-gradient-84" x1="412.41" y1="115.95" x2="419.09" y2="113.31" gradientTransform="matrix(0.24, 0.97, 0.97, -0.24, -39.17, -276.35)" xlink:href="#linear-gradient-67"/><linearGradient id="linear-gradient-85" x1="546.03" y1="127.01" x2="551.93" y2="124.75" gradientTransform="matrix(0.96, 0.29, 0.29, -0.96, -356.63, 155.37)" xlink:href="#linear-gradient-67"/><linearGradient id="linear-gradient-86" x1="544.36" y1="122.71" x2="550.26" y2="120.66" gradientTransform="matrix(0.96, 0.29, 0.29, -0.96, -356.63, 155.37)" xlink:href="#linear-gradient-67"/><linearGradient id="linear-gradient-87" x1="542.99" y1="118.31" x2="550.14" y2="115.94" gradientTransform="matrix(0.96, 0.29, 0.29, -0.96, -356.63, 155.37)" xlink:href="#linear-gradient-67"/><linearGradient id="linear-gradient-88" x1="541.58" y1="114.01" x2="547.6" y2="111.52" gradientTransform="matrix(0.96, 0.29, 0.29, -0.96, -356.63, 155.37)" xlink:href="#linear-gradient-67"/><linearGradient id="linear-gradient-89" x1="538.84" y1="127.34" x2="545.01" y2="125.36" gradientTransform="matrix(0.96, 0.29, 0.29, -0.96, -356.63, 155.37)" xlink:href="#linear-gradient-67"/><linearGradient id="linear-gradient-90" x1="537.25" y1="123.07" x2="542.45" y2="121.13" gradientTransform="matrix(0.96, 0.29, 0.29, -0.96, -356.63, 155.37)" xlink:href="#linear-gradient-67"/><linearGradient id="linear-gradient-91" x1="536.22" y1="118.59" x2="540.92" y2="116.58" gradientTransform="matrix(0.96, 0.29, 0.29, -0.96, -356.63, 155.37)" xlink:href="#linear-gradient-67"/><linearGradient id="linear-gradient-92" x1="531.67" y1="127.96" x2="537.69" y2="125.63" gradientTransform="matrix(0.96, 0.29, 0.29, -0.96, -356.63, 155.37)" xlink:href="#linear-gradient-67"/><linearGradient id="linear-gradient-93" x1="530.62" y1="123.46" x2="535.82" y2="121.4" gradientTransform="matrix(0.96, 0.29, 0.29, -0.96, -356.63, 155.37)" xlink:href="#linear-gradient-67"/><linearGradient id="linear-gradient-94" x1="333.2" y1="154.92" x2="342.18" y2="116.36" gradientTransform="translate(14.73 -26.11) rotate(4.67)" xlink:href="#linear-gradient-4"/><linearGradient id="linear-gradient-95" x1="333.75" y1="161.57" x2="342.72" y2="123.01" gradientTransform="translate(-38.56 134.43) rotate(-22.85)" xlink:href="#linear-gradient-4"/><linearGradient id="linear-gradient-96" x1="325.43" y1="174.59" x2="331.97" y2="146.5" gradientTransform="translate(-10.26 301.66) rotate(-51.58)" xlink:href="#linear-gradient-4"/><linearGradient id="linear-gradient-97" x1="120.06" y1="206.31" x2="129.02" y2="167.8" gradientTransform="translate(-19.56 -2.87) rotate(-6.52)" xlink:href="#linear-gradient-4"/><linearGradient id="linear-gradient-98" x1="121.68" y1="105.57" x2="130.65" y2="67.07" gradientTransform="translate(-40.25 165.05) rotate(-34.04)" xlink:href="#linear-gradient-4"/><linearGradient id="linear-gradient-99" x1="164.87" y1="24.9" x2="171.4" y2="-3.14" gradientTransform="translate(20.01 322.97) rotate(-62.77)" xlink:href="#linear-gradient-4"/><linearGradient id="linear-gradient-100" x1="446.05" y1="180.02" x2="453.76" y2="146.92" gradientTransform="translate(14.73 -26.11) rotate(4.67)" xlink:href="#linear-gradient-4"/><linearGradient id="linear-gradient-101" x1="423.33" y1="233.99" x2="431.04" y2="200.88" gradientTransform="translate(-38.56 134.43) rotate(-22.85)" xlink:href="#linear-gradient-4"/><linearGradient id="linear-gradient-102" x1="368.81" y1="282.29" x2="374.43" y2="258.17" gradientTransform="translate(-10.26 301.66) rotate(-51.58)" xlink:href="#linear-gradient-4"/><linearGradient id="linear-gradient-103" x1="371.1" y1="204.11" x2="376.35" y2="181.52" gradientTransform="translate(14.73 -26.11) rotate(4.67)" xlink:href="#linear-gradient-4"/><linearGradient id="linear-gradient-104" x1="345.89" y1="222.15" x2="351.15" y2="199.57" gradientTransform="translate(-38.56 134.43) rotate(-22.85)" xlink:href="#linear-gradient-4"/><linearGradient id="linear-gradient-105" x1="307.67" y1="234.78" x2="311.5" y2="218.33" gradientTransform="translate(-10.26 301.66) rotate(-51.58)" xlink:href="#linear-gradient-4"/><linearGradient id="linear-gradient-106" x1="421.83" y1="232.88" x2="428.74" y2="203.22" gradientTransform="translate(14.73 -26.11) rotate(4.67)" xlink:href="#linear-gradient-4"/><linearGradient id="linear-gradient-107" x1="377.48" y1="270.14" x2="384.38" y2="240.49" gradientTransform="translate(-38.56 134.43) rotate(-22.85)" xlink:href="#linear-gradient-4"/><linearGradient id="linear-gradient-108" x1="311.58" y1="291.99" x2="316.61" y2="270.39" gradientTransform="translate(-10.26 301.66) rotate(-51.58)" xlink:href="#linear-gradient-4"/><linearGradient id="linear-gradient-109" x1="63.33" y1="226.41" x2="69.85" y2="198.44" gradientTransform="translate(14.73 -26.11) rotate(4.67)" xlink:href="#linear-gradient-4"/><linearGradient id="linear-gradient-110" x1="62.56" y1="98.97" x2="69.07" y2="70.99" gradientTransform="translate(-38.56 134.43) rotate(-22.85)" xlink:href="#linear-gradient-4"/><linearGradient id="linear-gradient-111" x1="117.87" y1="-9.47" x2="122.61" y2="-29.84" gradientTransform="translate(-10.26 301.66) rotate(-51.58)" xlink:href="#linear-gradient-4"/><linearGradient id="linear-gradient-112" x1="127.13" y1="256.04" x2="132.39" y2="233.46" gradientTransform="translate(14.73 -26.11) rotate(4.67)" xlink:href="#linear-gradient-4"/><linearGradient id="linear-gradient-113" x1="105.53" y1="155.47" x2="110.79" y2="132.89" gradientTransform="translate(-38.56 134.43) rotate(-22.85)" xlink:href="#linear-gradient-4"/><linearGradient id="linear-gradient-114" x1="128.94" y1="60.78" x2="132.77" y2="44.34" gradientTransform="translate(-10.26 301.66) rotate(-51.58)" xlink:href="#linear-gradient-4"/><linearGradient id="linear-gradient-115" x1="62.43" y1="200.83" x2="62.43" y2="207.37" xlink:href="#linear-gradient-3"/><linearGradient id="linear-gradient-116" x1="51.76" y1="201.72" x2="51.76" y2="210.45" xlink:href="#linear-gradient"/><linearGradient id="linear-gradient-117" x1="127.07" y1="236.41" x2="127.07" y2="242.96" xlink:href="#linear-gradient-3"/><linearGradient id="linear-gradient-118" x1="116.41" y1="237.31" x2="116.41" y2="246.04" xlink:href="#linear-gradient"/><linearGradient id="linear-gradient-119" x1="370.77" y1="204.44" x2="370.77" y2="210.98" xlink:href="#linear-gradient-3"/><linearGradient id="linear-gradient-120" x1="360.1" y1="205.33" x2="360.1" y2="214.06" xlink:href="#linear-gradient"/><linearGradient id="linear-gradient-121" x1="443.09" y1="187.52" x2="443.09" y2="196.78" xlink:href="#linear-gradient-3"/><linearGradient id="linear-gradient-122" x1="428" y1="188.79" x2="428" y2="201.14" xlink:href="#linear-gradient"/></defs><g class="cls-1"><g id="Calque_2" data-name="Calque 2"><g id="OBJECTS"><path class="cls-2" d="M80.33,120V80.11h26.45V120h24.53v25.25H106.78v41.36H80.33V145.29H0V124.12L57.48,18.31H84.89L30.3,120Z"/><path class="cls-3" d="M434.71,120V80.11h26.45V120H485.7v25.25H461.16v41.36H434.71V145.29H354.39V124.12L411.86,18.31h27.42L384.69,120Z"/><path class="cls-4" d="M252.3,167.21c0,15.28-13.29,27.67-33.84,27.67s-40.57-12.39-40.57-27.67,20-27.67,40.57-27.67S252.3,151.93,252.3,167.21Z"/><path class="cls-5" d="M211.28,151.86a3.48,3.48,0,0,1-1.24,2.89,4.27,4.27,0,0,1-3,1c-1.26,0-2.45,0-3.29-.73a4.48,4.48,0,0,1-1.67-3.16,4.78,4.78,0,0,1,1.48-3.38c.84-.74,2.22-.69,3.48-.69s2.61,0,3.46.73S211.28,150.64,211.28,151.86Z"/><path class="cls-5" d="M238.37,155.67A4.56,4.56,0,0,1,237,159a5.42,5.42,0,0,1-3.45,1.14,5.17,5.17,0,0,1-3.3-1.32,3.92,3.92,0,0,1-1-3.17,3.52,3.52,0,0,1,1.24-2.89,4.26,4.26,0,0,1,3.05-1c1.26,0,2.45,0,3.29.72A4.3,4.3,0,0,1,238.37,155.67Z"/><path class="cls-5" d="M218,145.29a2.7,2.7,0,0,1-2.44,2.45,2.48,2.48,0,0,1,0-4.9A2.7,2.7,0,0,1,218,145.29Z"/><path class="cls-5" d="M220.87,153a2.29,2.29,0,0,1-2.35,2.08c-1.22,0-2.66-.95-2.66-2.08s1.44-2.15,2.66-2.15A2.35,2.35,0,0,1,220.87,153Z"/><path class="cls-5" d="M196.35,162.46a4.09,4.09,0,0,1-1.63,2.88,4.55,4.55,0,0,1-3,1.17,5.21,5.21,0,0,1-3.34-.8,4.48,4.48,0,0,1-1.21-3.25,4.06,4.06,0,0,1,1.46-3A5.11,5.11,0,0,1,191.7,158a5.19,5.19,0,0,1,3.14,1.49A4.22,4.22,0,0,1,196.35,162.46Z"/><path class="cls-5" d="M226.46,165.89a5.55,5.55,0,0,1-1.78,4.42,7.3,7.3,0,0,1-4.62,2.17,7.7,7.7,0,0,1-4.85-1.91,6.18,6.18,0,0,1-1.82-4.68,6,6,0,0,1,1.89-4.61,7.22,7.22,0,0,1,4.78-1.46,6.61,6.61,0,0,1,4.48,1.82A5.35,5.35,0,0,1,226.46,165.89Z"/><path class="cls-5" d="M230.15,147.33a4.15,4.15,0,0,1-4,3.84,3.69,3.69,0,0,1-3.47-3.84,3.74,3.74,0,0,1,3.47-3.9A4.2,4.2,0,0,1,230.15,147.33Z"/><path class="cls-6" d="M218.88,186.25c-.36.81-2.77-10-3.13-18.86s1.4-10,3-7.49S223.83,175.13,218.88,186.25Z"/><path class="cls-7" d="M217.11,184.31c0,.88-7.06-7.55-11.5-15.28s-3.38-9.53-.83-8S216.36,172.16,217.11,184.31Z"/><path class="cls-8" d="M217,186c.34.54-7.15-2.36-12.69-5.74s-5.5-4.9-3.34-4.83S212.26,178.47,217,186Z"/><path class="cls-9" d="M329,165.89c0,15.28-13.3,27.67-33.85,27.67s-40.56-12.39-40.56-27.67,20-27.68,40.56-27.68S329,150.6,329,165.89Z"/><path class="cls-10" d="M298.14,151.93a3.51,3.51,0,0,1-1.24,2.89,4.27,4.27,0,0,1-3,1c-1.26,0-2.45,0-3.29-.73a4.48,4.48,0,0,1-1.67-3.16,4.78,4.78,0,0,1,1.48-3.38c.84-.74,2.22-.69,3.48-.69s2.61,0,3.46.72S298.14,150.71,298.14,151.93Z"/><path class="cls-10" d="M325.23,155.74a4.52,4.52,0,0,1-1.33,3.34,5.37,5.37,0,0,1-3.45,1.14,5.16,5.16,0,0,1-3.3-1.31,3.92,3.92,0,0,1-1-3.17,3.52,3.52,0,0,1,1.24-2.89,4.26,4.26,0,0,1,3.05-1c1.26,0,2.45,0,3.29.72A4.28,4.28,0,0,1,325.23,155.74Z"/><path class="cls-10" d="M304.84,145.36a2.71,2.71,0,0,1-2.44,2.45,2.48,2.48,0,0,1,0-4.9A2.7,2.7,0,0,1,304.84,145.36Z"/><path class="cls-10" d="M307.73,153.09a2.28,2.28,0,0,1-2.34,2.08c-1.23,0-2.67-.95-2.67-2.08s1.44-2.15,2.67-2.15A2.35,2.35,0,0,1,307.73,153.09Z"/><path class="cls-10" d="M283.21,162.53a4.09,4.09,0,0,1-1.63,2.88,4.55,4.55,0,0,1-3,1.17,5.21,5.21,0,0,1-3.34-.8,4.48,4.48,0,0,1-1.21-3.25,4.06,4.06,0,0,1,1.46-3,5.11,5.11,0,0,1,3.09-1.54,5.19,5.19,0,0,1,3.14,1.49A4.22,4.22,0,0,1,283.21,162.53Z"/><path class="cls-10" d="M313.32,166a5.55,5.55,0,0,1-1.78,4.42,7.35,7.35,0,0,1-4.61,2.17,7.7,7.7,0,0,1-4.86-1.91,6.18,6.18,0,0,1-1.82-4.68,6,6,0,0,1,1.89-4.61,7.17,7.17,0,0,1,4.79-1.46,6.6,6.6,0,0,1,4.47,1.82A5.35,5.35,0,0,1,313.32,166Z"/><path class="cls-10" d="M317,147.4a4.14,4.14,0,0,1-4,3.83,3.68,3.68,0,0,1-3.47-3.83,3.74,3.74,0,0,1,3.47-3.9A4.2,4.2,0,0,1,317,147.4Z"/><path class="cls-11" d="M300,186.65c0,17.44-15.17,31.58-38.61,31.58s-46.28-14.14-46.28-31.58,22.84-31.57,46.28-31.57S300,169.22,300,186.65Z"/><path class="cls-12" d="M261.28,167.38a3.51,3.51,0,0,1-1.24,2.89,4.27,4.27,0,0,1-3.05,1c-1.26,0-2.45,0-3.29-.73a4.48,4.48,0,0,1-1.67-3.16,4.78,4.78,0,0,1,1.48-3.38c.84-.74,2.22-.69,3.48-.69s2.61,0,3.45.73S261.28,166.16,261.28,167.38Z"/><path class="cls-12" d="M288.37,171.19a4.52,4.52,0,0,1-1.33,3.34,5.37,5.37,0,0,1-3.45,1.14,5.16,5.16,0,0,1-3.3-1.31,3.92,3.92,0,0,1-1-3.17,3.52,3.52,0,0,1,1.24-2.89,4.26,4.26,0,0,1,3-1c1.26,0,2.45,0,3.29.72A4.3,4.3,0,0,1,288.37,171.19Z"/><path class="cls-12" d="M268,160.81a2.7,2.7,0,0,1-2.44,2.45,2.48,2.48,0,0,1,0-4.9A2.7,2.7,0,0,1,268,160.81Z"/><path class="cls-12" d="M270.87,168.54a2.29,2.29,0,0,1-2.35,2.08c-1.22,0-2.66-1-2.66-2.08s1.44-2.14,2.66-2.14A2.34,2.34,0,0,1,270.87,168.54Z"/><path class="cls-12" d="M246.35,178a4.09,4.09,0,0,1-1.63,2.88,4.55,4.55,0,0,1-3,1.17,5.21,5.21,0,0,1-3.34-.8,4.48,4.48,0,0,1-1.21-3.25,4.06,4.06,0,0,1,1.46-3,5.11,5.11,0,0,1,3.09-1.54,5.19,5.19,0,0,1,3.14,1.49A4.22,4.22,0,0,1,246.35,178Z"/><path class="cls-12" d="M276.46,181.41a5.59,5.59,0,0,1-1.78,4.42,7.3,7.3,0,0,1-4.62,2.17,7.68,7.68,0,0,1-4.85-1.91,6.18,6.18,0,0,1-1.82-4.68,6.07,6.07,0,0,1,1.88-4.61,7.21,7.21,0,0,1,4.79-1.46,6.61,6.61,0,0,1,4.48,1.82A5.35,5.35,0,0,1,276.46,181.41Z"/><path class="cls-12" d="M280.15,162.85a4.15,4.15,0,0,1-4,3.84,3.69,3.69,0,0,1-3.47-3.84,3.74,3.74,0,0,1,3.47-3.9A4.2,4.2,0,0,1,280.15,162.85Z"/><path class="cls-13" d="M305.26,198.51c-.45,1-3.45-12.38-3.9-23.47s1.74-12.46,3.69-9.31S311.42,184.68,305.26,198.51Z"/><path class="cls-14" d="M303.05,196.1c.07,1.1-8.78-9.39-14.3-19s-4.22-11.85-1-10S302.12,181,303.05,196.1Z"/><path class="cls-15" d="M302.9,198.16c.43.68-8.89-2.92-15.79-7.13s-6.84-6.1-4.15-6S297,188.84,302.9,198.16Z"/><path class="cls-16" d="M203.18,139.35H305c7.73,0-10.07-26.93-30.09-37.48S209.58,90.45,203.18,139.35Z"/><path class="cls-17" d="M241.81,112.93a36.1,36.1,0,0,0-.76-16.26c-17.36,2.69-34.16,14.31-37.87,42.68h22.06C232.76,135.45,239.08,127.73,241.81,112.93Z"/><path class="cls-18" d="M328.06,168.19s4.13-12.77,10.61-17.92S354.35,143,354.51,144s-2.32,5.85-4.69,7.62A55.08,55.08,0,0,1,369.36,146c11.53-1.16,19.22.33,19.54,1.44s-14.63,10.59-23.63,13.85c0,0,15.84-.22,16.89,2.65s-19.2,8.44-33.11,12.2-20.59,7.89-21.36,5.51S326.25,172.88,328.06,168.19Z"/><path class="cls-19" d="M312.57,196.45c-.46-.5,2.76-8.54,5.52-16.38s9.07-22.11,12.94-22,2.46,8.46,0,12.22c0,0,11.16-12.07,17.71-10.67s-3.09,10.59-7.88,14.12c0,0,16.27-3.09,16.53-.22s-5.56,5.6-16.31,9.57S314.81,198.89,312.57,196.45Z"/><path class="cls-20" d="M312.55,196.59c-.27-.3,1.62-5,3.25-9.65s5.34-13,7.62-12.94,1.45,5,0,7.2c0,0,6.57-7.11,10.43-6.28s-1.82,6.24-4.64,8.32c0,0,9.58-1.82,9.73-.13s-3.27,3.29-9.6,5.63S313.87,198,312.55,196.59Z"/><path class="cls-21" d="M352.09,84c-4.4-12.48-36.54-68.26-99.9-68.71s-99.89,37.06-109,81c-10.58,50.92,12.08,110.68,73.9,121.49s96-18.32,98.67-21,.82-5.44-2.86-2.94-12.36,14.42-45.63,12.95-65.08-8.26-77.12-46c-13-40.84,47.26-74.56,87.65-45.26,11.26,8.17,58.5,21.64,68,5.08S355.29,93.08,352.09,84Z"/><path class="cls-22" d="M190,136.55c2.42-23,25.79-31.7,52.55-32.09.39-19.26-16.47-38.34-40.63-35.71-26.2,2.86-28,23.65-27.52,32.57C174.41,121.28,191.47,127.37,190,136.55Z"/><path class="cls-23" d="M170.14,101.32c-.44-8.92,4.71-29.71,30.9-32.57s41.21,19.82,37.39,40.57-14.72,27.6-26.05,29.48h44c2.65,0,8.87-3.79,15,0s7.56,8.64,7.56,11.14-3.24,4.56-12.95,4.56H203.1c-7.8,0-12.93-1.52-14.56-8.78S170.14,121.28,170.14,101.32Z"/><path class="cls-24" d="M292.48,112s25,.77,40.29-9,16.78-23.59,16.78-23.59,10,14,7.39,39.26-16.89,34.66-38.41,34.77-29.47-6.62-33.78-10.37c-8.61-7.51-12.91-20.31-9.38-25.28S285.29,112.14,292.48,112Z"/><path class="cls-25" d="M263.32,110.6s12.09-8.93,25.59-17.72C302.65,84,313.12,78.47,314,79.45s-21.87,27.32-23.74,29.23S263.32,110.6,263.32,110.6Z"/><path class="cls-26" d="M248,125.73s-2.84-2.87,1.43-6.55c5.6-4.82,19.06-11.63,30.47-16.11s45.84-16.56,46.65-15.16-15.08,16.92-27.08,21.19c0,0,9.49.51,9.2,2.43s-6,8.68-11.11,12.21c0,0,6.18,0,6.48.89s-2.43,8.83-9.94,13.61c0,0,4.64,6.18,3.46,6.84s-8.39-.51-8.39-.51,6.55,7.73,6.18,8.54-11.85,2.2-22.37-1.55c0,0,2,3.68,1.18,4.19s-5.52-1.1-10.3-3.9c-1.18-.37-7.25-.55-13-.55H236.88c-1.21,0-7.65,3.31-8.35,3.13s-2.28-4.86-1.69-9.46,1.84-9.42,8.31-13.24A78.22,78.22,0,0,1,248,125.73Z"/><path class="cls-27" d="M236.18,138.06a2.05,2.05,0,0,0-2.62-.51c-.83.47-.88,2.65-.66,2.76s.91-1.34,1.58-1.48S236.7,138.56,236.18,138.06Z"/><path class="cls-27" d="M253.66,128.49a8.87,8.87,0,0,1,4.89-1.2c2.91.11,5.78.91,8.26-.72s2-3.18,4.53-3.64a13.25,13.25,0,0,0-1.46,2.23c-.64,1.24-1.36,3.42-5.6,4s-5.94-.9-7.41-.85S252.88,128.9,253.66,128.49Z"/><path class="cls-28" d="M302,205.89a114.51,114.51,0,0,0,11.19-7.81c2.82-2.43,2.8-4.09,3.32-4.37s14.85-1.51,14.5.41S319.83,205.88,302,205.89Z"/><path class="cls-29" d="M284.22,213.82a114.17,114.17,0,0,0,12.53-5.41c3.25-1.82,6.16-3.34,6.73-3.51s12.25,1.38,11.52,3.2S301.67,217.38,284.22,213.82Z"/><path class="cls-30" d="M260.89,218.72s10.9-1.64,16.72-3.49c4.44-1.42,8.38-2.55,9.12-2.62s14.67,4.77,13.32,6.81S281.39,227.45,260.89,218.72Z"/><path class="cls-31" d="M233.29,218.77s12.54.71,19.45,0c5.28-.54,9.94-.88,10.79-.79s15.23,8.73,13.26,10.69S254.11,233.28,233.29,218.77Z"/><path class="cls-32" d="M200.11,213.78s15,3.14,23.52,3.53c6.48.3,12.18.74,13.18,1s16.84,13.33,14.09,15.34S222.65,235.12,200.11,213.78Z"/><path class="cls-33" d="M172.42,196.45s13,8.2,20.8,11.53c6,2.55,11.16,5,12,5.55s11.12,18.37,7.85,19.3S186.08,224.32,172.42,196.45Z"/><path class="cls-34" d="M151.79,166.89s8.36,12.87,14.07,19.17c4.36,4.81,8.07,9.16,8.58,10.06s2.43,21.33-.93,20.8S152.55,197.92,151.79,166.89Z"/><path class="cls-35" d="M144.17,131.87s2.53,15.14,5.25,23.2c2.07,6.15,3.73,11.62,3.84,12.65s-6.3,20.53-9.17,18.7S132.47,160.62,144.17,131.87Z"/><path class="cls-36" d="M145.38,97s-1.41,15.29-.83,23.77c.44,6.48.65,12.19.5,13.22s-11.33,18.24-13.64,15.74S126.75,121.78,145.38,97Z"/><path class="cls-37" d="M159.35,62.55s-6.66,14.75-9,23.4c-1.79,6.61-3.54,12.37-4.05,13.34s-17.56,14.29-19,11S132.24,80.88,159.35,62.55Z"/><path class="cls-38" d="M185,34.69S173.44,46,168.14,53.26c-4.06,5.52-7.77,10.27-8.59,11s-21.54,7-21.7,3.41S153.08,42,185,34.69Z"/><path class="cls-39" d="M220,20.08s-15.26,5.41-23.12,9.71c-6,3.29-11.38,6-12.43,6.32S162,33.34,163.38,30,188,13.22,220,20.08Z"/><path class="cls-40" d="M256.84,17.31s-16.19.24-25,1.8c-6.75,1.19-12.71,2.05-13.8,2S197.63,11.3,200,8.6,228.72.57,256.84,17.31Z"/><path class="cls-41" d="M293.87,26.29s-15.46-4.77-24.34-6c-6.78-.95-12.72-2-13.74-2.35S239.42,2.28,242.5.44,272.3,1.68,293.87,26.29Z"/><path class="cls-42" d="M324.81,46.72S311.89,37,304,32.79c-6-3.2-11.29-6.17-12.13-6.88S281.75,5.64,285.27,5,312.89,16.25,324.81,46.72Z"/><path class="cls-43" d="M341.47,80.53s-6.27-14.92-11-22.52c-3.63-5.81-6.66-11-7-12s1.47-22.59,4.86-21.41S346.48,48.18,341.47,80.53Z"/><path class="cls-44" d="M335.08,101.32S350.22,94.09,352.93,82c3.09-13.84-1.1-24.51-3.38-23.92s-7.81,17.29-8.1,20.16S343.5,91.26,335.08,101.32Z"/><path class="cls-45" d="M179.66,129.88l9.27,26-.39-10.13S184.61,136.31,179.66,129.88Z"/><path class="cls-46" d="M340.82,133.94c.44,1.44-1.28,3.24-3.83,4s-5,.24-5.42-1.19,1.28-3.23,3.83-4S340.38,132.51,340.82,133.94Z"/><path class="cls-47" d="M339.09,128.3c.44,1.44-1.27,3.23-3.83,4s-5,.25-5.42-1.18,1.28-3.23,3.83-4S338.65,126.87,339.09,128.3Z"/><path class="cls-48" d="M337.37,122.66c.44,1.43-1.28,3.23-3.83,4s-5,.25-5.42-1.19,1.28-3.23,3.83-4S336.93,121.22,337.37,122.66Z"/><path class="cls-49" d="M335.64,117c.44,1.44-1.27,3.23-3.83,4s-5,.25-5.41-1.18,1.27-3.23,3.83-4S335.21,115.58,335.64,117Z"/><path class="cls-50" d="M332,134.28c.43,1.44-1.28,3.23-3.83,4s-5,.25-5.42-1.18,1.28-3.23,3.83-4S331.52,132.85,332,134.28Z"/><path class="cls-51" d="M330.23,128.64c.44,1.43-1.27,3.23-3.83,4s-5,.25-5.42-1.19,1.28-3.23,3.83-4S329.79,127.2,330.23,128.64Z"/><path class="cls-52" d="M328.51,123c.44,1.44-1.28,3.23-3.83,4s-5,.25-5.42-1.18,1.28-3.23,3.83-4S328.07,121.56,328.51,123Z"/><path class="cls-53" d="M323.56,134.71c.44,1.43-1.28,3.23-3.83,4s-5,.25-5.42-1.19,1.28-3.23,3.83-4S323.12,133.27,323.56,134.71Z"/><path class="cls-54" d="M321.84,129.06c.43,1.44-1.28,3.23-3.84,4s-5,.25-5.41-1.18,1.27-3.23,3.83-4S321.4,127.63,321.84,129.06Z"/><path class="cls-55" d="M273.65,45.62c-.44,1.44,1.27,3.24,3.82,4s5,.24,5.42-1.19-1.27-3.23-3.83-4S274.08,44.19,273.65,45.62Z"/><path class="cls-56" d="M275.37,40c-.44,1.44,1.28,3.23,3.83,4s5,.25,5.42-1.18-1.28-3.23-3.83-4S275.81,38.55,275.37,40Z"/><path class="cls-57" d="M277.09,34.34c-.43,1.43,1.28,3.23,3.83,4s5,.25,5.42-1.19-1.28-3.23-3.83-4S277.53,32.9,277.09,34.34Z"/><path class="cls-58" d="M278.82,28.69c-.44,1.44,1.28,3.23,3.83,4s5,.25,5.42-1.18-1.28-3.23-3.83-4S279.26,27.26,278.82,28.69Z"/><path class="cls-59" d="M282.5,46c-.43,1.44,1.28,3.23,3.84,4s5,.25,5.41-1.18-1.27-3.23-3.83-4S282.94,44.53,282.5,46Z"/><path class="cls-60" d="M284.23,40.32c-.44,1.43,1.28,3.23,3.83,4s5,.25,5.42-1.19-1.28-3.23-3.83-4S284.67,38.88,284.23,40.32Z"/><path class="cls-61" d="M286,34.67c-.43,1.44,1.28,3.23,3.83,4s5,.25,5.42-1.18-1.27-3.23-3.83-4S286.39,33.24,286,34.67Z"/><path class="cls-62" d="M290.9,46.39c-.44,1.43,1.28,3.23,3.83,4s5,.25,5.42-1.19-1.28-3.23-3.83-4S291.34,45,290.9,46.39Z"/><path class="cls-63" d="M292.63,40.74c-.44,1.44,1.27,3.23,3.83,4s5,.25,5.41-1.18-1.27-3.23-3.83-4S293.07,39.31,292.63,40.74Z"/><path class="cls-64" d="M244.13,84c-.14,1.5,1.91,2.91,4.56,3.16s4.93-.76,5.07-2.26-1.9-2.9-4.56-3.15S244.27,82.5,244.13,84Z"/><path class="cls-65" d="M244.68,78.12c-.14,1.49,1.91,2.9,4.56,3.15s4.93-.76,5.07-2.25-1.9-2.91-4.56-3.16S244.82,76.62,244.68,78.12Z"/><path class="cls-66" d="M245.23,72.24c-.14,1.49,1.91,2.91,4.56,3.16s4.93-.77,5.07-2.26S253,70.23,250.3,70,245.37,70.75,245.23,72.24Z"/><path class="cls-67" d="M245.78,66.36c-.14,1.5,1.91,2.91,4.56,3.16s4.93-.76,5.07-2.25-1.9-2.91-4.56-3.16S245.92,64.87,245.78,66.36Z"/><path class="cls-68" d="M252.88,82.53c-.14,1.5,1.9,2.91,4.56,3.16s4.93-.76,5.07-2.25-1.9-2.91-4.56-3.16S253,81,252.88,82.53Z"/><path class="cls-69" d="M253.43,76.66c-.14,1.49,1.9,2.91,4.56,3.15s4.93-.76,5.07-2.25-1.91-2.91-4.56-3.16S253.57,75.16,253.43,76.66Z"/><path class="cls-70" d="M254,70.78c-.14,1.5,1.9,2.91,4.56,3.16s4.93-.76,5.07-2.26-1.91-2.9-4.56-3.15S254.12,69.29,254,70.78Z"/><path class="cls-71" d="M261.19,81.25c-.14,1.5,1.9,2.91,4.56,3.16s4.93-.76,5.07-2.26-1.9-2.9-4.56-3.15S261.33,79.76,261.19,81.25Z"/><path class="cls-72" d="M261.74,75.38c-.14,1.49,1.9,2.91,4.56,3.15s4.93-.76,5.07-2.25-1.9-2.91-4.56-3.15S261.88,73.88,261.74,75.38Z"/><path class="cls-73" d="M190.33,62.25c.83,1.25,3.31,1.07,5.54-.4s3.35-3.69,2.53-4.94-3.31-1.07-5.54.41S189.51,61,190.33,62.25Z"/><path class="cls-74" d="M187.08,57.33c.82,1.25,3.3,1.07,5.53-.4S196,53.24,195.14,52s-3.31-1.07-5.53.41S186.25,56.08,187.08,57.33Z"/><path class="cls-75" d="M183.82,52.41c.83,1.25,3.3,1.07,5.53-.4s3.36-3.69,2.53-4.94-3.31-1.07-5.53.41S183,51.16,183.82,52.41Z"/><path class="cls-76" d="M180.56,47.49c.83,1.25,3.3,1.07,5.53-.4s3.36-3.69,2.53-4.94-3.31-1.07-5.53.41S179.73,46.24,180.56,47.49Z"/><path class="cls-77" d="M196.23,55.63c.83,1.25,3.3,1.07,5.53-.41s3.36-3.68,2.53-4.93-3.3-1.07-5.53.4S195.4,54.38,196.23,55.63Z"/><path class="cls-78" d="M193,50.71c.83,1.25,3.31,1.07,5.53-.41s3.36-3.68,2.53-4.93-3.3-1.07-5.53.4S192.14,49.46,193,50.71Z"/><path class="cls-79" d="M189.71,45.79c.83,1.25,3.31,1.07,5.53-.41s3.36-3.68,2.53-4.93-3.3-1.07-5.53.41S188.88,44.54,189.71,45.79Z"/><path class="cls-80" d="M201.9,49.42c.83,1.25,3.3,1.07,5.53-.41s3.36-3.68,2.53-4.93-3.31-1.07-5.53.4S201.07,48.17,201.9,49.42Z"/><path class="cls-81" d="M198.64,44.5c.82,1.25,3.3,1.07,5.53-.41s3.36-3.68,2.53-4.93-3.31-1.07-5.53.4S197.81,43.25,198.64,44.5Z"/><path class="cls-82" d="M179.67,120.55c1.49.08,2.83-2,3-4.67s-.93-4.9-2.43-5-2.84,2-3,4.67S178.17,120.46,179.67,120.55Z"/><path class="cls-83" d="M173.77,120.2c1.5.09,2.84-2,3-4.67s-.94-4.89-2.43-5-2.84,2-3,4.67S172.28,120.12,173.77,120.2Z"/><path class="cls-84" d="M167.88,119.86c1.5.09,2.84-2,3-4.67s-.94-4.9-2.44-5-2.83,2-3,4.67S166.39,119.77,167.88,119.86Z"/><path class="cls-85" d="M162,119.52c1.5.09,2.84-2,3-4.67s-.93-4.9-2.43-5-2.83,2-3,4.67S160.49,119.43,162,119.52Z"/><path class="cls-86" d="M177.9,111.86c1.5.08,2.84-2,3-4.67s-.93-4.9-2.43-5-2.83,2-3,4.67S176.4,111.77,177.9,111.86Z"/><path class="cls-87" d="M172,111.51c1.5.09,2.84-2,3-4.67s-.93-4.89-2.43-5-2.84,2-3,4.67S170.51,111.43,172,111.51Z"/><path class="cls-88" d="M166.12,111.17c1.5.09,2.84-2,3-4.67s-.93-4.89-2.43-5-2.84,2-3,4.67S164.62,111.08,166.12,111.17Z"/><path class="cls-89" d="M176.33,103.6c1.5.08,2.84-2,3-4.67s-.93-4.9-2.43-5-2.84,2-3,4.67S174.83,103.51,176.33,103.6Z"/><path class="cls-90" d="M170.44,103.25c1.5.09,2.84-2,3-4.67s-.93-4.89-2.43-5-2.84,2-3,4.67S168.94,103.17,170.44,103.25Z"/><path class="cls-91" d="M206.34,193c.64-1-.23-2.7-2-3.85s-3.66-1.3-4.31-.33.23,2.7,2,3.85S205.69,194,206.34,193Z"/><path class="cls-92" d="M203.78,196.83c.65-1-.22-2.69-1.95-3.85s-3.66-1.3-4.31-.33.23,2.7,2,3.85S203.14,197.8,203.78,196.83Z"/><path class="cls-93" d="M201.24,200.66c.64-1-.23-2.7-2-3.85s-3.66-1.3-4.31-.33.23,2.69,2,3.85S200.59,201.63,201.24,200.66Z"/><path class="cls-94" d="M198.69,204.48c.65-1-.23-2.7-2-3.85s-3.66-1.3-4.31-.33.23,2.7,2,3.85S198,205.45,198.69,204.48Z"/><path class="cls-95" d="M199.8,190.77c.65-1-.23-2.69-2-3.85s-3.66-1.3-4.3-.32.23,2.69,2,3.85S199.15,191.75,199.8,190.77Z"/><path class="cls-96" d="M197.25,194.6c.65-1-.23-2.7-2-3.85s-3.65-1.3-4.3-.33.23,2.7,2,3.85S196.6,195.57,197.25,194.6Z"/><path class="cls-97" d="M194.7,198.42c.65-1-.23-2.69-2-3.85s-3.65-1.3-4.3-.33.23,2.7,2,3.85S194.05,199.39,194.7,198.42Z"/><path class="cls-98" d="M193.63,188.58c.65-1-.23-2.7-2-3.85s-3.65-1.3-4.3-.33.23,2.7,2,3.85S193,189.55,193.63,188.58Z"/><path class="cls-99" d="M191.08,192.4c.65-1-.23-2.69-2-3.85s-3.65-1.3-4.3-.33.23,2.7,2,3.85S190.44,193.37,191.08,192.4Z"/><path class="cls-100" d="M331.59,157.62c-1,.9,2.05-15.24,6.77-27.64s7.78-12.88,8.45-8.5S344.88,145.32,331.59,157.62Z"/><path class="cls-101" d="M330.43,156.86c-.44,1.23-5.23-14.47-6.77-27.64s.94-15,3.56-11.45S336.52,139.8,330.43,156.86Z"/><path class="cls-102" d="M329,157.66c.15.94-8.41-7.41-14-15.29s-4.65-9.92-1.73-8.56S326.94,144.63,329,157.66Z"/><path class="cls-103" d="M121,191.13c-.77,1.07-.95-15.32,1.27-28.38s5.13-14.13,6.63-10S131.62,176.5,121,191.13Z"/><path class="cls-104" d="M119,187.76c-.2,1.3-7.93-13.15-12-25.76s-2-14.9,1.27-11.9S121.67,169.88,119,187.76Z"/><path class="cls-105" d="M118.33,190.14c.33.9-9.67-5.63-16.68-12.26s-6.49-8.82-3.36-8S113.76,177.78,118.33,190.14Z"/><path class="cls-106" d="M442.4,191.52c-.83.77,1.76-13.09,5.81-23.73s6.68-11.06,7.26-7.31S453.81,181,442.4,191.52Z"/><path class="cls-107" d="M441.29,188.35c-.38,1.06-4.49-12.42-5.81-23.73s.81-12.9,3.06-9.83S446.52,173.7,441.29,188.35Z"/><path class="cls-108" d="M440.32,190.24c.13.81-7.21-6.36-12-13.12s-4-8.53-1.49-7.35S438.54,179.05,440.32,190.24Z"/><path class="cls-109" d="M366.45,208.82c-.56.52,1.2-8.93,4-16.19s4.56-7.54,4.95-5S374.23,201.61,366.45,208.82Z"/><path class="cls-110" d="M365.69,206.66c-.25.72-3.06-8.47-4-16.19s.55-8.8,2.08-6.7S369.26,196.67,365.69,206.66Z"/><path class="cls-111" d="M365,208c.09.55-4.92-4.34-8.2-8.95s-2.72-5.82-1-5S363.81,200.32,365,208Z"/><path class="cls-112" d="M414.2,242c-.74.69,1.57-11.72,5.2-21.25s6-9.91,6.5-6.55S424.41,232.56,414.2,242Z"/><path class="cls-113" d="M413.2,239.19c-.34.95-4-11.12-5.2-21.26s.72-11.55,2.73-8.8S417.89,226.07,413.2,239.19Z"/><path class="cls-114" d="M412.33,240.88c.12.73-6.46-5.69-10.76-11.75s-3.58-7.63-1.34-6.58S410.74,230.86,412.33,240.88Z"/><path class="cls-115" d="M57.52,206.31c-.7.65,1.48-11.06,4.91-20.05s5.64-9.35,6.13-6.18S67.16,197.38,57.52,206.31Z"/><path class="cls-116" d="M56.58,203.63c-.32.9-3.79-10.49-4.91-20s.68-10.9,2.58-8.31S61,191.26,56.58,203.63Z"/><path class="cls-117" d="M55.76,205.23c.11.68-6.1-5.37-10.16-11.09s-3.38-7.2-1.26-6.21S54.25,195.78,55.76,205.23Z"/><path class="cls-118" d="M119.06,240.73c-.56.52,1.2-8.93,4-16.19s4.55-7.54,5-5S126.84,233.52,119.06,240.73Z"/><path class="cls-119" d="M118.31,238.56c-.26.73-3.06-8.47-4-16.18s.56-8.8,2.09-6.71S121.88,228.58,118.31,238.56Z"/><path class="cls-120" d="M117.65,239.85c.09.56-4.92-4.33-8.2-8.95s-2.73-5.81-1-5S116.43,232.23,117.65,239.85Z"/><path class="cls-121" d="M69.22,205c0,1.88-3,2.16-6.79,2.16s-6.79-.28-6.79-2.16,3-4.63,6.79-4.63S69.22,203.1,69.22,205Z"/><path class="cls-122" d="M60.82,207.25c0,2.5-4,2.88-9.06,2.88s-9-.38-9-2.88,4-6.18,9-6.18S60.82,204.75,60.82,207.25Z"/><path class="cls-123" d="M133.86,240.56c0,1.87-3,2.15-6.79,2.15s-6.79-.28-6.79-2.15,3-4.64,6.79-4.64S133.86,238.68,133.86,240.56Z"/><path class="cls-124" d="M125.46,242.84c0,2.5-4,2.87-9,2.87s-9.06-.37-9.06-2.87,4.05-6.19,9.06-6.19S125.46,240.34,125.46,242.84Z"/><path class="cls-125" d="M377.56,208.58c0,1.88-3,2.16-6.79,2.16s-6.79-.28-6.79-2.16,3-4.63,6.79-4.63S377.56,206.71,377.56,208.58Z"/><path class="cls-126" d="M369.16,210.86c0,2.5-4.05,2.88-9.06,2.88s-9.06-.38-9.06-2.88,4.06-6.18,9.06-6.18S369.16,208.36,369.16,210.86Z"/><path class="cls-127" d="M452.7,193.39c0,2.65-4.3,3.05-9.61,3.05s-9.61-.4-9.61-3.05,4.31-6.56,9.61-6.56S452.7,190.73,452.7,193.39Z"/><path class="cls-128" d="M440.82,196.61c0,3.54-5.74,4.07-12.82,4.07s-12.81-.53-12.81-4.07,5.73-8.75,12.81-8.75S440.82,193.07,440.82,196.61Z"/></g></g></g></svg>