<svg xmlns="http://www.w3.org/2000/svg" xmlns:xlink="http://www.w3.org/1999/xlink" viewBox="0 0 466.23 64.67"><defs><style>.cls-1,.cls-2,.cls-3,.cls-5,.cls-6{fill:none;}.cls-2,.cls-3{stroke:#006ac6;}.cls-2,.cls-3,.cls-5,.cls-6{stroke-linecap:round;stroke-linejoin:round;}.cls-2{stroke-width:0.5px;}.cls-3{stroke-width:0.49px;}.cls-4{clip-path:url(#clip-path);}.cls-5,.cls-6{stroke:#fff;}.cls-5{stroke-width:0.68px;}.cls-6{stroke-width:0.57px;}</style><clipPath id="clip-path" transform="translate(0 1.72)"><path class="cls-1" d="M139,60.07l.75-.24a28.12,28.12,0,0,0,19.5-26.55V.07H118.83V33.28a28.12,28.12,0,0,0,19.5,26.55l.75.24Z"/></clipPath></defs><g id="Calque_2" data-name="Calque 2"><g id="Calque_1-2" data-name="Calque 1"><path class="cls-2" d="M181.58,34.79c.58,1,28.76-18,29.37-16.95S181.52,34,182.06,34.9s26.69-16.77,27.28-15.75-25.52,14.52-25,15.46S209.19,19.06,209.71,20s-22.9,13.89-22.42,14.71,22.07-13.91,22.57-13-22.75,12.83-22.24,13.73c.43.74,22.64-14.33,23.18-13.39.46.79-20.7,12.59-20.22,13.42s19.18-11.94,19.55-11.28-17.88,9.93-17.56,10.5,17.27-10.86,17.65-10.19-17.06,10.37-16.69,11,14.74-9.24,15.05-8.69-14.57,8-14.26,8.49,14.07-8.88,14.4-8.31-13.83,9.47-13.55,10,12.55-7.83,12.8-7.39-11.19,7.4-11,7.78,9.85-6.36,10.15-5.85S196.08,37.64,196.29,38s10.62-6.78,10.9-6.29-11.77,6.46-11.56,6.84,12-7.56,12.3-7.1S196,38.63,196.23,39s12.35-7.69,12.59-7.26-11.79,6.49-11.56,6.9,11.53-7.21,11.77-6.8-12.16,7.25-11.9,7.69,11.42-7.17,11.67-6.74-13.33,8.53-13.08,9,13.62-8.54,13.91-8-13.84,9-13.54,9.49,13.68-8.52,13.95-8.05S195.52,44.51,195.8,45s14.5-9.14,14.83-8.56-14.85,8-14.53,8.59,13.25-8.37,13.57-7.83-14.18,8.07-13.94,8.5c.38.65,14.75-9.33,15.1-8.72" transform="translate(0 1.72)"/><path class="cls-2" d="M181.52,11.38c.39.68,17.11-10.82,17.52-10.11.31.53-15.45,9.88-15.13,10.44s15.56-9.77,15.9-9.18-15.18,8.84-14.91,9.32S201,1.71,201.37,2.34,185.74,11.52,186,12s15-9.36,15.26-8.81-10.83,8.06-10.61,8.43c.34.59,12.36-7.81,12.65-7.31s-10.71,7.41-10.51,7.75,12-7.63,12.32-7.11-9.25,6.8-9,7.16,10-6.31,10.22-5.91S194.76,12.72,195,13.12s10.94-7,11.24-6.49-9.92,6.75-9.68,7.16,10-6.33,10.24-5.92-10.94,8.05-10.73,8.4c.31.54,11.44-7.26,11.72-6.77s-11.12,7.51-10.86,8,11.49-7.28,11.77-6.8-13.21,7.45-12.92,8,13-8.21,13.28-7.67-12.27,7.14-12,7.57,12.47-7.82,12.74-7.35-14.25,9.87-14,10.33,13.94-8.77,14.25-8.23-14.54,8-14.26,8.5S209.55,13,209.89,13.6s-14.29,8-14,8.54,13.57-8.51,13.86-8" transform="translate(0 1.72)"/><path class="cls-2" d="M164.28.68s.25-.15.25-.14.09.65.1.67.3-.24.33-.19l.19.28c0,.08.4-.35.45-.26s-.84,2.62-.8,2.7,3.76-2.42,3.86-2.23-3.15,3.06-3.08,3.19c.18.32,5.93-3.84,6.11-3.53S164.25,6.76,164.4,7s9.55-6,9.78-5.64-8.5,5.65-8.3,6S177.3.07,177.6.6s-13.47,8.74-13.21,9.19,14.45-9.14,14.8-8.55S165.43,9,165.74,9.59,180.7.07,181.08.73s-16.36,10.89-16,11.51c.46.8,18.71-11.87,19.17-11.07.34.59-19.19,12.08-18.81,12.75.53.91,21.46-13.63,22-12.7.39.67-22.22,12.53-21.8,13.26.53.91,23-14.5,23.5-13.56s-24.3,13.88-23.76,14.81S190.87-.42,191.5.66c.5.86-27.38,16.1-26.9,17,.66,1.14,27.68-17.51,28.34-16.36S165,16.38,165.58,17.34,192.31.5,192.92,1.55s-28.11,16.23-27.58,17.14c.62,1.08,29-18.1,29.6-17.09s-31,18.44-30.39,19.56c.33.57,13.22-8.31,13.51-7.8s-13.42,8-13.15,8.48,13.85-8.71,14.16-8.18-14.89,9.32-14.56,9.9,14.35-8.95,14.64-8.45-14.71,8.1-14.45,8.54,14.51-9,14.79-8.54S164.7,23.45,165,24s13.95-8.68,14.22-8.21-14.81,8-14.48,8.6,14.42-9.14,14.77-8.53-13.91,8.71-13.63,9.2,13.56-8.64,13.91-8-15,8.12-14.71,8.61,14-8.79,14.27-8.24S164.12,27,164.47,27.62,178,19,178.36,19.6s-14.33,9.61-14,10.13,14.76-9.24,15.07-8.7-15.09,8.18-14.8,8.69,14.18-8.93,14.5-8.38-13.8,7.93-13.55,8.37,13.82-8.65,14.12-8.15-14.2,9.06-13.89,9.61,12.32-7.92,12.67-7.32c.26.45-13.78,8-13.48,8.49s14.18-8.87,14.47-8.36-14.23,8.17-13.93,8.68,13.32-8.45,13.64-7.88-13.93,9.11-13.62,9.64S182.58,23.7,183,24.35s-18,9.89-17.59,10.56,18.12-11.35,18.5-10.69S164.76,35.34,165.14,36s19.73-12.3,20.12-11.62-21.32,11.86-20.91,12.57,21.89-13.61,22.31-12.88S165,36.85,165.38,37.52s21.52-13.73,22.08-12.76-23,14-22.55,14.86c.57,1,25.06-15.79,25.63-14.8s-25.54,15.79-25,16.69c1,1.72,43.51-27.58,44.58-25.74s-45.33,24.69-44.55,26.05c.88,1.52,43.23-27,44.12-25.47S163.53,42.12,164.38,43.6s45.67-28.36,46.53-26.86-46.55,25.91-45.67,27.44c.29.5,13.61-8.49,13.89-8s-14.2,9.51-13.89,10.06,14.18-8.87,14.48-8.35-15.63,9-15.35,9.53,14.68-9.12,15-8.63-15.32,10.36-15,10.88,14.23-8.84,14.5-8.38S164,50.84,164.35,51.41s15-9.38,15.32-8.85S165.34,50.51,165.59,51s13.53-8.52,13.84-8-14.85,9.76-14.52,10.33,13.36-8.52,13.71-7.91c.25.43-14.26,8.52-14,9s13.54-8.64,13.9-8c.24.42-13.9,7.5-13.64,8s13.76-8.69,14.08-8.13-14.24,7.66-13.92,8.2,13.48-8.5,13.79-8-14.52,9.26-14.23,9.76,14.31-8.95,14.61-8.43-13.58,8.84-13.27,9.37,15.51-9.87,15.91-9.18-17.66,9.59-17.27,10.25,17-10.78,17.38-10S167.44,58,167.75,58.53c.46.79,18.77-11.67,19.13-11.05S170.63,58.12,171,58.76s17.72-11.11,18.1-10.45-16.57,10-16.19,10.68,19.22-12.06,19.64-11.33-19.5,10.53-19.13,11.18c.8,1.38,36.1-22.61,36.87-21.29.63,1.1-34.41,19.76-33.62,21.13.65,1.12,32.88-20.85,33.69-19.45.65,1.12-29.71,18-29.15,19,.72,1.24,27.65-17.4,28.27-16.33.52.9-27.89,15.35-27.27,16.43.54.93,26.94-16.8,27.48-15.86.45.77-25.71,14.6-25.14,15.59s24.27-15.3,24.82-14.33-24.31,13.91-23.83,14.74,23.64-14.75,24.13-13.92-21.83,13-21.34,13.89,21.33-13.56,21.87-12.62c.35.61-18,11.73-17.71,12.3S209.57,47.4,210,48.05s-15.08,9.73-14.75,10.29,13.8-8.76,14.14-8.17-13.87,8.19-13.62,8.62,12-7.53,12.29-7.1c.13.22-5.84,5-5.71,5.25s4.73-3.07,4.87-2.81c.07.11-3.39,2.22-3.31,2.35s.94-.67,1-.57" transform="translate(0 1.72)"/><path class="cls-2" d="M216,.65s.24-.15.25-.14.09.65.1.67.31-.24.33-.2.18.28.18.29.41-.36.46-.27-.84,2.63-.8,2.71,3.77-2.43,3.88-2.24-3.18,3.07-3.1,3.2c.18.32,6-3.86,6.14-3.55S216,6.73,216.13,7s9.58-6.06,9.81-5.67-8.54,5.68-8.33,6S229.07,0,229.37.54,215.86,9.3,216.12,9.76,230,1,230.35,1.54s-13.18,7.5-12.88,8,13.42-8.55,13.77-8-14.76,10.05-14.43,10.61,13.33-8.49,13.67-7.9c.25.43-13.59,9.1-13.31,9.58s12.88-8.23,13.23-7.64c.23.41-13.29,7.76-13,8.2s13.22-8.39,13.55-7.82-14.13,8.52-13.81,9.07S231,6.86,231.37,7.47s-15.32,9.63-15,10.11,13.79-8.77,14.14-8.17-13.43,7.43-13.16,7.9S229.67,9.45,230,10s-13.18,8.23-12.93,8.67,12.86-8.08,13.15-7.59S216,20.6,216.28,21.13s13.28-8.35,13.58-7.84-13.49,8-13.22,8.52,13.91-8.75,14.22-8.21-15,9.35-14.62,9.93,14.4-9,14.69-8.49-14.76,8.14-14.5,8.58,14.56-9,14.84-8.57S216.43,23.41,216.75,24s14-8.71,14.28-8.24-14.88,8.06-14.55,8.63S231,15.19,231.31,15.8s-14,8.74-13.68,9.23,13.6-8.67,14-8.06-15,8.15-14.75,8.64,14-8.82,14.31-8.26S215.84,27,216.19,27.59s13.59-8.65,13.94-8-14.37,9.63-14.07,10.15,14.79-9.26,15.1-8.72-15.13,8.2-14.83,8.71,14.21-9,14.53-8.39S217,29.24,217.28,29.68s13.85-8.67,14.14-8.16-14.23,9.07-13.91,9.62,12.34-7.93,12.69-7.33-13.8,8-13.51,8.5,14.2-8.88,14.5-8.37-14.25,8.18-14,8.69,12.65-8,13-7.48S217,33.88,217.26,34.39s13.37-8.43,13.67-7.9-14.14,7.86-13.83,8.39,13.75-8.64,14.05-8.12-14.57,8.7-14.28,9.2,13.75-8.59,14-8.1-15.12,8.54-14.83,9,15.09-9.38,15.38-8.87-14.61,9-14.35,9.45,12.76-8.2,13.12-7.58-13.88,9.17-13.58,9.68,13.13-8.33,13.45-7.77S217,41,217.25,41.48s13.07-8.37,13.43-7.75-13.64,7.65-13.4,8.06,12.66-8,13-7.48-14.4,8.79-14.13,9.26,15.07-9.37,15.36-8.87-14.79,8.95-14.5,9.45,13.69-8.54,14-8.07-14.28,9.56-14,10.11,14.25-8.91,14.55-8.4-15.7,9.09-15.42,9.58,14.74-9.16,15-8.67S215.73,49.09,216,49.62s14.3-8.88,14.57-8.41-14.85,9.6-14.52,10.17S231.14,42,231.45,42.5s-14.38,8-14.13,8.42,13.57-8.56,13.88-8-14.89,9.79-14.56,10.36,13.4-8.55,13.75-7.94c.25.44-14.3,8.55-14,9s13.58-8.66,13.93-8c.25.42-13.94,7.52-13.67,8s13.79-8.71,14.12-8.16-14.28,7.69-14,8.23,13.53-8.52,13.83-8S216,55.62,216.32,56.12s14.34-9,14.65-8.45-13.61,8.86-13.3,9.39,15.51-9.88,15.91-9.19-17.66,9.6-17.28,10.26,17-10.78,17.4-10c.34.59-14.59,9.91-14.28,10.44.46.8,18.84-11.71,19.2-11.08s-16.33,10.68-16,11.32,17.81-11.16,18.19-10.5S224.18,58.34,224.56,59s18.63-11.7,19-11-18.89,10.21-18.53,10.83S243.93,47,244.34,47.73c.31.53-16.41,10.29-16,11s18.5-11.76,19-10.95c.33.58-14.72,10-14.44,10.52.47.81,16.93-10.7,17.33-10,.31.54-16.7,9.45-16.33,10.1S251.2,47.5,251.56,48.13s-15.74,9.35-15.38,10,16.54-10.48,16.94-9.79-16.28,9.64-16,10.2c.42.73,17.6-11,18-10.37S239.59,57.87,240,58.49,257.71,47.17,258.17,48c.28.5-14.34,9.74-14.08,10.2s13.85-8.71,14.16-8.17-11.83,8-11.57,8.45,11.31-7.19,11.6-6.69S246.78,58.67,247,59s10.17-6.37,10.38-6c.12.22-5.58,4.9-5.46,5.11s6.64-4.27,6.83-3.94c.09.15-3.93,4-3.82,4.2s2.79-1.82,2.88-1.66-1.31,1.51-1.28,1.58,2.06-1.35,2.13-1.23,0,1.89.06,1.95.24-.15.25-.14" transform="translate(0 1.72)"/><path class="cls-2" d="M279.71,50.46c.58,1,26.22-16.55,26.83-15.49.49.85-24.94,14.93-24.43,15.81s23.17-14.5,23.66-13.66-23.09,13.09-22.68,13.8,23.16-14.55,23.67-13.66-23,13.09-22.53,13.86,21.38-13.36,21.82-12.6-17.5,11.64-17.17,12.21c.45.8,17.36-10.91,17.74-10.25S290.89,50.6,291.18,51.09s16-10.15,16.41-9.47c.27.47-11.89,8.2-11.63,8.64s11.79-7.42,12.06-7S295,50.57,295.21,51s12.28-7.84,12.61-7.28-10.25,6.94-10,7.35,9.91-6.27,10.15-5.86S297.53,53,297.73,53.34c.29.5,10.6-6.73,10.87-6.27s-9.76,6.78-9.54,7.17,10.09-6.4,10.34-6-11.6,6.59-11.35,7,11.43-7.23,11.71-6.75-10.48,6.18-10.26,6.55,10.75-6.76,11-6.35-11.55,8.43-11.33,8.81,11.52-7.26,11.78-6.81-11.81,6.54-11.58,7,11.19-7.12,11.48-6.63-10.76,6.65-10.51,7.08S310.72,51.62,311,52s-9.17,6.5-8.95,6.88,9.23-5.82,9.44-5.45-9,4.92-8.84,5.24,9.14-5.82,9.37-5.41-8.16,4.73-8,5,7.2-4.68,7.43-4.29-7.81,4.36-7.66,4.62,8.07-5.08,8.25-4.76-6.08,4.89-5.95,5.12,6.72-4.2,6.86-4-2.16,3.17-2.1,3.27,1.42-1,1.5-.86-.33,1.05-.31,1.08,1.12-.77,1.18-.68-.12,1.14-.1,1.17,1.25-.78,1.27-.74.09.66.1.68l.1-.06" transform="translate(0 1.72)"/><path class="cls-2" d="M287.77,23.66c.28.49,11.43-7.27,11.72-6.76s-10.64,6.83-10.41,7.23,10.27-6.58,10.55-6.09c.19.32-10.35,6.06-10.15,6.41s10.19-6.46,10.44-6S288,25.1,288.27,25.54s10.85-6.9,11.12-6.42-10.4,6.26-10.21,6.6c.29.5,11.27-7.11,11.53-6.66s-12.51,7.22-12.29,7.61,11.37-7.2,11.65-6.72c.18.32-10,6.81-9.76,7.2s10.54-6.7,10.81-6.24-11.91,8.32-11.63,8.8,11.22-7.14,11.51-6.64S290.69,29.55,290.93,30s10.41-6.62,10.67-6.16-11.27,7.08-11.05,7.46S302.12,24,302.4,24.43s-11.86,8-11.6,8.47,11.13-6.95,11.36-6.55-11,6.42-10.81,6.82,11.1-7,11.34-6.55-10.51,7.53-10.27,8,10.21-6.51,10.47-6.05-11.36,6.79-11.16,7.14,11.41-7.23,11.69-6.75-11.28,6.27-11.06,6.66,11.39-7.21,11.67-6.73-11,8.13-10.82,8.5,10.34-6.6,10.61-6.13-11.56,6.9-11.34,7.28,11.95-7.58,12.24-7.07-11.86,7.23-11.61,7.66,11.49-7.26,11.76-6.79" transform="translate(0 1.72)"/><path class="cls-2" d="M279.44.71a3.49,3.49,0,0,0,.31-.18s-.28.86-.26.89.66-.47.7-.41-.14.45-.13.46.22-.27.28-.16-1.82,3.16-1.77,3.27c.16.27,5.2-3.32,5.34-3.08s-5.25,4.18-5.14,4.37c.23.4,8-5.11,8.18-4.72s-10.23,7.08-10,7.42S289.16.85,289.45,1.34s-11.83,7.4-11.55,7.87,14.6-9.31,15-8.65S275.43,11.43,275.76,12,293.5.81,293.91,1.53s-17.43,9.73-17,10.41S294.52.74,295,1.5s-20.12,12.89-19.68,13.63S294.37,3,294.84,3.84c.36.63-20.38,12.72-20,13.42.49.86,19.92-12.66,20.43-11.79.36.64-20.91,11.84-20.51,12.52.47.83,20.72-13.1,21.22-12.25s-22.44,12.9-21.94,13.77,22.15-14,22.7-13.1c.44.77-24.5,14.55-24.06,15.31.55,1,23-14.57,23.56-13.6s-23.16,12.6-22.7,13.4,21.79-13.75,22.3-12.88S272.37,22.4,272.81,23.16,295.94,8.71,296.42,9.53s-25.77,15.65-25.23,16.59,24.92-15.61,25.45-14.69S270.67,26.1,271.19,27s26.13-16.38,26.69-15.41S269.55,28,270.17,29.07s27.66-17.22,28.21-16.28-28.6,15.57-28.11,16.43c.62,1.06,28-17.36,28.5-16.45.66,1.14-29,15.84-28.39,16.93s27.78-17.23,28.3-16.34S269.37,29,270,30.14s28.34-17.91,29-16.75c.56,1-29,16.74-28.41,17.74s28.37-18,29.06-16.78c.59,1-30.48,16.4-29.91,17.39.68,1.18,28.87-18.14,29.51-17s-31.52,18.18-30.81,19.4c.57,1,29.53-18.7,30.24-17.46S266.84,35.58,267.49,36.7c.42.72,18.34-11.49,18.73-10.82s-18.89,10.21-18.53,10.83,17.77-11.16,18.16-10.48-17.75,10-17.43,10.61S285.84,26,286.2,26.58,267.59,38,268,38.67s15.91-10.17,16.33-9.43c.33.58-17.81,10.12-17.44,10.77S284.67,28.9,285,29.53,266.8,39.84,267.17,40.48s16.23-10.26,16.62-9.59S266.08,42,266.46,42.66s17-10.67,17.35-10-18.06,9.94-17.67,10.61S283.5,32.37,283.87,33s-18.72,10.91-18.35,11.55,17.37-10.83,17.71-10.23S264.15,45,264.52,45.63s18.7-11.63,19.06-11S264.73,45.9,265.07,46.48,281.44,36,281.88,36.77s-18.42,11.58-18,12.25,16.77-10.6,17.17-9.91-17.85,11.7-17.48,12.34c.46.8,19.13-12.19,19.62-11.33s-20.07,11.11-19.73,11.71,19.43-12.2,19.86-11.46-21.89,12.8-21.48,13.51,24.17-15,24.63-14.23-24.68,14.24-24.21,15.06S287.29,39.13,287.77,40s-27,16.27-26.4,17.28,29.95-18.68,30.55-17.63c.71,1.22-32.28,18-31.7,19,1,1.82,44.16-27.38,45-26s-42.78,25.06-42,26.45,41.33-25.59,42.07-24.29S265.55,57.54,266.4,59c.22.39,10.92-6.82,11.15-6.43s-9.64,5.42-9.47,5.72S277,52.66,277.2,53s-6.55,5.37-6.39,5.64,4.63-3,4.78-2.76-3.59,2.8-3.52,2.92,2.94-1.94,3.05-1.76-2.7,1.52-2.65,1.61,3-1.93,3.06-1.77-2.68,1.58-2.62,1.68,2.34-1.54,2.42-1.4-.5,1.77-.47,1.82.83-.51.85-.49-.43.47-.41.49.3-.19.31-.18" transform="translate(0 1.72)"/><path class="cls-2" d="M315.62.65s.24-.15.25-.14.09.65.1.67.3-.24.33-.19.18.27.18.28.41-.35.46-.27-.84,2.63-.8,2.71S319.9,1.29,320,1.48s-3.17,3.06-3.09,3.19C317.1,5,322.86.82,323,1.14s-7.45,5.59-7.3,5.84,9.56-6.05,9.79-5.65S317,7,317.21,7.33,328.65,0,329,.56s-13.48,8.75-13.22,9.2S330.2.61,330.54,1.2,316.76,9,317.08,9.56,332.06,0,332.44.69c.29.5-15.54,10.45-15.2,11,.44.77,17.93-11.38,18.37-10.61.27.48-15,9.87-14.73,10.4.44.76,17.48-11.12,17.92-10.35.3.51-16.86,9.68-16.54,10.23.42.72,17.82-11.27,18.25-10.53s-17,10-16.59,10.68S342.41-.19,342.87.61c.32.56-17.58,10.84-17.27,11.39.45.78,18.38-11.66,18.83-10.87s-17.69,9.69-17.34,10.3,17-10.73,17.37-10S328.65,11.05,329,11.57c.39.68,17.46-10.93,17.83-10.29S331.34,11.44,331.68,12c.42.73,17.87-11.22,18.26-10.54s-16.72,9.74-16.38,10.33S352.06.2,352.46.9,335.37,11.38,335.75,12,354.74.2,355.12.85,336,11.36,336.28,11.93c.43.74,19.16-11.9,19.53-11.27S337.13,11,337.54,11.74,356.14.19,356.49.8s-19.24,10.36-18.81,11.1,19-12,19.5-11.26c.32.56-16.38,10-16.05,10.59S359.3-.31,359.76.48s-19.58,10.58-19.22,11.21c.45.78,18.57-11.69,19-11s-17.21,10.65-16.82,11.33S360.53.74,361,1.51s-19.28,12.25-18.89,12.94S361.6,2.23,362,3s-20.26,10.93-19.87,11.61,19.14-12,19.56-11.3S341.91,14.4,342.27,15s19.6-12.24,20-11.55S339.64,17,340.13,17.85,360.51,4.86,361,5.78c.44.74-23.27,13-22.78,13.85S361.56,5.09,362,5.9s-24.68,13.73-24.17,14.6S360.52,6.21,361,7.11s-26.38,15.7-25.81,16.68,26-16.3,26.55-15.34-27.91,15.14-27.31,16.17S361.44,7.76,362,8.73s-29.76,16.79-29.18,17.8S361.19,8.87,361.74,9.82,330.69,26.87,331.28,27.9,361.71,9,362.29,10,330,28.51,330.56,29.49s29.75-18.93,30.51-17.61S326.64,32,327.35,33.18s31.76-20,32.47-18.75-36,21.33-35.23,22.59S356.25,16.91,357,18.28,323.55,36.6,324.13,37.61s31.32-19.61,32-18.47-35.46,20.06-34.8,21.2,33.74-21,34.38-19.85-35.8,20.18-35.13,21.35,32.38-20.1,33-19c.71,1.23-36.84,21.49-36.05,22.86.65,1.13,32.9-20.52,33.56-19.38.79,1.37-36,20-35.36,21.09.8,1.38,33.33-20.67,33.95-19.6s-34.67,20.72-34,21.85,29.64-18.37,30.18-17.43-30.8,18-30.13,19.19c.56,1,27.74-17.32,28.3-16.34s-27.54,15-27.06,15.88c.6,1,25.88-16.23,26.44-15.27s-27.73,16.57-27.12,17.61,22.81-14.49,23.38-13.5c.42.73-24.11,13.81-23.68,14.56s21.69-13.78,22.24-12.84c.39.68-22.4,12-22,12.77S338,40.52,338.51,41.37s-22.64,12.09-22.14,13S337.67,41,338.14,41.76s-22.65,13.6-22.21,14.36,19.84-12.4,20.25-11.69-19.34,11.89-18.91,12.63,15.72-10,16.12-9.3-17.86,9.7-17.48,10.37,17-10.78,17.39-10c.34.59-14.58,9.91-14.27,10.44.46.8,18.83-11.71,19.19-11.08s-16.33,10.68-16,11.32,17.8-11.16,18.18-10.5S323.79,58.34,324.17,59s18.62-11.69,19-11-18.88,10.21-18.52,10.83S343.53,47,343.94,47.73c.31.54-16.41,10.3-16,11s18.5-11.76,19-11c.34.57-14.72,10-14.43,10.51.47.81,16.92-10.7,17.32-10,.32.54-16.7,9.45-16.32,10.11S350.8,47.5,351.17,48.14c.27.48-15.74,9.35-15.39,10s16.54-10.48,16.94-9.78-16.27,9.63-16,10.2,17.6-11,18-10.38-15.54,9.73-15.19,10.35S357.62,47,358.09,47.79c.29.5-14.66,9.91-14.39,10.39.41.71,17.67-11.1,18.06-10.43s-15.82,10.12-15.48,10.71,15.13-9.6,15.51-9-15.48,9-15.2,9.52,14-8.74,14.28-8.25c.2.34-9.55,7-9.36,7.36S362,51.47,362.24,52c.15.27-7.91,6.12-7.72,6.45s6.62-4.19,6.78-3.92-5.3,3.64-5.18,3.84,5.88-3.74,6-3.48-2.79,3.42-2.71,3.55,1.41-1,1.5-.86-.3.51-.29.53,1.64-1.09,1.7-1-2.35,1.68-2.29,1.77,2.25-1.41,2.3-1.32-.18,1.46-.15,1.51.25-.15.25-.14" transform="translate(0 1.72)"/><path class="cls-2" d="M386.7,11.93c.37.66,15.95-10.13,16.35-9.44.29.51-13.45,8.32-13.16,8.82s13.83-8.81,14.18-8.19c.24.41-13.24,7.61-13,8.05s13.33-8.41,13.64-7.87-14.58,8.09-14.27,8.63,13.66-8.66,14-8.08-12.28,7.27-12.05,7.67c.34.59,13.47-8.5,13.78-8s-14.06,8-13.81,8.48,13.14-8.31,13.45-7.76c.18.31-9.52,6.56-9.3,6.94s10.84-6.89,11.11-6.42-10.73,7.7-10.48,8.14S408,6,408.3,6.5s-9.68,6.15-9.46,6.54,10.12-6.44,10.38-6-10.86,6.86-10.65,7.23S410,7.05,410.29,7.52s-11.8,8-11.55,8.44,11.4-7.12,11.64-6.71-11.38,6.61-11.15,7S410.73,9.06,411,9.48s-11.32,8-11.06,8.4,11.14-7.09,11.43-6.59-12.51,7.39-12.29,7.78,12.52-7.92,12.82-7.4-12.5,6.92-12.25,7.35,12.57-7.94,12.87-7.43-12.9,9.14-12.65,9.57,12-7.68,12.36-7.14-13.56,8-13.3,8.4,13.81-8.74,14.14-8.17-14.08,9.1-13.78,9.61,13.6-8.58,13.92-8-14.08,8.38-13.78,8.9,13.32-8.32,13.59-7.85-13.16,7.24-12.92,7.66,12.19-7.78,12.51-7.22-12.91,9.15-12.66,9.57,13.49-8.45,13.78-7.95-14.53,8.76-14.2,9.34,14.28-9.07,14.64-8.45-15,9.09-14.7,9.6,13.66-8.62,14-8.07-15,9.67-14.7,10.26,15-9.49,15.37-8.88-15.61,8.81-15.3,9.35,14.32-9,14.63-8.44S398.68,32.74,399,33.31s14.67-9.12,14.95-8.63-14.38,8.38-14.1,8.85,12.47-8,12.8-7.39S399,34.75,399.27,35.3s13-8.33,13.36-7.72-13.87,8.18-13.56,8.71,13.49-8.55,13.82-8S399,38,399.26,38.45s14.08-8.82,14.38-8.3S400,39.29,400.25,39.73s13.4-8.56,13.76-7.94-15.18,9.1-14.89,9.6,13.33-8.34,13.61-7.85-14.56,9-14.28,9.51,14.83-9.35,15.17-8.76-15.42,9.21-15.1,9.76,13.71-8.6,14-8.08S396.9,45.69,397.25,46.3s15.64-9.77,15.95-9.22" transform="translate(0 1.72)"/><path class="cls-2" d="M375,3.45c.07.13.28-.3.34-.2S371.88,5.77,372,5.9s7-4.37,7.14-4.11S372,6,372.11,6.21s7.32-4.76,7.55-4.36-10.22,7.68-10,8C370,10.49,383.8,1,384.1,1.53s-14.61,9.18-14.32,9.68c.43.75,17-10.77,17.38-10s-19.41,12-19.05,12.63c.46.79,21.07-13.24,21.53-12.43s-20.76,12.11-20.29,12.92S392.49-.4,393.07.6,367.17,16,367.65,16.83c.6,1,26.37-16.6,27-15.57S368.36,15.64,369,16.66,395.79-.33,396.44.79c.51.9-28.84,17.51-28.23,18.57.71,1.24,30-19,30.75-17.76.55.95-31,18.39-30.39,19.44.75,1.31,31.88-20.19,32.65-18.85.58,1-33.08,18.34-32.45,19.42.73,1.27,33-20.8,33.75-19.49s-34.78,19.41-34,20.74c.29.51,14.92-9.48,15.29-8.83s-16.37,10.19-16.07,10.7,14.14-9,14.5-8.37-13.8,7.63-13.52,8.1,12.63-8,13-7.48-13.46,8.39-13.2,8.84,12.93-8.12,13.21-7.63-14.3,9.56-14,10.1S380.9,20,381.2,20.49,367.76,28.49,368,29s13.84-8.7,14.15-8.17-14.88,9.32-14.55,9.89,14.33-8.94,14.62-8.44-14.69,8.1-14.44,8.54,14.5-9,14.78-8.53-14.77,8.32-14.45,8.88,13.93-8.67,14.2-8.2-14.8,8-14.47,8.58,14.4-9.12,14.75-8.51S368.74,31.7,369,32.18s13.54-8.62,13.89-8-15,8.11-14.68,8.6,13.92-8.78,14.24-8.23-15.23,9.6-14.88,10.21,13.51-8.61,13.86-8-14.29,9.59-14,10.11,14.71-9.22,15-8.68-15.06,8.16-14.77,8.66,14.14-8.9,14.46-8.34-13.76,7.9-13.5,8.34,13.77-8.63,14.06-8.12-14.15,9-13.83,9.57,12.26-7.88,12.61-7.28c.26.45-13.72,8-13.42,8.45s14.11-8.83,14.41-8.32-14.15,8.13-13.86,8.63,12.55-8,12.86-7.42S368.46,41,368.75,41.48s13.2-8.31,13.5-7.79S368.33,41.44,368.63,42s13.55-8.51,13.84-8-14.26,8.54-14,9,13.45-8.41,13.73-7.93-14.75,8.35-14.46,8.84,14.72-9.16,15-8.66S368.7,43.94,369,44.38s12.23-7.86,12.58-7.26-13,8.68-12.7,9.16S381.1,38.5,381.41,39,369.79,47.4,370,47.83s11.65-7.47,12-6.91-12.05,6.8-11.84,7.16,11.14-7,11.41-6.58-12.45,7.74-12.21,8.15,13.26-8.24,13.51-7.8S370.39,49.57,370.63,50s11.6-7.24,11.84-6.83-11.19,7.92-10.93,8.36,11.69-7.32,11.93-6.89S370.77,52.1,371,52.5s12.05-7.49,12.28-7.09S372,53.63,372.2,54s11.45-7.12,11.67-6.74-10.66,7.39-10.42,7.8,12.89-8,13.16-7.59-11.94,6.66-11.73,7,11.64-7.35,11.91-6.88-11.3,7.88-11,8.32,13.25-8.46,13.6-7.85c.24.41-13.35,8-13.1,8.46.34.59,14.17-9,14.54-8.4.25.44-14.49,7.8-14.21,8.28s14.45-9.12,14.78-8.53-14.8,8-14.47,8.52,14.3-9,14.63-8.45S377.7,56.88,378,57.36c.36.63,16.36-10.23,16.7-9.64s-13.76,8.93-13.45,9.48c.71,1.23,31.32-19.82,32.07-18.52.61,1.07-33.82,18.12-33.09,19.38.63,1.1,32-20.22,32.72-18.89.67,1.16-29.82,18-29.2,19.06.71,1.24,29.72-18.45,30.28-17.48S386,57.63,386.57,58.7s25.34-15.84,25.87-14.93S387.89,58,388.45,59s23.73-14.88,24.24-14S388.5,58,389,58.8s23.7-14.86,24.21-14c.4.69-21.48,13-21,13.82.41.7,20.06-12.74,20.56-11.87.37.64-16.32,10.88-16,11.43S410.68,49.36,411,50c.26.44-13.51,7.78-13.2,8.31s12.74-8,13-7.52c.19.33-10.6,6.64-10.36,7.06s8.95-5.73,9.2-5.31c.15.27-7.61,5-7.46,5.29s6.39-4.05,6.55-3.77-3.28,2.55-3.2,2.69,1.53-1.06,1.6-.93" transform="translate(0 1.72)"/><path class="cls-2" d="M450.35.65s.25-.15.25-.14.51,1.35.53,1.4,1.11-.78,1.17-.68-1.45,1.47-1.41,1.53,3.35-2.15,3.44-2-3.87,2.9-3.79,3,4.22-2.69,4.33-2.5-3.76,4.26-3.67,4.42c.22.39,7.4-4.71,7.59-4.38s-8.38,6.15-8.22,6.43c.26.45,11.35-7.21,11.64-6.72S451.76,8.5,452,8.9c.32.56,12.56-7.91,12.84-7.42s-14.45,8-14.16,8.5,13.52-8.62,13.87-8-13.25,8.52-12.94,9S464,3.22,464.24,3.71s-13.6,9.48-13.34,9.91c.34.6,13.05-8.26,13.36-7.71s-12.8,8.38-12.51,8.89S464.3,6.87,464.6,7.39s-14.3,8-14,8.56,13.88-8.78,14.21-8.21-13.22,7.64-12.95,8.11,13.22-8.29,13.5-7.79S450.62,18.2,450.89,18.68s14-8.81,14.31-8.27-14.46,8-14.18,8.45,13.66-8.66,14-8.08-13.62,8.16-13.31,8.7,12.87-8.08,13.15-7.59-14.58,9.36-14.24,9.94,13.95-8.76,14.25-8.23S450.69,21.25,451,21.75s14-8.9,14.37-8.3-14,7.83-13.7,8.31,12.67-8.14,13-7.52-13.87,7.58-13.6,8,13.85-8.67,14.14-8.16-15.08,9.68-14.77,10.21,14.9-9.3,15.2-8.78-14.29,9.71-14,10.16,12.58-7.89,12.86-7.42-12.65,7.63-12.4,8.06,12.12-7.67,12.41-7.16-13.3,8.17-13.05,8.6,12.82-8.07,13.11-7.56" transform="translate(0 1.72)"/><path class="cls-2" d="M435.22,30.83c.28.48,11.29-7.19,11.58-6.69s-10.32,6.66-10.09,7.05,10.12-6.48,10.4-6-10.13,5.95-9.93,6.29,10.05-6.37,10.29-5.95-11.69,6.57-11.44,7,10.7-6.81,11-6.34-10.15,6.13-10,6.46c.29.5,11.12-7,11.39-6.58s-12.3,7.11-12.08,7.49,11.23-7.12,11.5-6.64c.18.31-9.61,6.61-9.39,7s10.4-6.62,10.66-6.16-11.45,8.08-11.18,8.55c.51.88,26.08-16.49,26.7-15.42S439,35.46,439.53,36.46s24.85-15.64,25.41-14.67-26.13,15-25.63,15.88c.6,1,25.55-16.08,26.12-15.08s-26.17,15.63-25.62,16.58S464.22,24,464.69,24.8s-24.75,13.71-24.24,14.58c.6,1,24.13-15.05,24.61-14.21S441.28,39.72,441.8,40.62s22.38-14.13,22.9-13.23-23.91,13.53-23.49,14.26S464.5,27,465,27.89s-23.61,12.84-23.15,13.65S465,27,465.56,27.87,442.63,42.4,443.05,43.12c.55,1,21.17-13.39,21.68-12.51.41.71-22.73,12.87-22.31,13.6s22.47-14.2,23-13.28S443,44.44,443.48,45.25s21.34-13.44,21.82-12.6S443.56,45.1,444,45.89s20.58-12.82,21-12.12S444.4,45,444.78,45.65s19.32-12.26,19.79-11.43c.36.62-19.35,12.61-19,13.23s19.56-12.21,20-11.52-20.36,11.82-19.89,12.62S465.47,36,466,36.83s-20.31,11.91-19.91,12.61,18.76-11.82,19.18-11.08-19.58,12.08-19.15,12.83S465.46,39,465.91,39.74,446,50.85,446.37,51.54,464.85,40,465.24,40.65s-18.51,11.06-18.09,11.78,18.27-11.36,18.62-10.75S448,51.9,448.29,52.48s15.78-10,16.18-9.34S447.92,53.24,448.3,53.9s15.73-10,16.14-9.32-16.32,9.47-16,10.1,15.84-10,16.22-9.37c.29.49-15.36,10.47-15.07,11s15.49-9.7,15.82-9.13-14.29,9.48-14,9.94,14-8.94,14.39-8.3-15.32,9.18-15,9.68,13.47-8.42,13.75-7.93S451.79,58.59,452,59s13.09-8.26,13.39-7.73c.21.35-11.47,7.11-11.23,7.52s9.91-6.24,10.14-5.85-6.78,5.62-6.61,5.91,7.13-4.48,7.29-4.21-4.28,4-4.18,4.17,3.71-2.38,3.81-2.2-3,2.26-2.92,2.39,3.47-2.18,3.54-2.05-.54,1.63-.51,1.69,0-.08,0,0,.92.36.94.39l.25-.15" transform="translate(0 1.72)"/><path class="cls-2" d="M419.13.65s.25-.15.25-.14.09.65.1.67.31-.24.34-.19.17.27.18.28.41-.35.46-.27-.85,2.63-.8,2.71,3.76-2.42,3.87-2.23-3.17,3.06-3.1,3.19c.19.32,5.95-3.85,6.13-3.54s-7.45,5.6-7.31,5.85,9.57-6.05,9.8-5.65-8.52,5.66-8.32,6S432.17,0,432.48.55,419,9.31,419.24,9.76,433.29.88,433.62,1.45s-13.33,7.58-13,8.11S434.4.76,434.76,1.38,419.6,11.63,419.93,12.21s14.65-9.32,15-8.68c.28.47-15,9.83-14.65,10.36s15-9.56,15.37-8.88c.27.47-15.47,8.93-15.18,9.44s15.6-9.88,16-9.22-16.61,9.83-16.23,10.47S437,5.07,437.39,5.8,419.13,17,419.46,17.58c.42.73,17.21-10.92,17.63-10.19s-17,9.33-16.65,9.92S436.35,7.23,436.73,7.9s-16.86,10.21-16.54,10.76,16.92-10.6,17.28-10S419,20.45,419.41,21.13,437.57,9.73,438,10.42s-18.58,10.74-18.2,11.39,19.15-12,19.57-11.3-20.42,12.24-20,13S439.64,10.89,440,11.59s-20.85,11.41-20.49,12c.46.79,20.53-12.74,20.92-12.07.47.83-21.05,11.63-20.6,12.42s20.2-12.53,20.58-11.88-21.31,11.45-20.84,12.27,20.72-13.11,21.22-12.25c.4.69-20.49,12.21-20.08,12.92s20.41-13,20.91-12.07c.43.73-22.12,11.93-21.71,12.65.51.87,20.86-13.12,21.33-12.31s-22.47,13.41-22,14.29c.42.72,21.1-13.38,21.62-12.48S418.73,28.92,419.18,29.7s23.17-14.49,23.65-13.65S419,28.89,419.45,29.69s22.64-14.22,23.14-13.36S420,29,420.41,29.68s22.51-14.06,23-13.26-23.25,13.84-22.75,14.72,21.64-13.78,22.19-12.82c.44.76-23.5,13.13-23,14s23.81-14.86,24.29-14-24.24,13.49-23.75,14.35c.59,1,22.51-14.19,23-13.29s-23.5,14.18-23,15.05,24-15,24.49-14.14S419.69,34,420.22,34.88s24.53-15.34,25-14.46S419.49,35.08,420,36s24.93-15.52,25.41-14.67S418.69,36,419.2,36.91s26.45-16.44,27-15.57-26.4,15.34-25.93,16.15,24.56-15.66,25.2-14.55-26.21,15.71-25.67,16.65,25.72-16.21,26.31-15.19-26.23,16.16-25.7,17.08c.33.58,13.06-8.36,13.42-7.74s-13.62,7.64-13.39,8,12.65-8,13-7.47S419,43.1,419.23,43.57s15.06-9.35,15.34-8.86-14.76,8.94-14.48,9.44,13.68-8.53,14-8.06-14.26,9.55-13.94,10.1,14.23-8.9,14.53-8.39-15.69,9.08-15.4,9.57,14.72-9.15,15-8.66-15.37,10.38-15.07,10.91,14.28-8.87,14.55-8.4-14.83,9.59-14.5,10.16,15-9.4,15.35-8.87-14.37,8-14.11,8.41,13.55-8.55,13.86-8-14.88,9.78-14.55,10.35,13.39-8.54,13.74-7.93c.25.44-14.29,8.54-14,9s13.57-8.65,13.93-8c.24.42-13.93,7.51-13.67,8s13.79-8.71,14.11-8.15-14.26,7.68-13.95,8.22,13.51-8.51,13.82-8-14.55,9.28-14.26,9.78,14.33-9,14.63-8.44-13.6,8.85-13.29,9.38,12.73-8.12,13.07-7.54-14.75,8-14.43,8.61,13.7-8.72,14.06-8.12-11.19,8.1-10.94,8.52,11.81-7.36,12-7-9,6.81-8.8,7.19,7.2-4.57,7.37-4.26-5.59,4.25-5.45,4.49,5.74-3.65,5.89-3.4-5.49,3.06-5.38,3.24,5.74-3.64,5.88-3.4-2.72,3.1-2.64,3.24,2.52-1.66,2.61-1.5.38,1.81.41,1.86.24-.15.25-.14" transform="translate(0 1.72)"/><path class="cls-2" d="M43.73,30.83c.31.54,13.82-8.72,14.15-8.16S43.05,32.73,43.35,33.25s13.62-8.66,14-8.06c.26.44-13.27,7.84-13,8.36s14.07-8.93,14.42-8.33S42.87,34.86,43.23,35.5s13.94-8.85,14.28-8.25-13.94,9-13.68,9.49S57.69,28.08,58,28.57s-14.85,8.36-14.51,9S57.74,28.65,58,29.12,44.58,38.53,44.86,39s12-7.71,12.32-7.12-13.8,8.25-13.55,8.68S57,32.21,57.3,32.69s-13.27,9-13,9.54,13.46-8.56,13.8-8-14.85,8.86-14.53,9.42S57.38,35,57.68,35.55,43.59,44.66,43.85,45.1,57,36.74,57.36,37.3,44.4,44.65,44.63,45c.34.6,12.52-7.89,12.8-7.39S44.66,46,44.92,46.42s11.91-7.67,12.26-7.08-13.59,8.81-13.35,9.23,14.1-8.82,14.39-8.31-15,8.21-14.68,8.72S57,40.42,57.33,41s-12.95,8.86-12.65,9.37,12.84-8.16,13.16-7.6S43.13,51,43.43,51.53,56.81,43,57.17,43.6,43.51,51.71,43.8,52.22s14.11-9,14.47-8.35S43,54.14,43.28,54.68s13.59-8.65,13.94-8c.23.39-12.55,6.84-12.29,7.29s13.45-8.56,13.8-8S43.49,55.1,43.82,55.68s14.49-9.11,14.81-8.56-14,8.21-13.78,8.64,12.46-7.85,12.74-7.36-13.77,8-13.5,8.48S58,48.05,58.34,48.66s-15.13,8.46-14.81,9,13.94-8.78,14.25-8.23-14.82,8.45-14.5,9,14.21-8.92,14.52-8.39-11,8-10.75,8.46,10-6.38,10.28-5.93-6.92,5.53-6.78,5.76,6.74-4.37,7-4-5.75,3.93-5.63,4.14,6-3.82,6.16-3.56-2.46,3.05-2.4,3.16,2.07-1.42,2.17-1.26-2,1.9-2,2,2.17-1.41,2.24-1.29.48,1.5.5,1.55.25-.15.25-.14" transform="translate(0 1.72)"/><path class="cls-2" d="M43.07.72s.36-.23.37-.21-1,2.2-1,2.28,2.61-1.71,2.7-1.56S41.54,3.86,41.61,4,47,.54,47.17.77s-6.75,4.44-6.61,4.67,7-4.41,7.15-4.13-8.56,6.84-8.39,7.14c.33.58,12-7.59,12.3-7.1S37,10.84,37.3,11.3C37.68,12,54.62.33,55,1.06S36.74,12.67,37.12,13.34c.49.84,20.12-12.6,20.55-11.86S35.09,13.81,35.54,14.58,56.84,1,57.38,2,34.66,15.48,35.17,16.36,56.63,2.93,57.08,3.71c.55,1-24.88,15.55-24.43,16.31C33.24,21,56.56,5,57.1,5.91S31.56,21,32.13,22,56.9,6.45,57.44,7.39s-27.45,15-26.86,16S57.05,6.7,57.65,7.74,30.78,22.64,31.32,23.58,57.68,7.13,58.21,8.06,29.66,23.62,30.15,24.48,57.45,7.37,58,8.38" transform="translate(0 1.72)"/><path class="cls-2" d="M16.34,30.83c.27.48,11.29-7.19,11.58-6.69S17.6,30.8,17.82,31.19s10.14-6.49,10.41-6c.19.31-10.13,5.95-9.93,6.29s10.06-6.38,10.3-5.95-11.71,6.57-11.45,7C17.88,33.8,56.34,7.84,57.23,9.38s-39.81,22-39.07,23.27C19.09,34.26,57.51,8,58.36,9.44S16.74,32.29,17.47,33.56C18.3,35,56.69,8.89,57.57,10.4c.69,1.2-38.82,22.07-38,23.51s37.76-23.73,38.6-22.29-40,23.14-39.12,24.68c.72,1.25,37.54-23.7,38.41-22.18C58.25,15.46,19.81,35,20.65,36.46S57,13.65,57.77,15,19.7,36.42,20.43,37.67c.86,1.49,37-23.27,37.84-21.84s-38.14,22-37.34,23.34c.7,1.21,35.92-22.31,36.6-21.14.79,1.37-36.71,20.07-36,21.35.88,1.52,35.64-22.18,36.34-21s-35.75,20.89-35,22.22c.67,1.15,33.85-21.31,34.61-20s-35.83,19.93-35.2,21S57.08,19.78,57.86,21.13,22.3,40.32,23,41.54,57.63,19.77,58.4,21.1,23.54,42,24.17,43.12c.44.76,16.47-10.44,16.87-9.74S23.2,43.63,23.54,44.21,40.73,33.33,41.14,34,24.24,44.64,24.6,45.25,39.32,36,39.66,36.55s-14.84,8.79-14.52,9.34,13.17-8.23,13.44-7.76-12.92,7.11-12.69,7.52,11.78-7.53,12.09-7c.23.38-11.51,8.4-11.28,8.78s10.16-6.38,10.38-6-10.56,6.68-10.31,7.1,9.54-6.07,9.78-5.65S27,49.1,27.17,49.44s7.55-4.8,7.74-4.47-7.9,5.9-7.71,6.22,6.77-4.28,6.93-4-6.78,4.11-6.64,4.35,5.41-3.42,5.54-3.2-4.89,3.88-4.77,4.09,4.11-2.57,4.2-2.42-3.12,2.36-3.05,2.47,1.08-.81,1.16-.67-.94,1.87-.9,1.94.32-.29.36-.21-.88,1.32-.85,1.38,1-.62,1-.58-.74,1-.72,1.08l.17-.1" transform="translate(0 1.72)"/><path class="cls-2" d="M.25.65S.5.5.5.51s.09.65.1.67S.91.94.93,1l.19.28c0,.08.4-.35.45-.27S.73,3.63.77,3.71,4.54,1.29,4.64,1.48,1.48,4.54,1.55,4.67C1.74,5,7.5.82,7.68,1.13S.22,6.73.37,7,9.94.93,10.17,1.33,1.65,7,1.85,7.33,13.29,0,13.59.55.1,9.31.36,9.76,14.41.88,14.74,1.45,1.41,9,1.71,9.56,15.52.76,15.87,1.38.72,11.63,1.05,12.21s14.65-9.32,15-8.68c.27.47-15,9.83-14.66,10.36S16.4,4.33,16.79,5c.27.47-15.47,8.93-15.18,9.44s15.6-9.89,16-9.22S1,15.06,1.35,15.7,18.09,5.07,18.51,5.8.24,17,.57,17.58C1,18.31,17.79,6.66,18.21,7.39s-17,9.33-16.66,9.92S17.47,7.23,17.85,7.9,1,18.11,1.31,18.66s16.92-10.6,17.28-10S.13,20.45.52,21.13,18.69,9.73,19.09,10.41.51,21.16.88,21.81,20,9.78,20.46,10.5,0,22.75.48,23.53,20.76,10.89,21.16,11.59.31,23,.67,23.62c.45.79,20.53-12.74,20.92-12.08C22.07,12.37.54,23.18,1,24s20.2-12.54,20.58-11.88S.25,23.54.73,24.36,21.45,11.25,22,12.11C22.35,12.8,1.46,24.32,1.87,25S22.28,12.07,22.79,13,.66,24.89,1.07,25.61c.5.87,20.86-13.12,21.33-12.31S-.07,26.71.44,27.59c.41.72,21.1-13.39,21.62-12.48S-.15,28.92.3,29.7,23.47,15.2,24,16.05.11,28.89.57,29.69,23.21,15.47,23.71,16.33,1.11,29,1.52,29.68,24,15.62,24.5,16.42,1.25,30.26,1.75,31.14,23.39,17.36,24,18.32c.43.76-23.51,13.13-23,14s23.81-14.87,24.29-14S1,31.77,1.48,32.63c.59,1,22.51-14.19,23-13.3S1,33.51,1.5,34.39s24-15,24.49-14.15S.8,34,1.34,34.88s24.53-15.35,25-14.46S.61,35.08,1.11,36,26,20.44,26.53,21.28-.2,36,.32,36.91s26.46-16.45,27-15.57S.88,36.68,1.35,37.49s24.57-15.66,25.2-14.56S.33,38.65.88,39.59,26.61,23.38,27.19,24.4,1,40.56,1.49,41.48c.33.58,13.06-8.36,13.41-7.74s-13.62,7.64-13.38,8,12.65-8,12.94-7.47S.08,43.1.35,43.57s15.05-9.35,15.34-8.86S.93,43.65,1.21,44.15s13.68-8.53,14-8.06S.9,45.64,1.21,46.19s14.24-8.9,14.53-8.39S.06,46.88.34,47.37s14.73-9.15,15-8.66S0,49.09.28,49.62s14.27-8.87,14.54-8.4S0,50.81.32,51.38,15.37,42,15.68,42.51s-14.37,8-14.12,8.41,13.56-8.55,13.87-8S.55,52.69.88,53.26s13.39-8.54,13.74-7.93c.25.44-14.29,8.54-14,9s13.57-8.65,13.92-8c.25.42-13.92,7.51-13.66,8S14.63,45.54,15,46.1.69,53.78,1,54.32s13.51-8.51,13.81-8S.28,55.62.57,56.12s14.32-9,14.63-8.44S1.6,56.53,1.91,57.06,14.63,48.94,15,49.52.23,57.57.55,58.13,14.25,49.41,14.6,50,3.42,58.11,3.66,58.53s11.82-7.36,12.05-7-9,6.81-8.8,7.19,7.19-4.57,7.37-4.26S8.68,58.76,8.82,59s5.75-3.65,5.89-3.4-5.48,3.06-5.38,3.24,5.75-3.64,5.88-3.4-2.71,3.1-2.63,3.24,2.51-1.66,2.6-1.5.38,1.81.41,1.86.25-.15.25-.14" transform="translate(0 1.72)"/><path class="cls-2" d="M96.76.73s.38-.24.39-.22S97,1.78,97,1.83s1.15-.86,1.23-.72-1.57,1.38-1.54,1.44S99.2.86,99.3,1,94.86,3.77,95,3.94s4.27-2.77,4.4-2.54S94.88,4.48,95,4.64c.18.31,6.56-4.17,6.72-3.89S93.41,5.7,93.56,6s8-5.1,8.22-4.75S93.25,7.26,93.44,7.6,104.83.37,105.12.86,89.6,11.08,90,11.7,107.6.52,108,1.27,89.61,12,90,12.74,109.74.31,110.19,1.09s-22.36,13-21.93,13.75c.56,1,23.77-15,24.31-14S87.17,14.6,87.69,15.5,111.92.43,112.39,1.24" transform="translate(0 1.72)"/><path class="cls-2" d="M59.91.61s.18-.11.19-.1.14.61.15.64S61.34.47,61.36.5s-1,.89-.93.93S62,.44,62,.5,62,2.71,62,2.77s2.17-1.43,2.25-1.29-.85,1.82-.82,1.88c.14.23,3.72-2.46,3.85-2.23S62.91,5.07,63,5.23,69.59,1,69.76,1.33,64.91,5.05,65,5.26,73,.17,73.18.55,64.09,7,64.27,7.26,74.52.77,74.77,1.2s-9.09,5.35-8.88,5.71S76.39.2,76.67.68,66,8.54,66.28,9,76.93,2.16,77.21,2.64c.19.32-9.9,7.13-9.69,7.49S77.72,3.59,78,4.07c.18.32-10.16,6.1-10,6.44S78.56,3.8,78.84,4.27,68,11,68.29,11.47,79.51,4.32,79.8,4.82,68,12.58,68.17,13s11.1-7.07,11.39-6.58-10.49,5.87-10.28,6.23S79,6.43,79.21,6.88s-9.8,6.43-9.61,6.76S79.76,7.23,80,7.64s-10.47,7.53-10.24,7.93S80.33,8.89,80.58,9.32,70.31,15.64,70.52,16,81.73,9,82,9.39s-11.43,7.49-11.17,7.94S82.51,10,82.75,10.44,70.88,17,71.09,17.37,83,10,83.18,10.39s-11.77,6.74-11.52,7.19,11.3-7,11.53-6.66-12,6.52-11.69,7,11.78-7.47,12.07-7-10.52,6.91-10.31,7.29,10.92-7,11.21-6.47-12.18,6.62-12,7,11.3-7.14,11.56-6.68-11.72,7.75-11.44,8.22,10.89-6.95,11.17-6.45-10.59,7.63-10.37,8,12.09-7.58,12.35-7.13-12.25,6.67-12,7.08S85.29,14.57,85.55,15,74.78,21.33,75,21.68s11.15-7,11.39-6.57-10.67,7.18-10.43,7.6C76.7,24,112.12-.23,113,1.31c.71,1.23-38.36,21-37.56,22.38S112.6.53,113.34,1.82s-37.82,20.69-37,22C77.16,25.36,111,2.07,111.71,3.39S76.38,23.83,77.13,25.13,110,4.55,110.69,5.75,76.43,24.25,77.16,25.51,109.84,5.09,110.51,6.26,76.71,25.2,77.37,26.34,108.7,6.85,109.31,7.9,76.17,26.06,76.8,27.16s32-19.86,32.56-18.8-31.54,18.1-31,19.06S106.25,9.67,107,10.91C107.59,12,78.16,28,78.76,29S104.42,12.86,105,13.88,79.9,29.44,80.41,30.33s22.37-14.25,23-13.25S80.19,29.85,80.59,30.55s21.53-13.52,22-12.71S79,31.54,79.45,32.31s22.84-14.19,23.27-13.43-22.85,13.25-22.41,14,20.41-12.7,20.81-12S79.85,34.13,80.31,34.93s19-11.84,19.35-11.17S79.07,35.47,79.44,36.11s18.79-11.67,19.15-11S79,37.7,79.37,38.36s16.19-10,16.49-9.52S79.05,39.48,79.42,40.12s15.2-9.5,15.51-9-14.52,8.05-14.27,8.5,13.55-8.54,13.86-8S79.65,41.43,80,42s13.38-8.54,13.73-7.93c.25.44-14.28,8.54-14,9s13.56-8.65,13.91-8c.24.41-13.92,7.5-13.65,7.95S93.72,34.29,94,34.85s-14.25,7.67-13.93,8.21,13.49-8.51,13.8-8-14.53,9.27-14.24,9.77,14.31-9,14.62-8.44S80.7,45.27,81,45.8s12.71-8.12,13-7.53-14.73,8-14.41,8.6,13.69-8.72,14-8.11S80,48.2,80.27,48.71s14.25-8.87,14.53-8.39S79.51,50.45,79.86,51.06s13.22-8.31,13.51-7.8-14.25,8.8-13.92,9.37,14-8.83,14.35-8.29-14.35,7.79-14.08,8.27,14.27-9,14.58-8.42S79.64,53.57,80,54.17s13.92-8.87,14.28-8.25-13.81,9.53-13.54,10,12.34-7.84,12.65-7.3-13.13,7.57-12.83,8.09,12.76-8,13-7.53S80.72,57,81,57.52s12-7.61,12.26-7.08S80.73,58.09,81,58.53s12.32-7.74,12.6-7.27-10,6.83-9.81,7.24,10.14-6.5,10.42-6c.14.24-6.4,5.47-6.27,5.7s6.19-4,6.35-3.67-3.86,3.78-3.76,4,3.66-2.39,3.78-2.19S90.75,58.91,90.82,59s2.48-1.6,2.56-1.47.77,1.44.8,1.49.75-.47.77-.44-.26.42-.25.44.24-.15.25-.14" transform="translate(0 1.72)"/><path class="cls-3" d="M120.06,1.75l1.68-1s-2.4,1.92-2.39,2,2.45-1.44,2.46-1.42-1.29,1.27-1.28,1.29,2.6-1.51,2.6-1.5-3.47,2.52-3.45,2.55,3.19-1.86,3.2-1.84-3.7,2.65-3.68,2.69S125.67.7,125.69.75s-5.65,3.74-5.61,3.8S126.67.67,126.7.72,120,5,120.08,5.11s6.89-4.06,6.92-4-5.42,3.63-5.39,3.68,5.63-3.34,5.67-3.27-8.18,5.18-8.13,5.27,9.33-5.5,9.38-5.42-8.41,5.3-8.36,5.38,9.34-5.51,9.39-5.42S119.14,7.78,119.2,7.88,130,1.52,130,1.62s-8.28,5.24-8.24,5.32,4.91-2.9,4.94-2.85-6.94,4.49-6.9,4.56,12.39-7.31,12.46-7.2S122,7.84,122,7.94s11.49-6.75,11.55-6.66S119.39,9.84,119.48,10s15.31-9,15.39-8.89S121.31,9.3,121.39,9.43s13.69-8.1,13.78-7.95S119.53,10.86,119.62,11,137,.79,137.05,1s-15.69,9.42-15.6,9.58S139.17.08,139.26.25,125.7,8.46,125.78,8.59s12.67-7.45,12.73-7.34-18.5,11-18.39,11.18,20.7-12.2,20.8-12-21.15,12.48-21,12.69S141.75.23,141.86.43,119.54,13.57,119.67,13.8,142.18.52,142.3.73,128.9,8.85,129,9s12.39-7.32,12.46-7.2-16.34,9.77-16.24,9.93,12.27-7.26,12.34-7.13-18.07,10.77-18,11S144.16,1,144.3,1.26,133,8.19,133.05,8.31,143,2.45,143,2.55s-16.61,9.92-16.51,10.09S143,2.9,143.1,3.07s-22.57,13.28-22.44,13.51S147.09,1,147.24,1.23,120.7,16.77,120.86,17,148,1,148.12,1.3s-17.13,10.22-17,10.39S147.53,2,147.62,2.15s-15.05,9-15,9.2,10.49-6.22,10.56-6.1-10.38,6.42-10.32,6.53S144.43,5,144.5,5.08s-16.79,10-16.69,10.2,15.82-9.36,15.92-9.19-22.54,13.26-22.41,13.49S152.77,1,153,1.31s-33.71,19.57-33.52,19.91S153.53,1.09,153.72,1.43s-32.1,18.67-31.92,19S143.86,7.4,144,7.62s-22.82,13.44-22.69,13.67S156.75.34,157,.7s-35.74,20.72-35.53,21.08S157.7.35,157.91.72,120.11,22.6,120.33,23,145.89,7.91,146,8.15,119.35,23.76,119.5,24,158,1.34,158.17,1.7s-37.61,21.79-37.39,22.16S157.4,2.24,157.61,2.6,124.26,22,124.45,22.32c.09.15,15.59-9.2,15.67-9s-16.82,10-16.72,10.2S141.22,13,141.32,13.13s-20.89,12.35-20.77,12.56,36.8-21.73,37-21.37-36.69,21.25-36.48,21.62S158,4.14,158.21,4.5s-37.53,21.74-37.32,22.12S156.75,5.43,157,5.79,119.26,27.61,119.48,28,157.59,5.5,157.8,5.87c.12.21-21.61,12.74-21.49,13s17.86-10.56,18-10.37-27.31,16-27.16,16.26,21.24-12.53,21.35-12.33S121.65,28.06,121.8,28.33s20.34-12,20.45-11.81-21.67,12.78-21.54,13S142,17,142.09,17.17s-22,13-21.87,13.19c.21.37,36.81-21.73,37-21.36s-27.77,16.23-27.61,16.51,17.69-10.42,17.78-10.27S124.87,28.52,125,28.74s17.47-10.32,17.57-10.15S123.72,29.8,123.83,30s16.1-9.53,16.2-9.36-19.91,11.8-19.8,12c.21.36,36.41-21.51,36.62-21.15s-24.16,14.18-24,14.43,20.39-12,20.5-11.84-21.07,12.44-21,12.65,14.16-8.36,14.24-8.22-22.2,13.07-22.07,13.3,25-14.73,25.09-14.49-30.14,17.56-30,17.86,38.65-22.8,38.86-22.43S119.8,35.13,120,35.52,157.09,13.64,157.3,14s-22.73,13.39-22.6,13.62S151.09,18,151.18,18.1s-17.12,10.22-17,10.39,15.39-9.1,15.48-8.94-29.58,17.24-29.41,17.53,30.81-18.17,31-17.88-30.35,17.68-30.17,18,35.61-21,35.82-20.68-27.43,16-27.27,16.31,25.74-15.18,25.88-14.94-35.3,20.48-35.09,20.83S145.89,23.65,146,23.89s-24.88,14.6-24.74,14.85S157,17.64,157.22,18,120.1,39.51,120.31,39.88s38.27-22.58,38.48-22.22S121.73,39.13,122,39.5s36.3-21.44,36.51-21.08-36.94,21.39-36.73,21.76,35.42-20.92,35.62-20.56S122.64,39.75,122.84,40.1s31.69-18.71,31.87-18.4-32.48,18.89-32.29,19.21,35.25-20.82,35.45-20.47-25.23,14.8-25.08,15.06,17.55-10.35,17.65-10.19-27.85,16.27-27.69,16.55,34.6-20.45,34.8-20.09-21.24,12.55-21.12,12.76,18.8-11.06,18.89-10.9S136.26,35,136.37,35.14s16.52-9.73,16.6-9.59-23.46,13.8-23.33,14,18.07-10.67,18.18-10.49S122,44.22,122.14,44.48s35.94-21.21,36.14-20.87S121.83,44.74,122,45.1s34.54-20.4,34.74-20-34.84,20.22-34.63,20.56,34.21-20.21,34.41-19.86c.11.19-19.51,11.56-19.4,11.75s20.5-12.09,20.61-11.9S125.4,44.42,125.59,44.74s26.94-15.91,27.09-15.64-28.57,16.69-28.41,17,34-20.07,34.19-19.73-35.59,20.62-35.38,21,35.24-20.79,35.44-20.46S139.79,38,139.9,38.17s13.2-7.8,13.28-7.67-27.18,15.88-27,16.15,27.92-16.47,28.07-16.21-27.57,16.11-27.41,16.38,14.65-8.63,14.73-8.5-17.2,10.26-17.1,10.44S156.78,29.66,157,30s-26.16,15.31-26,15.57,20.27-11.94,20.37-11.76-21.91,12.93-21.78,13.15,13.78-8.12,13.85-8-13.74,8.32-13.66,8.45,12.18-7.19,12.25-7.07-14.61,8.8-14.52,9,18.25-10.77,18.35-10.59-7,4.51-7,4.58,18.65-11,18.75-10.83-25.65,15-25.5,15.29,17-10,17.12-9.88S127.27,50.79,127.4,51s31-18.32,31.2-18S129.79,49.81,130,50.1s18.46-10.9,18.56-10.72-22,13-21.84,13.18,30.94-18.27,31.12-18-30.16,17.57-30,17.87,28.81-17,29-16.73-21,12.43-20.92,12.64,13.35-7.87,13.42-7.74-15.92,9.53-15.83,9.69,15.08-8.87,15.15-8.75-19.83,11.75-19.72,12S158,36.37,158.12,36.65s-30,17.47-29.8,17.77,29.88-17.63,30-17.35S127.72,54.91,127.9,55.22s29.82-17.59,30-17.31-27.62,16.14-27.46,16.42,27.26-16.1,27.41-15.83S129.57,55,129.74,55.28s19.33-11.4,19.43-11.22-17.82,10.6-17.72,10.78,11.49-6.78,11.56-6.67S130.29,55.91,130.36,56s26.06-15.38,26.21-15.13S130.13,56.4,130.28,56.66,156,41.48,156.15,41.73,130.4,56.81,130.54,57.07s26.14-15.42,26.28-15.17S139.85,52,140,52.2s12.24-7.21,12.3-7.1-15.88,9.53-15.79,9.69S148,48,148,48.1s-13.65,8.26-13.57,8.4,10.38-6.14,10.45-6S134.36,57,134.43,57.08s12-7.06,12-6.95-11.79,7.2-11.72,7.32S155,45.51,155.08,45.71s-16.29,9.75-16.19,9.92,11-6.47,11-6.37-16.08,9.64-16,9.8,20.3-12,20.41-11.79-19.92,11.79-19.8,12,20.19-11.89,20.29-11.72-16.6,9.92-16.5,10.09,13.94-8.25,14-8.1-15.1,9.07-15,9.22,9.87-5.8,9.91-5.72-10.65,6.58-10.59,6.69,14.06-8.3,14.14-8.17-9,5.61-8.91,5.7,7.62-4.49,7.66-4.42-11.07,6.8-11,6.92,9.29-5.47,9.34-5.4-7.27,4.65-7.22,4.72,7.53-4.44,7.57-4.37" transform="translate(0 1.72)"/><g class="cls-4"><polyline class="cls-5" points="134.86 0.56 135.2 0.37 134.86 0.76 135.53 0.37 134.86 1.2 136.31 0.36 134.86 2.43 138.46 0.35 134.86 3.67 140.61 0.35 134.86 4.98 142.89 0.34 134.86 6.03 143.19 1.21 134.86 7.3 143.19 2.49 134.86 8.92 143.19 4.11 134.86 9.75 143.19 4.94 134.86 9.98 143.19 5.17 134.86 11 143.19 6.19 134.86 11.13 143.19 6.32 134.86 12.82 143.19 8.01 134.86 12.99 143.19 8.18 134.86 13.03 143.19 8.22 134.86 13.5 143.19 8.69 134.86 14.19 143.19 9.38 134.86 15.78 143.19 10.97 134.86 15.87 143.19 11.05 134.86 16.54 143.19 11.72 134.86 17.05 143.2 12.23 134.86 18.21 143.2 13.39 134.86 18.68 143.2 13.87 134.86 19.77 143.2 14.96 134.86 21.39 143.2 16.58 134.86 22.58 143.2 17.77 134.86 23.31 143.2 18.5 134.86 24.05 143.2 19.23 134.86 24.89 143.2 20.08 134.86 26.52 143.2 21.7 134.86 27.01 143.2 22.2 134.86 28.74 143.2 23.92 134.86 28.77 143.2 23.95 134.86 29.48 143.2 24.66 134.86 30.97 143.2 26.15 134.86 31.84 143.2 27.02 134.86 33.57 143.2 28.76 134.86 35.3 143.2 30.48 134.86 35.38 143.2 30.56 134.86 35.69 143.2 30.88 134.86 36.12 143.21 31.3 134.86 36.5 143.21 31.68 134.86 37.43 143.21 32.62 134.86 38.13 143.21 33.31 134.86 39.41 143.21 34.59 134.86 39.99 143.21 35.18 134.86 40.63 143.21 35.81 134.86 42.32 143.21 37.5 134.86 43.45 143.21 38.63 134.86 45.18 143.21 40.36 134.86 46.41 143.21 41.59 134.86 47.67 143.21 42.84 134.86 48.9 143.21 44.08 134.86 49.2 143.21 44.38 134.86 49.84 143.21 45.02 134.86 50.97 143.21 46.15 134.86 51.49 143.21 46.67 134.86 52.17 143.21 47.35 134.86 53.28 143.21 48.46 134.86 54.33 143.21 49.51 134.86 55.31 143.21 50.49 134.86 55.48 143.21 50.66 134.86 56.98 143.21 52.16 134.86 58.55 143.22 53.72 134.86 59.81 143.22 54.98 134.86 60.04 143.22 55.22 134.86 60.83 143.22 56 134.86 62.17 143.22 57.35 134.86 62.2 143.22 57.37 134.86 62.41 143.22 57.59 134.86 63.52 143.22 58.69 134.86 63.63 143.22 58.8 134.86 64.18 143.22 59.36 137.08 64.33 143.22 60.79 139.47 64.32 143.22 62.16 139.56 64.32 143.22 62.21 139.87 64.32 143.22 62.39 140.33 64.32 143.22 62.65 141.92 64.31 143.22 63.56 142.88 64.31 143.22 64.11"/><polyline class="cls-6" points="116.86 25.34 117.14 25.17 116.86 25.5 117.42 25.17 116.86 25.87 118.07 25.17 116.86 26.9 119.85 25.17 116.86 27.93 121.64 25.17 116.86 29.02 123.52 25.17 116.86 29.89 125.04 25.17 116.86 30.95 126.88 25.17 116.86 32.3 129.22 25.16 116.86 32.99 130.42 25.16 116.86 33.19 130.76 25.16 117.73 33.53 132.23 25.16 117.92 33.53 132.42 25.16 120.36 33.53 134.87 25.16 120.61 33.53 135.11 25.16 120.68 33.53 135.18 25.16 121.35 33.53 135.85 25.16 122.35 33.53 136.85 25.16 124.65 33.53 139.15 25.16 124.78 33.53 139.28 25.16 125.75 33.53 140.24 25.16 126.48 33.53 140.98 25.16 128.16 33.53 142.66 25.16 128.85 33.53 143.35 25.16 130.42 33.52 144.92 25.15 132.77 33.52 147.27 25.15 134.49 33.52 148.98 25.15 135.54 33.52 150.04 25.15 136.61 33.52 151.11 25.15 137.83 33.52 152.33 25.15 140.18 33.52 154.68 25.15 140.89 33.52 155.39 25.15 143.38 33.52 157.88 25.14 143.43 33.52 157.93 25.14 144.46 33.52 158.95 25.14 146.61 33.51 161.11 25.14 147.87 33.51 161.19 25.82 150.38 33.51 161.2 27.26 152.87 33.51 161.2 28.7 152.99 33.51 161.2 28.77 153.44 33.51 161.2 29.03 154.05 33.51 161.21 29.38 154.61 33.51 161.21 29.7 155.96 33.51 161.21 30.48 156.96 33.51 161.21 31.05 158.82 33.51 161.22 32.12 159.67 33.51 161.22 32.61 160.59 33.5 161.22 33.14 160.94 33.5 161.22 33.34"/></g></g></g></svg>