<svg xmlns="http://www.w3.org/2000/svg" viewBox="0 0 138.04 179.13"><defs><style>.cls-1{fill:#006ac6;}.cls-2{fill:none;stroke:#fff;stroke-miterlimit:10;stroke-width:3px;}.cls-3,.cls-4,.cls-5{fill:#fff;}.cls-4{font-size:60.41px;}.cls-4,.cls-5{font-family:BigJohn, Big John;}.cls-5{font-size:60px;}</style></defs><g id="Calque_2" data-name="Calque 2"><g id="Calque_1-2" data-name="Calque 1"><path class="cls-1" d="M69.25,179.06c77.41-23.06,68.47-89.65,68.47-89.65V7.76C128.54,3.76,69,0,69,0h0S9.49,3.76.31,7.76V89.41S-8.63,156,68.79,179.06l.24.07Z"/><path class="cls-1" d="M69.25,179.06c77.41-23.06,68.47-89.65,68.47-89.65V7.76C128.54,3.76,69,0,69,0h0S9.49,3.76.31,7.76V89.41S-8.63,156,68.79,179.06l.24.07Z"/><path class="cls-2" d="M69.23,172c71.26-21.23,63-82.53,63-82.53V14.27C123.81,10.58,69,7.12,69,7.12h0s-54.8,3.46-63.25,7.15V89.42s-8.23,61.3,63,82.53L69,172Z"/><path class="cls-3" d="M71.52,171.27h-5V7.69c0-1,.39-1.76.88-1.76l1.46-.3a.86.86,0,0,1,.32,0l1.46.3c.48,0,.88.79.88,1.76Z"/><rect class="cls-3" x="66.52" y="25.96" width="5" height="127.21" transform="translate(-20.55 158.58) rotate(-90)"/><path id="LYS" class="cls-3" d="M55.56,118.51A5,5,0,0,0,50,116.07a7.05,7.05,0,0,0-4.72,3.16,16,16,0,0,0-2,5.61c-.09.53-.18,1.07-.26,1.62H41.32a3.56,3.56,0,0,0,0-.7,2.07,2.07,0,0,1,0-.5c.64-2.57,1.27-5.14,1.94-7.71.55-2.12,1.21-4.23,1.69-6.37a4.51,4.51,0,0,0-.16-2.3,37.93,37.93,0,0,0-2-4.7,23.42,23.42,0,0,0-2-2.9,17.45,17.45,0,0,0-3.72,5.13,10.45,10.45,0,0,0-1.25,4.79,10.27,10.27,0,0,0,.17,1.24,8.94,8.94,0,0,0,.27,1.72c.78,2.09,1.65,4.16,2.45,6.25a13.63,13.63,0,0,1,.8,5.48,1.15,1.15,0,0,0,.09.57h-2a3.22,3.22,0,0,0,.1-.91,38.44,38.44,0,0,0-.62-4.15,7.34,7.34,0,0,0-1.11-2.6,8.42,8.42,0,0,0-2-1.7,5.43,5.43,0,0,0-4.63-.79,4.68,4.68,0,0,0-3.29,5.32,3.89,3.89,0,0,0,5.54,2.68.23.23,0,0,0-.08-.11,2.36,2.36,0,0,1-.88-3.68,3,3,0,0,1,3.59-.34,5.35,5.35,0,0,1,2.22,4.36v1.92H34.27v1.79h5.3a1.51,1.51,0,0,0-.1.28,4.92,4.92,0,0,1-1.87,2.71,3.48,3.48,0,0,1-2.9.78c.27,1.58,1.58,1.84,3.46.72a7.75,7.75,0,0,0,2.51,5.34q1.35-2.48,2.66-4.89a2.17,2.17,0,0,0,3.05-.46,1.32,1.32,0,0,0,.13-.5c-.17,0-.38-.07-.5,0a1.55,1.55,0,0,1-1.62,0A4.57,4.57,0,0,1,42.25,130c-.24-.57-.44-1.15-.65-1.72,1.64,0,3.28,0,4.92,0,.68,0,.78-.26.76-.84s0-1-.8-1H44.34a12.83,12.83,0,0,1,1.55-4.57,4.63,4.63,0,0,1,2.92-2.34,2,2,0,0,1,1.87.53,1.68,1.68,0,0,1,0,2,15.84,15.84,0,0,1-1.87,1.54,4.64,4.64,0,0,0,4.47.72A4.32,4.32,0,0,0,55.56,118.51Z"/><path id="BLE" class="cls-3" d="M93,101.56l4,3.11.73-5.08h.89l.69,5.06,4.12-3c1.38,3.05-1.59,7.38,3.15,9.35l.56-4.86.88,0,.73,5.1c1.47-1.09,2.69-2,4.48-3.31V112c0,4.45.07,8.9-.09,13.33,0,1.16-.52,2.78-1.37,3.35a7.16,7.16,0,0,0-3.43,7.53,6.41,6.41,0,0,1-.35,2h-.82a35,35,0,0,1-.27-3.81c.06-1.76-.1-3.39-1.83-4.3-2.76-1.46-3.12-4-2.89-6.9-5,1.47-2.31,5.81-3.82,8.9-2.16-2.83.93-7.37-3.84-8.81a11.13,11.13,0,0,1-.22,2.54c-.34,1.08-.65,2.51-1.47,3a6.77,6.77,0,0,0-3.35,7.26,7.94,7.94,0,0,1-.25,2.08l-.82.12a13.15,13.15,0,0,1-.4-3.08c.23-2.52-.36-4.53-2.69-5.86-1.6-.91-2.11-2.33-2.08-4.19.11-5.55,0-11.09,0-17.27l4.29,3.17.75-5h.88l.55,4.61C92.15,110,92.15,110,93,101.56Zm14,27.82c.59-3.89.11-4.74-3.29-6C103,126.24,104.15,128.07,107,129.38Zm-22.11-6.29c-.47,3.84.24,5,3.31,5.87C89.08,126,87.56,124.39,84.89,123.09Zm12.65-6.29c1.07-3-.48-4.68-3-5.91C93.66,114.21,94.13,115.13,97.54,116.8Zm6.45-5.36c-.91,3.35-.47,4.2,3,6C108.05,114.35,106.55,112.67,104,111.44Zm3,11.88c1-3.18-.43-4.84-3.09-5.92C103.14,120.82,103.55,121.61,107,123.32Zm-21.9-11.95c-.89,3.32-.23,4.56,3,5.9C89.09,114.3,87.53,112.66,85.12,111.37Zm9.42,5.49c-.88,3.35-.19,4.61,3.06,5.74C98.56,119.63,97.14,118,94.54,116.86ZM88,123.44c.75-3.79.21-4.76-3.09-5.88C84,120.42,85.52,122,88,123.44ZM97.52,111c1-3.1-.4-4.75-2.89-6C93.66,108.19,94.07,109.06,97.52,111Zm14.1,6.18c-3.69,2.45-3.91,3-2.75,6.16C111.39,122.06,112.59,120.23,111.62,117.16Zm0,6.14c-3.47,1.51-4,2.63-2.8,5.92C111.38,128,112.59,126.18,111.66,123.3Zm-19-.17c-2.66,1.44-4.06,3.13-3,6.13C92.49,128.11,93.61,126.28,92.7,123.13Zm9.47-12.26c-3.63,2.08-3.91,2.69-2.75,6C101.71,115.59,103.15,113.91,102.17,110.87Zm-3,.09c3.48-2,3.92-3,2.74-5.94C99.44,106.21,98.25,108,99.12,111ZM89.7,123.25c3.32-1.61,3.69-2.35,2.9-5.83C90,118.58,88.72,120.33,89.7,123.25Zm9.43-.36c2.64-1.36,4-3,3-6.08C99.36,117.86,98.3,119.7,99.13,122.89Zm9.46-5.32c2.61-1.41,4.06-3.11,3-6.17C108.83,112.53,107.65,114.36,108.59,117.57Zm-15.92-6.11c-3.67,2.33-3.77,2.55-2.75,6C92.28,116.18,93.71,114.52,92.67,111.46Z"/><text class="cls-4" transform="translate(13.67 72.95) scale(0.76 1)">M</text><text class="cls-5" transform="translate(81.35 72.62)">B</text></g></g></svg>