<svg xmlns="http://www.w3.org/2000/svg" viewBox="0 0 160.08 85.54"><defs><style>.cls-1{fill:#df4571;}</style></defs><g id="Calque_2" data-name="Calque 2"><g id="Layer_1" data-name="Layer 1"><path class="cls-1" d="M160.08,2.21c-24.22,0-38.58,2.56-47,6.18L113.15,0S92.3,5.4,80,0C67.67,5.4,46.82,0,46.82,0l.09,8.34C38.45,4.75,24.12,2.21,0,2.21.48,9.83,9.19,13,14.61,18a37.53,37.53,0,0,1-8.27-4.44c1.38,7.74,7.92,9.6,13.72,13.59a24.82,24.82,0,0,1-7.87-2.85c2.14,7.63,7.47,9.84,14.7,14a33.19,33.19,0,0,1-8-2.49c4,7.59,9.39,8.37,17.32,10.82a61.49,61.49,0,0,1-10.13-1.49c5,7.64,10,6.83,17.47,8.1a62,62,0,0,1-10.22-.13C38.5,59.53,41.19,58.88,47,60a42.85,42.85,0,0,1-5.54.06,20.72,20.72,0,0,0,9.37,3.7c.24.54.49,1.06.75,1.59.36-.09.81-.2,1.34-.28l.7-.14c-.39-.75-.77-1.52-1.12-2.3A39.91,39.91,0,0,1,49.35,51c-.12-1-.19-2-.22-3s0-2-.06-3L49,39l-.2-11.93-.24-11.93q-.12-6-.26-11.92l0-1.33,1.33.32h0c.59.18,1.22.35,1.83.52s1.25.31,1.87.45c1.25.29,2.52.54,3.78.76s2.55.4,3.82.56,2.56.25,3.85.33a45.91,45.91,0,0,0,7.69-.17c.64-.06,1.27-.16,1.9-.27s1.26-.24,1.88-.39,1.23-.32,1.84-.52,1.18-.41,1.79-.67L80,2.74l.18.07A22.6,22.6,0,0,0,83.81,4q.93.23,1.89.39c.63.1,1.27.2,1.91.27a47.75,47.75,0,0,0,7.75.16c1.29-.08,2.59-.18,3.87-.34s2.57-.34,3.85-.55,2.55-.47,3.81-.76l1.89-.45c.62-.17,1.25-.34,1.85-.52h0L112,1.9l0,1.32q-.15,6-.27,11.92l-.24,11.93L111.22,39l-.1,6c0,1,0,2-.06,3s-.1,2-.22,3a39.91,39.91,0,0,1-3.17,11.64,40.62,40.62,0,0,1-2.37,4.53l1.09-.18c.49-.07.92-.16,1.27-.24.52-1,1-2,1.45-3a20.85,20.85,0,0,0,9.49-3.72,42.85,42.85,0,0,1-5.54-.06c5.83-1.11,8.52-.46,13.71-6.94a62,62,0,0,1-10.22.13c7.51-1.27,12.49-.46,17.47-8.1a61.49,61.49,0,0,1-10.13,1.49c7.93-2.45,13.35-3.23,17.32-10.82a33.19,33.19,0,0,1-8,2.49c7.23-4.14,12.56-6.35,14.7-14A24.82,24.82,0,0,1,140,27.11c5.8-4,12.34-5.85,13.72-13.59A37.53,37.53,0,0,1,145.47,18C150.89,13,159.6,9.83,160.08,2.21ZM17.57,7.88C14,7,12.19,5.61,4.33,4.37c0,0,12,.23,16.78,1.85C21.11,6.22,21.19,8.8,17.57,7.88Zm124.94,0C138.89,8.8,139,6.22,139,6.22c4.77-1.62,16.78-1.85,16.78-1.85C147.89,5.61,146.12,7,142.51,7.88Z"/><path class="cls-1" d="M87.45,82.08q-.66.19-1.32.36a26.69,26.69,0,0,1-12.06,0,26.86,26.86,0,0,1-5.71-2.06c-.56-.28-1.1-.58-1.63-.9-.68,0-1.35-.08-2-.1s-1.49,0-2.2,0a27.66,27.66,0,0,0,29.93,3.24l-1.37-.1C89.9,82.36,88.68,82.23,87.45,82.08Z"/><path class="cls-1" d="M69.68,79.72l-.32,0a26.82,26.82,0,0,0,4.94,1.74,26.34,26.34,0,0,0,5.8.68,25.56,25.56,0,0,0,4.44-.41c-1.38-.18-2.77-.38-4.16-.58C76.74,80.59,73.11,80.06,69.68,79.72Z"/><path class="cls-1" d="M96.72,25.75s-2.44.07-2.92-.93C93.8,24.82,92.79,26.59,96.72,25.75Z"/><path class="cls-1" d="M91.82,22.47s-2.2.66-3,.09C88.81,22.56,89,24.45,91.82,22.47Z"/><path class="cls-1" d="M65.39,60.25a33,33,0,0,1,1.14-3.43A3.4,3.4,0,0,0,65.39,60.25Z"/><path class="cls-1" d="M55.81,64.59c.55-.07,1.15-.12,1.77-.19l2-.13c.69,0,1.4-.06,2.15-.06s1.51,0,2.3,0c1.58,0,3.24.14,5,.29,2.18.19,4.44.46,6.73.77-1-1-1.28-.6-1.15-1.47a6.14,6.14,0,0,1,2.68-4c1.18-1,3.8-3.27,4.66-4.15s.37-.76-.39-1.82-3.35.52-4.35-1.09-3.31-5.69-6.49-6.19S67.24,51.07,67,52.91a11.32,11.32,0,0,0,.18,2.64,1.4,1.4,0,0,1-.63,1c1.53.18,1.76,1,1.79,3.2S67,62.47,66.24,62.16s-.76-1.39-1.21-1.88a2.6,2.6,0,0,1-.49-1.73,7.94,7.94,0,0,0-.85-2.87c-.53-.91-.25-1.18.72-3.13a18,18,0,0,0,1.89-6.82c0-1.53,1.22-2.23,2.94-2.17s3.49-.65,4.46,0a9,9,0,0,0,3.51,1c.89.15.19-.55,1-3.12s1.56-2.28,2.32-3.55a4.26,4.26,0,0,0,0-4.14A1.85,1.85,0,0,0,77.68,33c-1.07,1.12-2.52,1.64-4.78,2.57s-2.25.9-2.94,2.22-2.91.66-4,.49-1.1-2-.86-2.72-.6-1.71.84-3.44a37.77,37.77,0,0,0,5.51-8.74c0-.16.12-.31.18-.46L60.17,14l13,6.78.16-.17a2.31,2.31,0,0,1-.74-1.68c.06-1.06.14-1.14-.2-1.64s-.15-1,.45-.61,2.18,1.62,2.42,2.65a7.38,7.38,0,0,1,1.42-.46c.29-.71,1.26-2.81,2.54-3,1.54-.27-.18.87.5,1.52.27.25.24.79.1,1.36.32,0,.65.08,1,.14a5.71,5.71,0,0,1,1.48.49,22.67,22.67,0,0,0,4.67-1.45A4.64,4.64,0,0,1,90,17a5.59,5.59,0,0,0-2.27,1.09,4.93,4.93,0,0,1-2.2,1.9s.19.28,1,.06,2.38-.79,3,.32-.58,1.27.59,1.56,3.72-.9,4.78-1.53,3.16-.69,3.65.26c0,0-1-1-2.74-.11-.77.4-2.29,2.06-3.78,2.6a2.89,2.89,0,0,0,1.71-.41c1.28-.9,4.63-2.59,5.25.71,0,0-.82-1.58-2.1-1.28-.79.17-1.56,1.22-2.4,1.88a1.36,1.36,0,0,0,1.06,1c1.06.24,3.83.31,5.36,1.4a5.51,5.51,0,0,0-2.71-.09,3.25,3.25,0,0,1-2.43.17,4.65,4.65,0,0,0,1.35,1A14.57,14.57,0,0,0,102.2,29s-1.8,1.66-5.32.45c2.09,1.16,3.65,2.44,5.39,1.81,3.1-1.11,3.73-2.09,4.1-3.22,0,0-.83,3.77-2.89,4.93a9.86,9.86,0,0,0,3.27-2.15,4.94,4.94,0,0,1,3.11-1.2V15.13c0-3.56,0-7.12,0-10.68l-.69.12-2,.31c-1.3.2-2.61.38-3.92.52s-2.62.28-3.94.37-2.63.16-3.95.19a54.93,54.93,0,0,1-7.9-.37,34.85,34.85,0,0,1-3.91-.71A24.68,24.68,0,0,1,80,3.67c-.54.23-1.11.46-1.68.65s-1.26.39-1.9.55a36.3,36.3,0,0,1-3.88.72A54.1,54.1,0,0,1,64.68,6c-1.31,0-2.62-.1-3.93-.19s-2.6-.22-3.91-.37S54.25,5.08,53,4.88L51,4.57l-.67-.12q0,5.34,0,10.68V27.05l0,11.93,0,6c0,1,0,2,0,3s.07,1.94.17,2.92a37.31,37.31,0,0,0,3,11.31c.39.88.8,1.74,1.25,2.58Z"/><path class="cls-1" d="M85.89,18.92a20.06,20.06,0,0,1-4,1.29,1.26,1.26,0,0,0,1.74.34C84.61,19.87,83.94,19.82,85.89,18.92Z"/><path class="cls-1" d="M96,29.66c.37.46,2.65,3.19,4.48,3.24a3.08,3.08,0,0,0,2.76-1.17s-1.63,1.63-4.48-.18A21.54,21.54,0,0,1,96,29.66Z"/><path class="cls-1" d="M88.54,58.7c-1.32-1-5.45,1.48-8.34,3.14-2,1.14-1.67.85-2,1.35a2.3,2.3,0,0,0,.15,2.47l1.35.19c3.64.54,7.28,1.07,10.7,1.41,1.71.16,3.37.29,5,.34s3.07.06,4.44,0l2-.1,1.77-.16.35,0c.47-.75.91-1.51,1.33-2.29-.66,0-1.37,0-2.13-.1C98.28,64.61,90.38,60,88.54,58.7Z"/><path class="cls-1" d="M109.84,33.68a9.93,9.93,0,0,1-2.92,1.83,15.18,15.18,0,0,0-3.78,1.87,5.4,5.4,0,0,0,2.93-.19,12.44,12.44,0,0,1,3.76-.74Z"/><path class="cls-1" d="M109.81,42.27a10.64,10.64,0,0,1-2.69-.37c-.91-.28-2.53.38-4,.84a29.36,29.36,0,0,0,6.7,3.27c0-.35,0-.71,0-1.06Z"/><path class="cls-1" d="M107.61,31.39a16.06,16.06,0,0,1-2.53,3.2,11.65,11.65,0,0,1,2-.35,7.31,7.31,0,0,0,2.8-.69l0-3.51A4.25,4.25,0,0,0,107.61,31.39Z"/><path class="cls-1" d="M102.94,38.43s1.22,1.21,3.6-.36C106.54,38.07,103.81,38.81,102.94,38.43Z"/><path class="cls-1" d="M109.83,38.06a3.17,3.17,0,0,0-1.1.2A25.39,25.39,0,0,0,106,39.72a2.84,2.84,0,0,1,.44.1c1.75.49,2.19,1.3,3.36,1.9V38.06Z"/><path class="cls-1" d="M102.28,37.42a8.36,8.36,0,0,1,2.9-1.92C102.27,36.06,102.28,37.42,102.28,37.42Z"/><path class="cls-1" d="M106.43,67.22c-.39.08-.83.19-1.31.28l-1.56.27c-.55.09-1.15.16-1.78.25s-1.29.11-2,.17c-1.38.07-2.89.13-4.49.11s-3.27-.08-5-.22-3.51-.32-5.31-.55l-5.44-.75c-1.82-.28-3.63-.54-5.41-.79s-3.54-.48-5.24-.65S65.55,65,64,64.92c-.78,0-1.54-.06-2.28-.09s-1.44,0-2.13,0l-2,.07-1.76.1-1.56.14c-.48.05-.91.12-1.31.17-.8.1-1.42.22-1.84.29l-.65.1h0a1.69,1.69,0,0,0-1,.66c-3.19-1.19-4.89-.71-4.54.81,0,0,.16.7.41,1.76-.44.13-7.76,2.28-10.81.7,0,0,1.74,4.52,6.4,3.73s-1.79,4.65-3.76,3a11.48,11.48,0,0,0,10.27,1.73c.09.42.16.71.18.81a1.13,1.13,0,0,0,.91.84l.92.06a1.56,1.56,0,0,0,1.66.65h0l.61-.17c.41-.11,1-.32,1.81-.48l1.31-.28,1.56-.27c.55-.09,1.15-.16,1.78-.25s1.29-.11,2-.17c1.39-.07,2.89-.13,4.49-.11s3.27.08,5,.22,3.51.32,5.31.56,3.62.48,5.44.74,3.63.54,5.41.79,3.54.48,5.24.65,3.35.34,4.91.42c.78,0,1.54.06,2.28.09s1.44,0,2.13,0l2-.07,1.77-.1,1.55-.14c.48,0,.91-.12,1.31-.17.8-.1,1.42-.22,1.84-.28l.63-.11h0a1.68,1.68,0,0,0,1.11-.94l2.56-.91a1.2,1.2,0,0,0,.69-1.06v-.84a12,12,0,0,0,9.56-4.49c-1.53,2.17-9-1.34-4.3-1.85s5.37-5.37,5.37-5.37c-2.6,2.37-10.18,2.3-10.63,2.29V66.31c0-1.52-1.64-1.57-4.29.26a1.47,1.47,0,0,0-.75,0h0l-.63.18C107.83,66.85,107.23,67.06,106.43,67.22ZM57.52,75.93l-.27-6.63s-.15-.54-.17-.59l2.29-.1c1.43,0,2.65.43,2.71,2.06s-1.17,2.21-2.52,2.27l-.8,0,.11,2.9Zm9.87-.1-1.93-3.27h-.55l-.07,3.22-1.36,0,.16-6.63s-.11-.56-.13-.61l2.48.06c1.31,0,2.43.53,2.39,2a2.05,2.05,0,0,1-1.58,1.79l2.13,3.48Zm7.15-5.74-3-.26-.18,2,2.32.21-.08,1-2.33-.2-.19,2.24,3,.27-.08,1-4.38-.38.57-6.61-.1-.61,4.53.39Zm13,5.19.22-3.89-.13-.6,1.55.08-.27,4.81a1.5,1.5,0,0,0,1.5,1.68,1.48,1.48,0,0,0,1.68-1.5l.27-4.81,1.11.06-.25,4.48a2.84,2.84,0,1,1-5.68-.31ZM81,77.35l.75-4.84c0-.23.1-.47.16-.69-.12.22-.22.44-.35.66l-2.5,4.58L78.34,77l-1-5.13c0-.25-.09-.5-.13-.74,0,.22,0,.47-.06.71l-.75,4.84-1.07-.16,1-6.55s0-.56,0-.61l1.87.29L79,73.94a8.36,8.36,0,0,1,.1,1.22,9.7,9.7,0,0,1,.44-1.1l2.14-3.91,1.72.27-1.11,7.14Zm4.48.49-1.36-.14.64-6.59s-.07-.57-.07-.62l1.49.15Zm15.24.55v-4.9c0-.24,0-.49,0-.71-.08.23-.15.47-.24.71L98.76,78.4H98l-1.82-4.91c-.08-.24-.15-.48-.23-.71,0,.23,0,.47,0,.71v4.9H95V71.77s-.13-.55-.14-.6h1.9l1.54,4.15a7.12,7.12,0,0,1,.29,1.19,10.16,10.16,0,0,1,.26-1.15l1.51-4.19h1.74v7.22Z"/><path class="cls-1" d="M65.84,69.55l-.85,0,0,2,.63,0c.77,0,1.36-.21,1.38-1A1,1,0,0,0,65.84,69.55Z"/><path class="cls-1" d="M59.56,72a1.09,1.09,0,0,0,1.08-1.25,1.05,1.05,0,0,0-1.17-1.14l-.84,0,.1,2.39Z"/></g></g></svg>