<svg xmlns="http://www.w3.org/2000/svg" viewBox="0 0 403.38 419.22"><defs><style>.cls-1{fill:#3f3f3f;}</style></defs><g id="Calque_2" data-name="Calque 2"><g id="Layer_1" data-name="Layer 1"><path class="cls-1" d="M374.12,99.88c1.51-13.77,29.26-51.36,29.26-51.36s-33.45,32.63-46.88,36l-.74,10.89L336,118.06c-4.07-2.16-2.34-.91-6.9-4.88-7.31-6.38,9.58-17.69,9.58-17.69s-15.67-9.75-35.81,13.36-9.22,38.32-9.22,38.32,8.9-18.29,16.21-11.91c4.56,4,3.09,2.43,5.78,6.16L298,161.71c-55.88-22-96.53-74.27-96.53-74.27S161,139.49,105.27,161.58L87.7,141.42c2.69-3.73,1.22-2.19,5.78-6.16,7.32-6.38,16.21,11.91,16.21,11.91s10.92-15.21-9.22-38.32S64.66,95.49,64.66,95.49s16.89,11.31,9.58,17.69c-4.56,4-2.83,2.72-6.89,4.88L47.62,95.42l-.74-10.89C33.45,81.15,0,48.52,0,48.52S27.75,86.11,29.26,99.88L40,102.11l19.73,22.63c-2.69,3.73-1.22,2.19-5.78,6.16C46.58,137.28,37.69,119,37.69,119S25.88,133.19,46,156.3s36.7,14.37,36.7,14.37S65.82,159.36,73.14,153c4.56-4,2.83-2.72,6.89-4.88L95,165.24c-1.68.53-3.37,1-5.08,1.51,0,85.55,20.13,144,43.28,182.87l.82-.26,4.06-1.19,1.48-.41-.57-.89-2.15-3.65-2.15-3.65c-.72-1.21-1.35-2.48-2-3.72l-2-3.73-1-1.87-.92-1.9L125,320.72,121.68,313l-.84-1.94-.77-2-1.52-4c-2.12-5.23-3.77-10.64-5.61-16L110.55,281l-1.18-4.06-1-4.1-2-8.21c-.61-2.76-1.16-5.52-1.74-8.28-1.24-5.51-2-11.09-3-16.65-.51-2.78-.83-5.58-1.19-8.38l-1.06-8.39c-.59-5.6-1-11.23-1.55-16.84L96.9,189.2l-.28-16.91V172l.31-.1c2.58-.79,5.2-1.47,7.74-2.41,1.27-.45,2.56-.85,3.82-1.34l3.77-1.47c1.27-.47,2.49-1,3.73-1.57s2.49-1.06,3.7-1.66l3.66-1.74,3.61-1.85c1.21-.6,2.39-1.25,3.57-1.92s2.37-1.29,3.53-2c2.33-1.38,4.66-2.75,6.93-4.22s4.52-3,6.77-4.47,4.43-3.1,6.59-4.73c1.09-.79,2.17-1.61,3.23-2.44s2.16-1.64,3.2-2.5l3.16-2.54,3.12-2.6c2-1.76,4.1-3.52,6.11-5.34s4-3.64,6-5.51Q185,116,190.54,110.08q2.78-3,5.45-6c1.78-2,3.54-4.09,5.22-6.2l.25-.31.24.31c1.68,2.11,3.44,4.17,5.22,6.2s3.6,4,5.45,6q5.55,5.92,11.43,11.52c2,1.87,3.93,3.71,5.95,5.51s4.06,3.58,6.12,5.34l3.11,2.6,3.16,2.54c1.05.86,2.13,1.66,3.2,2.5s2.14,1.65,3.24,2.44c2.16,1.63,4.37,3.18,6.59,4.73s4.46,3.05,6.77,4.47,4.59,2.84,6.92,4.22c1.16.69,2.36,1.32,3.53,2s2.36,1.32,3.57,1.92l3.61,1.85,3.66,1.74c1.21.6,2.46,1.12,3.7,1.66s2.46,1.1,3.73,1.57l3.78,1.47c1.25.49,2.54.89,3.82,1.35,2.53.93,5.15,1.61,7.73,2.4l.31.1v.3L306,189.2l-.87,16.89c-.52,5.61-.95,11.24-1.55,16.84l-1.06,8.39c-.36,2.8-.68,5.6-1.19,8.38-.95,5.56-1.75,11.14-3,16.65-.58,2.76-1.13,5.52-1.74,8.28l-2,8.21-1,4.1L292.36,281,290,289.12c-1.84,5.33-3.49,10.74-5.61,16l-1.52,4-.77,2-.84,1.94-3.36,7.77-3.67,7.63-.93,1.9-1,1.87-2,3.73c-.68,1.24-1.31,2.51-2,3.72l-2.15,3.65L264,346.87l-.52.81,2.48.69,3.89,1.15C292.93,310.62,313,252.23,313,166.75c-1.58-.43-3.15-.9-4.71-1.39l15-17.26c4.06,2.16,2.33.91,6.89,4.88,7.32,6.38-9.58,17.69-9.58,17.69s16.56,8.73,36.7-14.37S365.69,119,365.69,119s-8.89,18.29-16.21,11.91c-4.56-4-3.08-2.43-5.77-6.16l19.72-22.63ZM6.89,56.42S30.57,81.26,43.14,85.87l.27,12.46ZM79.11,169.88s-13,6.12-31.39-15S38,122.68,38,122.68,39.8,157.68,79.11,169.88Zm-8.13-52c7.94-6,6.5-9.76,6.5-9.76C83.85,109.27,71,117.83,71,117.83Zm254.92-9.76s-1.44,3.71,6.5,9.76C332.4,117.83,319.53,109.27,325.9,108.07Zm39.5,14.61s8.65,11.1-9.74,32.21-31.39,15-31.39,15C363.58,157.68,365.4,122.68,365.4,122.68Zm-5.16-36.81c12.57-4.61,36.25-29.45,36.25-29.45L360,98.33Z"/><path class="cls-1" d="M226.61,391.74c-3.37,2.95-6.88,5.75-10.48,8.42a101.21,101.21,0,0,1-14.41,9l-.26.13-.26-.13a100.75,100.75,0,0,1-14.42-9c-3.56-2.64-7-5.4-10.36-8.32l-3.69.46q-3,.42-5.84.87c19.27,19.05,34.57,26.05,34.57,26.05s15.38-7,34.73-26.21q-2.62-.4-5.33-.78C229.46,392.06,228,391.89,226.61,391.74Z"/><path class="cls-1" d="M201.79,390.34c-5,0-9.92.19-14.79.51l-2,.16c1.78,1.42,3.58,2.81,5.41,4.15,1.08.81,2.19,1.58,3.31,2.33S196,399,197.1,399.7s2.27,1.41,3.41,2.05l1,.53c.32-.17.63-.35.94-.53,1.14-.64,2.28-1.34,3.41-2s2.26-1.43,3.37-2.21,2.22-1.52,3.31-2.33q2.79-2.06,5.5-4.23l-1.4-.11C211.71,390.52,206.76,390.35,201.79,390.34Z"/><polygon class="cls-1" points="201.46 127.11 201.46 112.69 197.95 124.77 198.79 127.11 201.46 127.11"/><path class="cls-1" d="M236.5,222.09a2.28,2.28,0,0,0-.5-1.94c-.78-.86-3.44-.54-3.44-.54C236.48,220,236.5,222.09,236.5,222.09Z"/><path class="cls-1" d="M270.88,248.41c1.94.66,8.85-1.52,13.22-5.16,0,0-8.49,5.52-14.92,1.52C269.18,244.77,268.94,247.74,270.88,248.41Z"/><path class="cls-1" d="M167.3,220.15a2.25,2.25,0,0,0-.5,1.94s0-2.07,3.94-2.48C170.74,219.61,168.07,219.29,167.3,220.15Z"/><path class="cls-1" d="M196,128.74s-6.12.95-6.65,8.25A10.92,10.92,0,0,1,196,128.74Z"/><path class="cls-1" d="M153.54,344.32c2-.37,4-.82,6.1-1.18,4.19-.77,8.64-1.4,13.26-2s9.41-.93,14.29-1.19,9.85-.33,14.8-.29,9.93.08,14.81.33,9.66.71,14.28,1.25,9.07,1.24,13.26,2c2.1.37,4.13.82,6.09,1.2s3.86.85,5.66,1.29l1.28.32,1.53-2.35L261,340.2l2.12-3.53c.72-1.18,1.34-2.41,2-3.61l2-3.63,1-1.81.91-1.85,3.66-7.43,3.35-7.57.84-1.89.76-1.93,1.52-3.86c2.13-5.1,3.79-10.39,5.64-15.61l2.41-8,1.2-4,1-4,2.11-8.06c.63-2.7,1.21-5.42,1.81-8.13,1.3-5.41,2.16-10.91,3.17-16.38.54-2.73.89-5.5,1.28-8.26l1.17-8.27c.66-5.54,1.16-11.1,1.75-16.65l1.14-16.71.5-14.29c-1.78-.56-3.57-1.12-5.3-1.79-1.3-.48-2.62-.92-3.9-1.45L289.33,170c-1.29-.5-2.52-1.12-3.79-1.68s-2.52-1.12-3.75-1.75l-3.7-1.85-3.62-2c-1.22-.65-2.41-1.34-3.59-2.05s-2.38-1.37-3.54-2.1c-2.33-1.46-4.66-2.91-6.92-4.45s-4.51-3.11-6.74-4.69-4.41-3.25-6.55-4.94q-1.63-1.24-3.21-2.55c-1-.87-2.13-1.7-3.17-2.59l-3.12-2.64-3.08-2.7c-2-1.82-4.05-3.65-6-5.53s-3.93-3.76-5.86-5.69-3.83-3.86-5.68-5.86-3.67-4-5.46-6-3.56-4.11-5.28-6.21-3.24-4-4.79-6.1c-1.55,2.08-3.16,4.1-4.8,6.1s-3.48,4.17-5.27,6.21-3.61,4.07-5.47,6.06-3.75,3.93-5.68,5.86-3.87,3.83-5.85,5.69-4,3.7-6,5.52l-3.07,2.7-3.12,2.64c-1,.89-2.12,1.73-3.17,2.6s-2.13,1.72-3.21,2.55c-2.14,1.69-4.35,3.31-6.55,4.94s-4.44,3.19-6.74,4.69-4.59,3-6.92,4.45c-1.16.73-2.36,1.4-3.54,2.11s-2.37,1.39-3.59,2l-3.63,2-3.7,1.85c-1.22.63-2.49,1.18-3.74,1.76s-2.5,1.17-3.79,1.67l-3.84,1.58c-1.28.52-2.6,1-3.9,1.44-1.73.67-3.51,1.23-5.29,1.79l.49,14.28,1.15,16.71c.59,5.55,1.09,11.11,1.75,16.64l1.16,8.28c.39,2.76.74,5.52,1.28,8.25,1,5.48,1.88,11,3.18,16.38.6,2.71,1.18,5.43,1.81,8.14l2.1,8.05,1,4,1.2,4,2.41,8c1.86,5.21,3.52,10.5,5.64,15.61l1.52,3.86.77,1.92.84,1.9,3.35,7.57,3.65,7.42.92,1.85,1,1.81,2,3.63c.67,1.2,1.29,2.44,2,3.61l2.13,3.54,2.1,3.55,1.56,2.41c.76-.19,1.51-.38,2.3-.56C149.68,345.16,151.58,344.76,153.54,344.32Zm33.8-203.68c0-6.15,2.16-12.79,10.84-13.4l-.91-2.24,4.19-14,4.18,14-.91,2.24c8.69.61,10.84,7.25,10.84,13.4V162.2c-4.47,0-8.85,10-11.51,12.39V148.14s7.5-1.27,7.5-4.95c0,0-3.55,3.17-10.1,3.17s-10.1-3.17-10.1-3.17c0,3.68,7.5,4.95,7.5,4.95v26.45c-2.67-2.4-7-12.39-11.52-12.39Zm-22.66,22.45a5.63,5.63,0,0,1,3.47.76l33.36,18.35,33.37-18.35a5.63,5.63,0,0,1,3.47-.76l1.08.19-.42,1a5.55,5.55,0,0,1-2.49,2.53L205,184.15l13.55,7.45a29.18,29.18,0,0,0,2-5.74s3.14,1.2.45,7.1c2.57,1.25,5.64,3.81,6.53,4.3,1.44.79,1.48.29,2.82,1A1.54,1.54,0,0,1,228.9,201c-1.33-.73-.93-1-2.37-1.83-.89-.49-4.69-1.72-7.12-3.22-3.55,5.44-6.24,3.43-6.24,3.43a29.85,29.85,0,0,0,3.78-4.76l-15.44-8.49-15.43,8.49a29.85,29.85,0,0,0,3.78,4.76s-2.69,2-6.24-3.43c-2.43,1.5-6.23,2.73-7.12,3.22-1.44.79-1,1.1-2.37,1.83a1.54,1.54,0,0,1-1.48-2.68c1.34-.73,1.38-.23,2.82-1,.89-.49,4-3,6.53-4.3-2.69-5.9.45-7.1.45-7.1a29.18,29.18,0,0,0,2,5.74L198,184.15l-31.48-17.32A5.55,5.55,0,0,1,164,164.3l-.42-1Zm-18.5,150.14a16.14,16.14,0,0,0-2.09,2.1c-.18-2.95.92-4,1.9-4.33a4.88,4.88,0,0,1,.43-.85,2.64,2.64,0,0,1-.69-.82,4.77,4.77,0,0,0-2.89,1.19s.89-3.29,3.21-3.22a3.08,3.08,0,0,1,.37-.42,1.46,1.46,0,0,1,1.2-.21,13.56,13.56,0,0,0-2.68-.29s2.53-2.93,5.35-1.4a2.39,2.39,0,0,1,1-.16c2.63.08,4.89,4.12,4.89,4.12a2.22,2.22,0,0,1,.43.14,48.45,48.45,0,0,0,5.82-6.86c-1.16-.7-2.29-1.42-3.4-2.17,1.95.09,3.62.06,4.73,0l.16-.3c-5.64-.87-8.62-.71-14-6.95a73.41,73.41,0,0,0,11.41.14c-8.39-1.31-13.94-.47-19.51-8.37a72.76,72.76,0,0,0,11.31,1.54c-8.85-2.53-14.88-3.83-19.31-11.66a73.08,73.08,0,0,0,8.93,3.06c-8.08-4.28-14-7.43-16.42-15.31a73.41,73.41,0,0,0,8.78,3.82c-6.47-4.12-12.14-6.05-13.68-14a72.94,72.94,0,0,0,7.6,4.58c-6-5.13-11.31-8.4-11.85-16.26,2.15,1.32,17.1,9.9,20.48-5.62C141.3,218,159.28,211,161.86,221.14c2.16,8.48,5.76,15.49,12.78,21.15.27-.68.59-1.46.93-2.32-.88.65-1.46,1.18-1.46,1.18a9.78,9.78,0,0,1,2.75-4.89,21.2,21.2,0,0,0-2,1.73,10,10,0,0,1,2.78-5.35c.36-3-.21-5.72-2.93-7.16-4.6-2.45-7,2.18-7,2.18a17.74,17.74,0,0,1-1.63-6.14c-.43-4,6.53-1.22,7.53-4.21s4.83-3.88,11.08-3.8c4.68.07,8.19,2.12,10.18,5.33a11.34,11.34,0,0,1,4.57,8.61s-.59-.72-1.51-1.66a13.84,13.84,0,0,1,2.24,7.08s-.84-.94-2.1-2.12a14,14,0,0,1,2.1,8.43s-.31-.58-.86-1.43c1.2,6.78,2.24,13.07,2.24,13.07s1.06-6.24,2.27-13c-.52.81-.82,1.36-.82,1.36a14,14,0,0,1,2.11-8.43c-1.27,1.18-2.11,2.12-2.11,2.12a13.93,13.93,0,0,1,2.25-7.08c-.93.94-1.51,1.66-1.51,1.66a11.37,11.37,0,0,1,4.56-8.61c2-3.21,5.51-5.26,10.19-5.33,6.25-.08,10.08.81,11.08,3.8s8,.25,7.53,4.21a17.58,17.58,0,0,1-1.64,6.14s-2.35-4.63-7-2.18c-2.72,1.44-3.28,4.19-2.93,7.16a10.05,10.05,0,0,1,2.79,5.35,21.2,21.2,0,0,0-2-1.73,9.77,9.77,0,0,1,2.74,4.89s-.58-.53-1.46-1.18c.34.86.67,1.64.94,2.32,7-5.66,10.62-12.67,12.77-21.15C244,211,262,218,265.65,234.71c3.38,15.52,18.33,6.94,20.47,5.62-.53,7.86-5.79,11.13-11.84,16.26a72.94,72.94,0,0,0,7.6-4.58c-1.55,8-7.21,9.91-13.69,14a73.91,73.91,0,0,0,8.79-3.82c-2.39,7.88-8.34,11-16.43,15.31a73.51,73.51,0,0,0,8.94-3.06c-4.44,7.83-10.46,9.13-19.31,11.66a72.91,72.91,0,0,0,11.31-1.54c-5.57,7.9-11.12,7.06-19.51,8.37a73.41,73.41,0,0,0,11.41-.14c-5.4,6.24-8.37,6.08-14,6.95l.16.3c1.11,0,2.78.07,4.72,0-1.1.75-2.24,1.47-3.39,2.17a47.16,47.16,0,0,0,5.82,6.86,2.22,2.22,0,0,1,.43-.14s2.26-4,4.89-4.12a2.42,2.42,0,0,1,1,.16c2.82-1.53,5.34,1.4,5.34,1.4a13.74,13.74,0,0,0-2.68.29,1.49,1.49,0,0,1,1.21.21,3,3,0,0,1,.36.42c2.33-.07,3.21,3.22,3.21,3.22a4.75,4.75,0,0,0-2.89-1.19,2.6,2.6,0,0,1-.68.82,5.87,5.87,0,0,1,.43.85c1,.34,2.07,1.38,1.89,4.33a15.43,15.43,0,0,0-2.09-2.1,2.62,2.62,0,0,1-1.69.44c-3.76,0-5.94-1.74-8.73-.77s-3.39,5.74-4.93,5.7h-.54c-.57.73-1.59,2.24-1.4,3.47a3.61,3.61,0,0,1-.78-4.56,4.11,4.11,0,0,1-.27-1.2c-.18-1.83,2.32-2.64,4.07-3.74-.93-2.32-3.93-5.45-6.46-7.82q-3.14,1.65-6.51,3c3.22,3.32,5.63,6.89,5,9.8C233.17,325.25,227,319,227,319s2.59,7.51-2.59,8.81-5.73-1.54-5.73-1.54-2.27,10.11-8.49,6.39a6.33,6.33,0,0,1-2.23-3.05h0s-1.37,5-6.31,5-6.35-5-6.35-5h0a6.39,6.39,0,0,1-2.23,3.05c-6.23,3.72-8.49-6.39-8.49-6.39s-.56,2.83-5.74,1.54-2.58-8.81-2.58-8.81-6.15,6.22-7.85-1.46c-.64-2.91,1.76-6.48,5-9.8q-3.37-1.38-6.51-3c-2.53,2.37-5.54,5.5-6.47,7.82,1.76,1.1,4.26,1.91,4.08,3.74a4.46,4.46,0,0,1-.27,1.2,3.61,3.61,0,0,1-.79,4.56c.2-1.23-.83-2.74-1.39-3.47h-.55c-1.53,0-2.14-4.73-4.93-5.7s-5,.77-8.73.77A2.62,2.62,0,0,1,146.18,313.23Z"/><path class="cls-1" d="M167.16,166.65l50,27.51.59-1.08L164.93,164C164.76,165.23,167.16,166.65,167.16,166.65Z"/><path class="cls-1" d="M119.27,243.25c4.36,3.64,11.27,5.82,13.21,5.16s1.7-3.64,1.7-3.64C127.75,248.77,119.27,243.25,119.27,243.25Z"/><path class="cls-1" d="M220.8,186.6a15.31,15.31,0,0,1-1.69,5.26l.87.47A8.6,8.6,0,0,0,220.8,186.6Z"/><path class="cls-1" d="M183.05,192.33l.87-.47a15.31,15.31,0,0,1-1.69-5.26A8.6,8.6,0,0,0,183.05,192.33Z"/><path class="cls-1" d="M235.87,166.65s2.4-1.42,2.23-2.64l-34.82,19.16,1.28.71Z"/><polygon class="cls-1" points="185.28 193.08 185.87 194.16 201.03 185.82 199.75 185.12 185.28 193.08"/><path class="cls-1" d="M156,220.58a25.54,25.54,0,0,0,4.33,6.95c-3.66-6.24-1.49-11-8.24-8.95a14.78,14.78,0,0,0-6.64,4.58C149.08,219.78,154.64,217.31,156,220.58Z"/><path class="cls-1" d="M246.06,220.58c1.4-3.27,7-.8,10.55,2.58a14.78,14.78,0,0,0-6.64-4.58c-6.75-2-4.58,2.71-8.24,8.95A25.82,25.82,0,0,0,246.06,220.58Z"/><path class="cls-1" d="M223,46.67c15.72,0,23.92-15.87-1.91-15.87-13.95,0-15.94,12.5-15.52,20.94h-1.75c.54-10.93,4.09-28.75,4.09-33,0-4.58-.28-8.28-2-11.87A34.92,34.92,0,0,0,201.46,0,34.69,34.69,0,0,0,197,6.88c-1.72,3.59-2,7.29-2,11.87,0,4.24,3.55,22.06,4.08,33h-1.74c.42-8.44-1.58-20.94-15.53-20.94-25.83,0-17.62,15.87-1.9,15.87,0,0-1.86-1-.18-2.63s13.2-1.89,13.72,7.7a2.45,2.45,0,0,0-2.36,2.45h0a2.45,2.45,0,0,0,2,2.4c-2.31,11.29-14.41,6-14.41,6s2.83,10,9,7.12c4.22-2,6.62-5.47,8.59-10.74a16.53,16.53,0,0,0,.57-2.39h2.27c-.58,7.92-4.07,7.3-4.07,14C195,79.2,201.46,82,201.46,82s6.42-2.79,6.42-11.33c0-6.73-3.49-6.11-4.07-14h2.27a15.26,15.26,0,0,0,.57,2.39c2,5.27,4.37,8.79,8.59,10.74,6.13,2.84,8.95-7.12,8.95-7.12s-12.09,5.24-14.41-6a2.45,2.45,0,0,0,2-2.4h0a2.45,2.45,0,0,0-2.36-2.45c.53-9.59,12.1-9.33,13.73-7.7S223,46.67,223,46.67Z"/><path class="cls-1" d="M309.83,351.62A58.22,58.22,0,0,1,316.51,330c-9.71,1.18-9.82,15.83-17.06,23.34-3.58,3.71-6.66,4.42-9.05,3.92a14.16,14.16,0,0,0-3.09-8c-6.48-7.33-13-3.53-10.34.12a24.25,24.25,0,0,0,3.55,3.89l-1-.36-6.27-1.71-3.46-.92-4.1-1c-2.94-.68-6.25-1.41-9.87-2.19-1.81-.39-3.7-.73-5.66-1.12s-4-.71-6.08-1c-4.18-.65-8.61-1.16-13.19-1.69s-9.34-.79-14.16-1.05-9.75-.31-14.66-.24-9.86,0-14.72.2-9.58.53-14.17,1-9,1-13.19,1.64c-2.1.3-4.12.68-6.09,1s-3.85.72-5.66,1.1c-3.61.78-6.93,1.49-9.87,2.18l-4.1,1-3.47.92-4.83,1.32-2.83,1a23.8,23.8,0,0,0,3.55-3.89c2.65-3.65-3.85-7.45-10.33-.12-1.34,1.5-2.65,4-3.09,8-2.39.5-5.47-.21-9.06-3.92-7.23-7.51-7.35-22.15-17-23.34a58.22,58.22,0,0,1,6.68,21.58s-7.17,1.65-12.16,2.33A47,47,0,0,1,90.92,370c3.67,11.64,6.25,18.49,15,22.8,3.22,1.59,5.86,1.6,8.13.39a43.46,43.46,0,0,0,1.54,8.27c1.71,4.1,2.82,4.09,8.35,2.27l.82-.27.81-.33c1.09-.41,2.65-1.11,4.7-1.83l3.4-1.24,4-1.38c1.44-.49,3-1,4.61-1.5s3.36-1,5.16-1.49,3.69-1,5.65-1.49,4-1,6.09-1.43c4.19-1,8.64-1.81,13.29-2.51s9.46-1.3,14.38-1.65,9.94-.57,14.95-.61,10,.25,15,.59,9.74,1,14.39,1.61,9.1,1.53,13.29,2.46c2.11.44,4.13,1,6.1,1.42s3.85,1,5.65,1.47c3.62,1,6.89,2,9.78,3l4,1.37,3.4,1.23c2.05.72,3.62,1.42,4.71,1.83l1.66.67,0,.11c5.54,1.82,6.65,1.83,8.35-2.27a44,44,0,0,0,1.55-8.27c2.27,1.21,4.91,1.2,8.13-.39,8.71-4.31,11.29-11.16,15-22.8A47,47,0,0,1,322,354C317,353.27,309.83,351.62,309.83,351.62Zm-130.93,22a5.73,5.73,0,0,1-6.24-5.32L177,368a1.39,1.39,0,0,0,1.51,1.3,1.42,1.42,0,0,0,1.31-1.51,1.44,1.44,0,0,0-1.54-1.3,5.77,5.77,0,1,1,5.27-6.24l-4.34.36a1.44,1.44,0,0,0-1.54-1.3,1.42,1.42,0,0,0-1.27,1.54,1.4,1.4,0,0,0,1.51,1.28,5.8,5.8,0,0,1,1,11.56ZM188,373l-.75-18.74,4.92-.19.75,18.73Zm27-9.53a9.39,9.39,0,1,1-2.69-6.69l-3.52,3.4a4.49,4.49,0,0,0-3.1-1.29,4.45,4.45,0,1,0,3.53,7.1l-3.63,0,0-3.3,9.37.13Zm18,11-2-.18-8-9.63-.8,8.84-4.9-.44,1.68-18.68,2,.18,8.05,9.61.79-8.82,4.91.45Z"/></g></g></svg>