<svg version="1.2" baseProfile="tiny-ps" xmlns="http://www.w3.org/2000/svg" viewBox="0 0 1920 1080" width="1920" height="1080">
	<title>Sans titre - 2-ai</title>
	<defs>
		<linearGradient id="grd1" gradientUnits="userSpaceOnUse"  x1="1102.675" y1="-104.111" x2="1952.536" y2="-104.111">
			<stop offset="0" stop-color="#4c9ed6"  />
			<stop offset="1" stop-color="#3269b8"  />
		</linearGradient>
		<clipPath clipPathUnits="userSpaceOnUse" id="cp1">
			<path d="M1982 -37C1992.01 2.34 1927.77 27.84 1879 132C1879 132 1847.46 199.35 1839 287C1816.71 517.79 2015.98 649.81 1956 757C1936.37 792.08 1916.52 775.26 1829 834C1692.16 925.84 1703.3 992.06 1613 1043C1492.55 1110.96 1326.07 1075.88 1219 1006C1182.82 982.39 1108.26 933.73 1078 842C1024.69 680.4 1153.61 520.72 1170 501C1245.47 410.22 1295.66 427.89 1360 332C1418.37 245.01 1387.75 214.53 1440 121C1447.36 107.83 1544.2 -59.55 1728 -95C1836.78 -115.98 1968.69 -89.34 1982 -37Z" />
		</clipPath>
	</defs>
	<style>
		tspan { white-space:pre }
		.shp0 { fill: url(#grd1) } 
	</style>
	<g id="Calque 3">
		<path id="&lt;Path&gt;" class="shp0" d="M1982 -37C1992.01 2.34 1927.77 27.84 1879 132C1879 132 1847.46 199.35 1839 287C1816.71 517.79 2015.98 649.81 1956 757C1936.37 792.08 1916.52 775.26 1829 834C1692.16 925.84 1703.3 992.06 1613 1043C1492.55 1110.96 1326.07 1075.88 1219 1006C1182.82 982.39 1108.26 933.73 1078 842C1024.69 680.4 1153.61 520.72 1170 501C1245.47 410.22 1295.66 427.89 1360 332C1418.37 245.01 1387.75 214.53 1440 121C1447.36 107.83 1544.2 -59.55 1728 -95C1836.78 -115.98 1968.69 -89.34 1982 -37Z" />
		<g id="&lt;Clip Group&gt;" clip-path="url(#cp1)">
		</g>
	</g>
</svg>