<svg version="1.2" baseProfile="tiny-ps" xmlns="http://www.w3.org/2000/svg" viewBox="0 0 1920 1080" width="1920" height="1080">
	<title>Sans titre - 2-ai</title>
	<defs>
		<linearGradient id="grd1" gradientUnits="userSpaceOnUse"  x1="-30" y1="-1.986" x2="1950" y2="-1.986">
			<stop offset="0" stop-color="#4c9ed6"  />
			<stop offset="1" stop-color="#326ab9"  />
		</linearGradient>
	</defs>
	<style>
		tspan { white-space:pre }
		.shp0 { fill: url(#grd1) } 
	</style>
	<g id="Calque 4">
		<path id="&lt;Path&gt;" class="shp0" d="M1930.59 261.14C1922.47 295.13 1880.07 314.6 1842.06 312.49C1804.06 310.38 1769.63 292.3 1736.7 274.85C1703.76 257.39 1669.03 239.63 1630.98 238.27C1588.17 236.74 1548.15 256.14 1506.28 264.44C1374.3 290.58 1232.82 205.72 1106.18 248.54C1040.12 270.88 993.28 323.56 945.54 370.87C897.8 418.19 839.59 464.81 769.24 467.84C687.21 471.38 611.96 414.2 530.21 421.3C485.26 425.2 444.64 448.31 399.95 454.22C324.64 464.18 253.56 424.77 186.69 391.59C119.82 358.41 38.22 329.96 -30 360.77L-30 0L1950 0L1930.59 261.14Z" />
	</g>
</svg>