<svg xmlns="http://www.w3.org/2000/svg" xmlns:xlink="http://www.w3.org/1999/xlink" viewBox="0 0 1980 468"><defs><style>.cls-1{fill:url(#Dégradé_sans_nom_122);}</style><linearGradient id="Dégradé_sans_nom_122" y1="234" x2="1980" y2="234" gradientUnits="userSpaceOnUse"><stop offset="0" stop-color="#47a1ff"/><stop offset="1" stop-color="#476eff"/></linearGradient></defs><g id="Calque_2" data-name="Calque 2"><g id="Calque_4" data-name="Calque 4"><path class="cls-1" d="M1960.59,261.14c-8.12,34-50.52,53.46-88.53,51.35s-72.43-20.19-105.36-37.64S1699,239.63,1661,238.27c-42.81-1.53-82.83,17.87-124.7,26.17-132,26.14-273.46-58.72-400.1-15.9-66.06,22.34-112.9,75-160.64,122.33s-105.95,93.94-176.3,97c-82,3.54-157.28-53.64-239-46.54-45,3.9-85.57,27-130.26,32.92-75.31,10-146.39-29.45-213.26-62.63S68.22,330,0,360.77V0H1980Z"/></g></g></svg>