<svg xmlns="http://www.w3.org/2000/svg" viewBox="0 0 792 53.18"><defs><style>.cls-1{fill:#006ac6;}</style></defs><g id="Calque_2" data-name="Calque 2"><g id="Calque_1-2" data-name="Calque 1"><path class="cls-1" d="M580.65,25.12l-513.58,0H19.16C8.7,25.1,2.41,21.62.46,14.76A11.51,11.51,0,0,1,8.2.43a9.81,9.81,0,0,1,7.56.76,9.9,9.9,0,0,1,4.81,5.89,8.59,8.59,0,0,1-5.76,10.69,7.45,7.45,0,0,1-9.28-5A6.51,6.51,0,0,1,9.89,4.66a1.6,1.6,0,0,1,.92,3.07,3.3,3.3,0,0,0-2.22,4.12,4.26,4.26,0,0,0,2.06,2.53,4.21,4.21,0,0,0,3.24.33A5.38,5.38,0,0,0,17.5,8,6.72,6.72,0,0,0,9.12,3.49a8.34,8.34,0,0,0-5.58,10.4c1.53,5.39,6.64,8,15.62,8H67.07c173.53,0,701.6,0,705.76,0,9,0,14.1-2.63,15.63-8a8.34,8.34,0,0,0-5.58-10.4A6.72,6.72,0,0,0,774.5,8a5.38,5.38,0,0,0,3.61,6.71,4.21,4.21,0,0,0,3.24-.33,4.26,4.26,0,0,0,2.06-2.53,3.3,3.3,0,0,0-2.22-4.12,1.6,1.6,0,0,1,.92-3.07,6.51,6.51,0,0,1,4.36,8.11,7.45,7.45,0,0,1-9.28,5,8.59,8.59,0,0,1-5.76-10.69,9.9,9.9,0,0,1,4.81-5.89A9.81,9.81,0,0,1,783.8.43a11.51,11.51,0,0,1,7.74,14.33c-1.95,6.86-8.24,10.34-18.7,10.34C771.22,25.11,689.72,25.12,580.65,25.12Z"/><path class="cls-1" d="M780.93,53.18a10,10,0,0,1-9.5-7.08,8.59,8.59,0,0,1,5.76-10.69,7.45,7.45,0,0,1,9.28,5,6.51,6.51,0,0,1-4.36,8.11,1.6,1.6,0,1,1-.92-3.06,3.32,3.32,0,0,0,2.22-4.13,4.26,4.26,0,0,0-5.3-2.86,5.38,5.38,0,0,0-3.61,6.71,6.7,6.7,0,0,0,8.38,4.51,8.34,8.34,0,0,0,5.58-10.4c-1.53-5.39-6.64-8-15.62-8H724.93c-173.53,0-701.6,0-705.76,0-9,0-14.1,2.62-15.63,8a8.34,8.34,0,0,0,5.58,10.4,6.7,6.7,0,0,0,8.38-4.51,5.38,5.38,0,0,0-3.61-6.71,4.26,4.26,0,0,0-5.3,2.86,3.32,3.32,0,0,0,2.22,4.13,1.6,1.6,0,0,1-.92,3.06,6.51,6.51,0,0,1-4.36-8.11,7.45,7.45,0,0,1,9.28-5A8.59,8.59,0,0,1,20.57,46.1,9.94,9.94,0,0,1,8.2,52.76,11.52,11.52,0,0,1,.46,38.42c2-6.86,8.24-10.34,18.7-10.34,4.16,0,532.23,0,705.77,0h47.91c10.46,0,16.75,3.48,18.7,10.34a11.52,11.52,0,0,1-7.74,14.34A10.12,10.12,0,0,1,780.93,53.18Z"/></g></g></svg>