<svg xmlns="http://www.w3.org/2000/svg" viewBox="0 0 5.7 97.9"><defs><style>.cls-1{fill:#5c09e0;}</style></defs><g id="Calque_2" data-name="Calque 2"><g id="Calque_2-2" data-name="Calque 2"><path class="cls-1" d="M3.05,95.32a.18.18,0,1,1-.36,0c0-17.19,0-34.31,0-43.65h0a.18.18,0,1,1,.36,0c0,9.34,0,26.46,0,43.65Z"/><path class="cls-1" d="M3.05,46.41a.18.18,0,0,1-.36,0c0-17.19,0-34.31,0-43.65h0a.18.18,0,0,1,.36,0c0,9.34,0,26.46,0,43.65Z"/><rect class="cls-1" x="1.76" y="47.85" width="2.19" height="2.19" transform="translate(-33.78 16.35) rotate(-45)"/><rect class="cls-1" x="1.76" y="0.45" width="2.19" height="2.19" transform="translate(-0.26 2.47) rotate(-45)"/><rect class="cls-1" x="1.76" y="95.26" width="2.19" height="2.19" transform="translate(-67.29 30.23) rotate(-45)"/><rect class="cls-1" x="2.3" y="50.48" width="1.09" height="1.09" transform="translate(-35.25 16.96) rotate(-45)"/><rect class="cls-1" x="2.3" y="46.32" width="1.09" height="1.09" transform="translate(-32.31 15.74) rotate(-45)"/><rect class="cls-1" x="0.23" y="48.4" width="1.09" height="1.09" transform="translate(-34.39 14.88) rotate(-45)"/><rect class="cls-1" x="4.38" y="48.4" width="1.09" height="1.09" transform="translate(-33.17 17.82) rotate(-45)"/></g></g></svg>