<svg xmlns="http://www.w3.org/2000/svg" viewBox="0 0 886 56.05"><defs><style>.cls-1{fill:#006ac6;}</style></defs><g id="Calque_2" data-name="Calque 2"><g id="Calque_1-2" data-name="Calque 1"><path class="cls-1" d="M864.66,30.73H532.75a2.71,2.71,0,1,1,0-5.41H864.66a2.71,2.71,0,0,1,0,5.41Z"/><path class="cls-1" d="M358.81,30.73H22.08a2.71,2.71,0,1,1,0-5.41H358.81a2.71,2.71,0,0,1,0,5.41Z"/><path class="cls-1" d="M12,40.05a12,12,0,1,1,12-12A12,12,0,0,1,12,40.05Zm0-18.63A6.61,6.61,0,1,0,18.63,28,6.61,6.61,0,0,0,12,21.42Z"/><path class="cls-1" d="M507.65,45.16A17.13,17.13,0,1,1,524.78,28,17.16,17.16,0,0,1,507.65,45.16Zm0-28.85A11.72,11.72,0,1,0,519.36,28,11.73,11.73,0,0,0,507.65,16.31Z"/><path class="cls-1" d="M382,45.16A17.13,17.13,0,1,1,399.15,28,17.15,17.15,0,0,1,382,45.16Zm0-28.85A11.72,11.72,0,1,0,393.73,28,11.73,11.73,0,0,0,382,16.31Z"/><path class="cls-1" d="M444.83,56.05a28,28,0,1,1,28-28A28.05,28.05,0,0,1,444.83,56.05Zm0-50.63A22.61,22.61,0,1,0,467.44,28,22.63,22.63,0,0,0,444.83,5.42Z"/><path class="cls-1" d="M874,40.05a12,12,0,1,1,12-12A12,12,0,0,1,874,40.05Zm0-18.63A6.61,6.61,0,1,0,880.58,28,6.62,6.62,0,0,0,874,21.42Z"/></g></g></svg>