<svg width="60" height="60" viewBox="0 0 60 60" fill="none" xmlns="http://www.w3.org/2000/svg">
<path d="M22.5 7.5C15.5964 7.5 10 13.0964 10 20C10 26.9036 15.5964 32.5 22.5 32.5C29.4036 32.5 35 26.9036 35 20C35 13.0964 29.4036 7.5 22.5 7.5ZM15 20C15 15.8579 18.3579 12.5 22.5 12.5C26.6421 12.5 30 15.8579 30 20C30 24.1421 26.6421 27.5 22.5 27.5C18.3579 27.5 15 24.1421 15 20Z" fill="#006AC6"/>
<path d="M42.2711 20.5457C41.5677 20.1871 40.7895 20.0002 40 20.0002V15.0002C41.579 15.0002 43.1355 15.3739 44.5422 16.0911C44.6972 16.1701 44.8498 16.253 45 16.3397C46.2135 17.0403 47.268 17.9892 48.0932 19.1264C49.0207 20.4043 49.6323 21.8837 49.8781 23.4434C50.1239 25.0032 49.9968 26.5989 49.5073 28.1001C49.0178 29.6013 48.1798 30.9653 47.0618 32.0803C45.9438 33.1954 44.5777 34.0298 43.0752 34.5154C41.7382 34.9475 40.3271 35.0924 38.9339 34.943C38.7614 34.9245 38.5893 34.9015 38.4175 34.874C36.8595 34.6243 35.3827 34.0095 34.1078 33.0797L34.1052 33.0778L37.0526 29.0389C37.6903 29.5043 38.4293 29.8119 39.2088 29.9369C39.9883 30.0618 40.7863 30.0003 41.5376 29.7576C42.2888 29.5148 42.9718 29.0976 43.5308 28.5401C44.0898 27.9825 44.5088 27.3006 44.7535 26.55C44.9983 25.7994 45.0618 25.0016 44.9389 24.2217C44.816 23.4419 44.5102 22.7022 44.0465 22.0633C43.5828 21.4243 42.9744 20.9043 42.2711 20.5457Z" fill="#006AC6"/>
<path d="M49.9953 52.5C49.9953 51.1874 49.7367 49.8877 49.2344 48.675C48.7321 47.4623 47.9959 46.3604 47.0677 45.4323C46.1396 44.5041 45.0377 43.7679 43.825 43.2656C42.6123 42.7633 41.3126 42.5047 40 42.5047V37.5C41.7052 37.5 43.3959 37.7907 45 38.3579C45.2489 38.4459 45.4958 38.5405 45.7403 38.6418C47.5601 39.3956 49.2137 40.5005 50.6066 41.8934C51.9995 43.2863 53.1044 44.9399 53.8582 46.7597C53.9595 47.0042 54.0541 47.2511 54.1421 47.5C54.7093 49.1041 55 50.7948 55 52.5H49.9953Z" fill="#006AC6"/>
<path d="M40 52.5H35C35 45.5964 29.4036 40 22.5 40C15.5964 40 10 45.5964 10 52.5H5C5 42.835 12.835 35 22.5 35C32.165 35 40 42.835 40 52.5Z" fill="#006AC6"/>
</svg>
