<svg width="75" height="60" viewBox="0 0 75 60" fill="none" xmlns="http://www.w3.org/2000/svg">
<path d="M37.5 7.5C30.5964 7.5 25 13.0964 25 20C25 26.9036 30.5964 32.5 37.5 32.5C44.4036 32.5 50 26.9036 50 20C50 13.0964 44.4036 7.5 37.5 7.5ZM30 20C30 15.8579 33.3579 12.5 37.5 12.5C41.6421 12.5 45 15.8579 45 20C45 24.1421 41.6421 27.5 37.5 27.5C33.3579 27.5 30 24.1421 30 20Z" fill="#006AC6"/>
<path d="M57.2711 20.5457C56.5677 20.1871 55.7895 20.0002 55 20.0002V15.0002C56.579 15.0002 58.1355 15.3739 59.5422 16.0911C59.6972 16.1701 59.8498 16.253 60 16.3397C61.2135 17.0403 62.268 17.9892 63.0932 19.1264C64.0207 20.4043 64.6323 21.8837 64.8781 23.4434C65.1239 25.0032 64.9968 26.5989 64.5073 28.1001C64.0178 29.6013 63.1798 30.9653 62.0618 32.0803C60.9438 33.1954 59.5777 34.0298 58.0752 34.5154C56.7382 34.9475 55.3271 35.0924 53.9339 34.943C53.7614 34.9245 53.5893 34.9015 53.4175 34.874C51.8595 34.6243 50.3827 34.0095 49.1078 33.0797L49.1052 33.0778L52.0526 29.0389C52.6903 29.5043 53.4293 29.8119 54.2088 29.9369C54.9883 30.0618 55.7863 30.0003 56.5376 29.7576C57.2888 29.5148 57.9718 29.0976 58.5308 28.5401C59.0898 27.9825 59.5088 27.3006 59.7535 26.55C59.9983 25.7994 60.0618 25.0016 59.9389 24.2217C59.816 23.4419 59.5102 22.7022 59.0465 22.0633C58.5828 21.4243 57.9744 20.9043 57.2711 20.5457Z" fill="#006AC6"/>
<path d="M64.9953 52.5C64.9953 51.1874 64.7367 49.8877 64.2344 48.675C63.7321 47.4623 62.9959 46.3604 62.0677 45.4323C61.1396 44.5041 60.0377 43.7679 58.825 43.2656C57.6123 42.7633 56.3126 42.5047 55 42.5047V37.5C56.7052 37.5 58.3959 37.7907 60 38.3579C60.2489 38.4459 60.4958 38.5405 60.7403 38.6418C62.5601 39.3956 64.2137 40.5005 65.6066 41.8934C66.9995 43.2863 68.1044 44.9399 68.8582 46.7597C68.9595 47.0042 69.0541 47.2511 69.1421 47.5C69.7093 49.1041 70 50.7948 70 52.5H64.9953Z" fill="#006AC6"/>
<path d="M55 52.5H50C50 45.5964 44.4036 40 37.5 40C30.5964 40 25 45.5964 25 52.5H20C20 42.835 27.835 35 37.5 35C47.165 35 55 42.835 55 52.5Z" fill="#006AC6"/>
<path d="M37.5 7.5C44.4036 7.5 50 13.0964 50 20C50 26.9036 44.4036 32.5 37.5 32.5C30.5964 32.5 25 26.9036 25 20C25 13.0964 30.5964 7.5 37.5 7.5ZM45 20C45 15.8579 41.6421 12.5 37.5 12.5C33.3579 12.5 30 15.8579 30 20C30 24.1421 33.3579 27.5 37.5 27.5C41.6421 27.5 45 24.1421 45 20Z" fill="#006AC6"/>
<path d="M17.7289 20.5457C18.4323 20.1871 19.2105 20.0002 20 20.0002V15.0002C18.421 15.0002 16.8645 15.3739 15.4578 16.0911C15.3028 16.1701 15.1502 16.253 15 16.3397C13.7865 17.0403 12.732 17.9892 11.9068 19.1264C10.9793 20.4043 10.3677 21.8837 10.1219 23.4434C9.87611 25.0032 10.0032 26.5989 10.4927 28.1001C10.9822 29.6013 11.8202 30.9653 12.9382 32.0803C14.0562 33.1954 15.4223 34.0298 16.9248 34.5154C18.2618 34.9475 19.6729 35.0924 21.0661 34.943C21.2386 34.9245 21.4107 34.9015 21.5825 34.874C23.1405 34.6243 24.6173 34.0095 25.8922 33.0797L25.8948 33.0778L22.9474 29.0389C22.3097 29.5043 21.5707 29.8119 20.7912 29.9369C20.0117 30.0618 19.2137 30.0003 18.4624 29.7576C17.7112 29.5148 17.0282 29.0976 16.4692 28.5401C15.9102 27.9825 15.4912 27.3006 15.2465 26.55C15.0017 25.7994 14.9382 25.0016 15.0611 24.2217C15.184 23.4419 15.4898 22.7022 15.9535 22.0633C16.4172 21.4243 17.0256 20.9043 17.7289 20.5457Z" fill="#006AC6"/>
<path d="M10.0047 52.5C10.0047 51.1874 10.2633 49.8877 10.7656 48.675C11.2679 47.4623 12.0041 46.3604 12.9323 45.4323C13.8604 44.5041 14.9623 43.7679 16.175 43.2656C17.3877 42.7633 18.6874 42.5047 20 42.5047V37.5C18.2948 37.5 16.6041 37.7907 15 38.3579C14.7511 38.4459 14.5042 38.5405 14.2597 38.6418C12.4399 39.3956 10.7863 40.5005 9.3934 41.8934C8.00052 43.2863 6.89563 44.9399 6.14181 46.7597C6.04054 47.0042 5.94587 47.2511 5.85786 47.5C5.29075 49.1041 5 50.7948 5 52.5H10.0047Z" fill="#006AC6"/>
<path d="M20 52.5H25C25 45.5964 30.5964 40 37.5 40C44.4036 40 50 45.5964 50 52.5H55C55 42.835 47.165 35 37.5 35C27.835 35 20 42.835 20 52.5Z" fill="#006AC6"/>
</svg>
