<svg xmlns="http://www.w3.org/2000/svg" viewBox="0 0 125.65 125.64"><defs><style>.cls-1,.cls-2,.cls-3{fill:#fff;}.cls-1{opacity:0.5;}.cls-3{font-size:60px;font-family:Arial-BoldMT, Arial;font-weight:700;}</style></defs><g id="Calque_2" data-name="Calque 2"><g id="Calque_1-2" data-name="Calque 1"><g id="_1_4" data-name="1/4"><path class="cls-1" d="M125.65,62.83a62.82,62.82,0,0,1-62.82,62.81h0v-11h0a51.88,51.88,0,0,0,51.82-51.81Z"/><path class="cls-1" d="M62.82,114.64v11A62.83,62.83,0,0,1,0,62.83H11A51.89,51.89,0,0,0,62.82,114.64Z"/><path class="cls-1" d="M62.82,0V11A51.88,51.88,0,0,0,11,62.82H0A62.82,62.82,0,0,1,62.82,0Z"/><path class="cls-2" d="M125.65,62.82h-11A51.88,51.88,0,0,0,62.83,11h0V0h0A62.82,62.82,0,0,1,125.65,62.82Z"/><text class="cls-3" transform="translate(17.63 86.13)">1/4</text></g></g></g></svg>