<svg xmlns="http://www.w3.org/2000/svg" viewBox="0 0 125.65 125.64"><defs><style>.cls-1,.cls-2{fill:#fff;}.cls-2{opacity:0.5;}</style></defs><g id="Calque_2" data-name="Calque 2"><g id="Calque_1-2" data-name="Calque 1"><g id="_2_4" data-name="2/4"><path class="cls-1" d="M125.65,62.83a62.82,62.82,0,0,1-62.82,62.81h0v-11h0a51.88,51.88,0,0,0,51.82-51.81Z"/><path class="cls-2" d="M62.82,114.64v11A62.83,62.83,0,0,1,0,62.83H11A51.89,51.89,0,0,0,62.82,114.64Z"/><path class="cls-2" d="M62.82,0V11A51.88,51.88,0,0,0,11,62.82H0A62.82,62.82,0,0,1,62.82,0Z"/><path class="cls-1" d="M125.65,62.82h-11A51.88,51.88,0,0,0,62.83,11h0V0h0A62.82,62.82,0,0,1,125.65,62.82Z"/><path class="cls-1" d="M50.73,76.65v7.64H21.87a19.85,19.85,0,0,1,2.81-8.21q2.36-3.89,9.26-10.3a58.77,58.77,0,0,0,6.83-7,9.09,9.09,0,0,0,1.7-5A5.73,5.73,0,0,0,41,49.48,5.52,5.52,0,0,0,36.9,48a5.45,5.45,0,0,0-4.1,1.55c-1,1-1.6,2.75-1.76,5.15l-8.2-.82q.73-6.8,4.6-9.75a15.47,15.47,0,0,1,9.67-3q6.35,0,10,3.43a11.23,11.23,0,0,1,3.63,8.52,14.93,14.93,0,0,1-1,5.53,22.43,22.43,0,0,1-3.3,5.49A52.49,52.49,0,0,1,41,69.62c-2.59,2.38-4.24,4-4.93,4.74a14,14,0,0,0-1.69,2.29Z"/><path class="cls-1" d="M53.66,85,64.29,40.61h6.19L59.72,85Z"/><path class="cls-1" d="M89.11,84.29V75.65H71.53v-7.2L90.16,41.17h6.92V68.42h5.33v7.23H97.08v8.64Zm0-15.87V53.74L79.24,68.42Z"/></g></g></g></svg>