<svg xmlns="http://www.w3.org/2000/svg" viewBox="0 0 125.65 125.64"><defs><style>.cls-1{fill:#fff;}</style></defs><g id="Calque_2" data-name="Calque 2"><g id="Calque_1-2" data-name="Calque 1"><g id="_4_4" data-name="4/4"><path class="cls-1" d="M125.65,62.83a62.82,62.82,0,0,1-62.82,62.81h0v-11h0a51.88,51.88,0,0,0,51.82-51.81Z"/><path class="cls-1" d="M62.82,114.64v11A62.83,62.83,0,0,1,0,62.83H11A51.89,51.89,0,0,0,62.82,114.64Z"/><path class="cls-1" d="M62.82,0V11A51.88,51.88,0,0,0,11,62.82H0A62.82,62.82,0,0,1,62.82,0Z"/><path class="cls-1" d="M125.65,62.82h-11A51.88,51.88,0,0,0,62.83,11h0V0h0A62.82,62.82,0,0,1,125.65,62.82Z"/><path class="cls-1" d="M39.94,84.29V75.65H22.37v-7.2L41,41.17h6.91V68.42h5.33v7.23H47.91v8.64Zm0-15.87V53.74L30.07,68.42Z"/><path class="cls-1" d="M54.53,85,65.17,40.61h6.18L60.6,85Z"/><path class="cls-1" d="M90,84.29V75.65H72.41v-7.2L91,41.17H98V68.42h5.33v7.23H98v8.64Zm0-15.87V53.74L80.11,68.42Z"/></g></g></g></svg>