<svg xmlns="http://www.w3.org/2000/svg" viewBox="0 0 129.64 111.64"><defs><style>.cls-1{fill:#198b7e;}.cls-2{fill:#3f3f3f;}.cls-3{font-size:13px;fill:#fff;font-family:FranklinGothic-Medium, Franklin Gothic Medium;font-weight:500;}</style></defs><g id="Calque_2" data-name="Calque 2"><g id="Layer_1" data-name="Layer 1"><path class="cls-1" d="M29.91,97.73l-.12,0-7.55,2.5,0-.08a.5.5,0,0,0-.62-.31l-1.05.35a.49.49,0,0,0-.32.62l.08.23-3.65-1.78L0,108.81l19.08-2.22L21,103l.08.23a.5.5,0,0,0,.62.31l1.05-.35a.49.49,0,0,0,.32-.62l0-.07,11.1-3.67c-.73-.17-1.38-.34-2-.49C31.17,98.09,30.42,97.87,29.91,97.73ZM2.56,108l13.9-7.7,3.95,1.81Z"/><path class="cls-1" d="M113,99.23,109.34,101l.08-.23a.49.49,0,0,0-.32-.62l-1-.35a.5.5,0,0,0-.62.31l0,.08-8.86-2.93-1,.32L96,98.1c-.44.14-.91.27-1.4.4l12.06,4,0,.07a.5.5,0,0,0,.31.62l1.06.35a.5.5,0,0,0,.62-.31l.08-.23,1.87,3.6,19.08,2.22Zm-3.76,2.84,4-1.81,13.9,7.7Z"/><path class="cls-1" d="M89.64,99.82l-2.78.62a33.2,33.2,0,0,1-41.55.68l-2.59-.45c-.91-.15-1.77-.34-2.6-.5l-1.34-.27c.65.67,1.32,1.32,2,1.95a36.52,36.52,0,0,0,49.77,0q1.61-1.48,3.07-3.07C92.42,99.12,91.1,99.52,89.64,99.82Z"/><path class="cls-1" d="M81.32,101.5c-1,.15-2,.28-3.11.43L78,102a31.35,31.35,0,0,1-24,.31L51.58,102c-.53-.05-1-.11-1.57-.18H50a32.46,32.46,0,0,0,32.19-.47Z"/><path class="cls-1" d="M32.48,82.31l1.22.18.36.06a47,47,0,0,1-5.3-21L28.21,7.8c4.39,1,24.54,5.35,37.42-.13,12.89,5.48,33,1.17,37.43.13l-.55,53.75a46.65,46.65,0,0,1-4.74,19.86l.24,0,1.29-.15a48,48,0,0,0,4.52-19.68L104.38,7V6.11l-.83.21c-.24.07-23.89,6.08-37.66,0l-.27-.12-.26.12c-13.77,6-37.42,0-37.66,0l-.83-.21.57,55.45A48.05,48.05,0,0,0,32.48,82.31Z"/><path class="cls-2" d="M33.88,90.86a3.72,3.72,0,0,0,1.52.26c1,.11,1.9.31,2.86.33,2.48,0,4.89.72,7.36.91,1.58.12,3.12.38,4.71.38H63.65c.56,0,1.09-.12,1.64-.12,3.69,0,7.37,0,11.06,0H78.5a5.36,5.36,0,0,0,1.06-.09,7.93,7.93,0,0,1,1.38,0h1.47a6.52,6.52,0,0,0,1.47-.21,8.4,8.4,0,0,1,1.42,0c.49,0,.93-.12,1.41-.12s.87-.2,1.32-.23c.2,0,.34-.06.53-.09s.47,0,.7,0a3,3,0,0,0,.53-.15,5.81,5.81,0,0,1,.71-.11c.4-.07.78-.24,1.17-.33a11.06,11.06,0,0,0,1.24-.38c.41-.14.81-.22,1.21-.32s.71-.21,1.06-.33a3.38,3.38,0,0,0,1-.38"/><path class="cls-1" d="M32.3,96.6c5.28,1.49,11.77,1.79,17.24,2.06,6.47.31,13-.09,19.44-.09,10.42,0,19.49.34,28.84-3C105,93,101.89,81.45,94.65,84.06,86.52,87,78.27,86.66,69,86.66c-5.69,0-11.37.18-17.05.13-5.13-.05-11.74-.34-16.47-1.67C28.08,83,24.93,94.52,32.3,96.6Z"/><path class="cls-1" d="M32.18,98.05c1,.21,2.14.44,3.5.69l2.15.41,2.39.4c.83.14,1.7.3,2.6.43l2.8.4c1,.15,2,.25,3,.37l1.53.18c.51.06,1,.12,1.56.16l3.21.28c1.08.08,2.18.13,3.29.2.55,0,1.11.07,1.67.08l1.68,0c1.12,0,2.25.07,3.37,0l3.38,0,3.35-.15c1.11,0,2.2-.15,3.29-.23s2.15-.16,3.2-.31l3.09-.37c1-.13,2-.31,3-.45,1.91-.27,3.71-.66,5.37-1L90.74,99l1.15-.27L94,98.2c.67-.17,1.3-.29,1.87-.45l1.58-.43,2.56-.7.43-.12a8.44,8.44,0,0,0,1.85-.66l1.32-.08a1.35,1.35,0,0,0,1.12-.87l.23-.84c7.59,1.83,12.54-1.81,12.54-1.81-2.41,1.75-10.27-3.91-4.59-3.09a7.33,7.33,0,0,0,7.82-3.88c-3.73,1.64-12.68-.59-13.21-.73l.5-1.83c.34-1.25-.9-1.83-3.37-1.4a53.28,53.28,0,0,0,2.14-6.51l13-4.28a2.61,2.61,0,0,0,2,.09c1-.35.34-2.15.34-2.15s-.5-1.88-1.56-1.53a2.62,2.62,0,0,0-1.59,1.3l-11.58,3.82a52.9,52.9,0,0,0,1.08-10L109.16,0,107,.57c-.26.07-25.82,6.58-40.58.09l-.71-.3-.7.3C50.21,7.14,24.63.64,24.38.57L22.17,0l.63,62.09A52.83,52.83,0,0,0,24,72.65L10.61,68.23A2.62,2.62,0,0,0,9,66.93C8,66.58,7.46,68.46,7.46,68.46s-.71,1.8.34,2.15a2.61,2.61,0,0,0,2.05-.09l14.83,4.89a54,54,0,0,0,1.81,5.48c-1.69-.53-2.66-.17-2.66.93v1.89c-.55,0-9.81.08-13-2.39a7.08,7.08,0,0,0,6.56,5.59c5.72.54-3.38,4.19-5.26,1.93,0,0,3.85,4.68,11.69,4.68v.87a1.31,1.31,0,0,0,.85,1.11l3.11.94a2,2,0,0,0,1.35,1l.93.2h0Zm1.45-4-1.74-.32L33,88s0-.55,0-.6l2.13.39c1,.18,1.88.65,1.67,1.83a1.39,1.39,0,0,1-1.34,1.22,1.65,1.65,0,0,1,1.06,1.94C36.17,94.28,34.87,94.31,33.63,94.09Zm-7.33-32L25.71,4.48C32.36,6,52.28,9.61,65.66,4.17,79.05,9.61,99,6,105.62,4.48L105,62.05a50,50,0,0,1-4,19H101l0,.1-.12,0h0l-1.75.28h0l-1.14.19-3.45.55c-1.33.21-2.84.44-4.48.67l-2.57.36-2.75.35c-.94.13-1.91.25-2.9.35l-3,.34c-2.07.18-4.21.41-6.38.55s-4.39.26-6.6.37-4.43.12-6.61.08-4.33-.1-6.4-.17l-3.06-.19-1.48-.1-1.44-.14-2.76-.27-2.57-.34c-.82-.11-1.61-.2-2.36-.32l-2.12-.36-1.86-.31-1.58-.32-2.22-.46-.59-.11h0l-.17,0,0-.1h.09A50.17,50.17,0,0,1,26.3,62.05ZM96.47,93.39,95,87.68l-.27-.54,3.78-1,.14.6-2.85.71.55,2.17,2.21-.55.15.58-2.21.56.58,2.34,2.85-.72.15.6ZM84.29,89.65s-.19-.52-.2-.57L85,89l.91,6.42-.82.11Zm8-.81a2.1,2.1,0,0,0-1.58-.31c-1.5.28-1.81,1.78-1.57,3.08s1.08,2.49,2.58,2.21A2.62,2.62,0,0,0,93.21,93l.49.52a3.46,3.46,0,0,1-1.83,1c-1.92.36-3.25-1-3.59-2.75a3,3,0,0,1,2.38-3.82,2.82,2.82,0,0,1,2,.33ZM49,94.38A2,2,0,0,1,46.58,96a4,4,0,0,1-1.75-.66l.4-.7a2.42,2.42,0,0,0,1.44.72,1.18,1.18,0,0,0,1.42-1c.17-1.69-2.83-1.49-2.63-3.52a1.84,1.84,0,0,1,2.2-1.48,3.3,3.3,0,0,1,1.61.65l-.46.55A2.29,2.29,0,0,0,47.58,90c-.63-.06-1.15.19-1.22.87C46.22,92.29,49.2,92.26,49,94.38Zm-9.3-5.26s0-.54,0-.6l3.86.53-.09.61-2.91-.4-.3,2.22,2.26.31-.08.6-2.26-.31-.33,2.39,2.91.4-.08.6L38.88,95Zm13.07,7.32.38-5.86-1.92-.12,0-.62,4.71.31,0,.61-2-.12-.38,5.85Zm11.62-.16A2.69,2.69,0,0,0,66,95.74l.37.6a3.41,3.41,0,0,1-2,.61,3.06,3.06,0,0,1-3-3.38,3,3,0,0,1,3.06-3.3,2.78,2.78,0,0,1,1.93.71l-.46.52a2.22,2.22,0,0,0-1.5-.61c-1.53,0-2.11,1.41-2.12,2.74S62.84,96.27,64.38,96.28Zm8.39.36-.12-3.06-3.16.13.13,3.06-.83,0-.24-5.9s-.14-.53-.15-.58l.95,0,.12,2.81L72.62,93l-.11-2.82.82,0,.27,6.48Zm3.4-3.43c-.17-1.77.6-3.41,2.54-3.6s3,1.29,3.18,3-.62,3.41-2.55,3.59S76.34,95,76.17,93.21Z"/><path class="cls-1" d="M43.78,82.42c8.43,0,8.39-11.73,13-19.68,4.07-7,5.47-5.33,8.7-5.53a2.18,2.18,0,0,0,.25.77s-3.92-.78-5.33,1.24c-1,1.48-1.1,4.9-1.71,7.69-1,1.2-.7,1.92-.64,2a2.59,2.59,0,0,1-.14.29,3.67,3.67,0,0,1-1.86,1.22,6,6,0,0,0,1.65-.18,3.87,3.87,0,0,1-1.19.54,9,9,0,0,0,1.24-.07,3.15,3.15,0,0,1-1.62,1C58.82,72,59,70.64,59,70.64s0-.1,0-.25a1.55,1.55,0,0,0,.88-.88.67.67,0,0,1,0-.1c.5-1.9.16-5.45,2.2-6.8.88-.58,2.73-.12,4.64.37.93,2.49,3,5.84,2.46,8.17-.9,1.26-.68,2-.59,2.27a1.62,1.62,0,0,0,0,.22,4.8,4.8,0,0,1-2.56,1.76,7.13,7.13,0,0,0,2.13-.23,4.88,4.88,0,0,1-1.54.7,10.73,10.73,0,0,0,1.6-.09,4.1,4.1,0,0,1-2.08,1.36c3.41.2,3.69-1.49,3.69-1.49s0-.13,0-.34c1-.49,1.13-1.12,1.13-1.12a18.7,18.7,0,0,0,.21-1.86A4.06,4.06,0,0,0,71.57,70c-.52-1.76-2-4.15-1.28-6.34,1.22.1,2.16-.13,2.47-1.09a3.52,3.52,0,0,0,.15-1.08c2.63-1.16,6.23-2.15,5.66-4.3A8.08,8.08,0,0,0,76.14,54a16.38,16.38,0,0,1,4.62-.74h1.18A15.25,15.25,0,0,0,84.46,56c.16.15.31.3.44.44a2.4,2.4,0,0,0,.82,1.37,2.2,2.2,0,0,0,.92.45c-.29,1-1,.16-1,.16.74,1.25,1.34,1.05,1.79.45,1.08,1-.44,1.08-.44,1.08,1.4.34,1.72-.3,1.68-1,1.31.9-.08,1.49-.08,1.49,2.51-.61.84-2.26,0-3.05a15.16,15.16,0,0,1-1.91-2.08,14.4,14.4,0,0,0,4.8-3.28l.29-.31A2.44,2.44,0,0,0,93,50.85a3.21,3.21,0,0,0,.59-1.72c1.31-.53.94.72.94.72.7-1.44.15-1.87-.67-1.92.27-1.6,1.26-.25,1.26-.25-.54-1.49-1.32-1.4-2-.91,0-1.75,1.42-.83,1.42-.83-2-3-3.2,1.68-3.5,2.75a2.93,2.93,0,0,1-.63.92,14.37,14.37,0,0,1-2.3,1.54c.19-.26.37-.56.56-.88,1.8-3.22,1.59-4.56.22-8a6.69,6.69,0,0,0-2.38-3.27A6.49,6.49,0,0,1,85,35.57c-.38-2.47,2-3.61,3.81-2.27.76.55,1.93.3,2.61,1.6.37.73,1.83,1.08,2.57,1.21a2.06,2.06,0,0,0,1.83-.51l-.15-.23a3.24,3.24,0,0,0,.33-.83,3.17,3.17,0,0,1-.4.47c0-.09.06-.18.09-.29s-.1.14-.25.31a5.91,5.91,0,0,0-3.23-2.54.72.72,0,0,1,.7-.72,2.67,2.67,0,0,1,.12.44,4.47,4.47,0,0,0,.09-.45l.23,0a3.81,3.81,0,0,1,.18.62,3.44,3.44,0,0,0,.11-.56h0l.19.06a3.59,3.59,0,0,1,.22.7,5.12,5.12,0,0,0,.11-.57l.24.13a3.2,3.2,0,0,1,.25.77,3.56,3.56,0,0,0,.1-.49c.14.15.24.29.35.41a3.61,3.61,0,0,1,.23.73,3.26,3.26,0,0,0,.11-.48,1.12,1.12,0,0,0,.24.08l.37,0a6,6,0,0,1,.16.89c0-.16,0-.31,0-.45a5.89,5.89,0,0,1,.13.8,6.16,6.16,0,0,0,.08-1.24h.19c0-.31.06-.64.06-1,0-2.38-3.54-2.68-5.44-5.48-1-1.45-3-1.82-5.42-1.34a3.55,3.55,0,0,0-3.9.19,5.13,5.13,0,0,1,2.41.2c-.26.08-.52.18-.78.28a3.6,3.6,0,0,0-3.48.4,5.44,5.44,0,0,1,2.26.13l-.87.46a3.63,3.63,0,0,0-3.24.8,5.76,5.76,0,0,1,2.12-.12c-.29.19-.57.4-.85.61a3.73,3.73,0,0,0-2.75,1.13,6.14,6.14,0,0,1,1.78-.32,6.58,6.58,0,0,0-.71.79,3.61,3.61,0,0,0-2.53,2.27,5.72,5.72,0,0,1,1.81-1.13,6.38,6.38,0,0,0-.33.82,3.62,3.62,0,0,0-1.72,3,5.51,5.51,0,0,1,1.4-1.7,8.38,8.38,0,0,0-.1,1.32,3.63,3.63,0,0,0-1,3.34,5.35,5.35,0,0,1,1.08-2.07,13.58,13.58,0,0,0,.24,1.37,3.66,3.66,0,0,0-.48,3.15,5.58,5.58,0,0,1,.78-2c.17.57.38,1.14.61,1.71-.81.34-1.76.76-3,1.31s-5.18,1.55-9.44-2.1C60,34.7,77.77,22.28,61,17.58s-31.78,9.16-31.78,9.16c5.26-.29,6.13,2.14,10.83,1.18,0,0-1.45,3.29-6.6,4.4,0,0,10.39-1.62,12.34,1.46A6.67,6.67,0,0,0,44,36.44c-.82,2,.48,5,.48,5,1.36-3.26,4.83-3.91,5.56-1.73s-2.68,7.41-2.68,7.41,10.07-10.59,13.43-1.53a7.41,7.41,0,0,0,1,1.93l-.6.36a3.6,3.6,0,0,0-3.72.72,4.81,4.81,0,0,1,2.64,0c-.4.27-.78.56-1.15.84a3.64,3.64,0,0,0-3.14,1.28A5.69,5.69,0,0,1,58,50.29c-.4.35-.77.7-1.13,1.05a3.66,3.66,0,0,0-2.77,1.77,5.93,5.93,0,0,1,1.83-.76c-.38.44-.73.88-1.06,1.33a3.47,3.47,0,0,0-2,1.89,6.06,6.06,0,0,1,1.28-.8c-.31.49-.6,1-.86,1.47a3.34,3.34,0,0,0-1.74,2,5.85,5.85,0,0,1,1.21-.93q-.27.6-.51,1.2a2.93,2.93,0,0,0-1.52,2,4.88,4.88,0,0,1,1.16-1c-.19.54-.35,1.09-.5,1.62a2.54,2.54,0,0,0-1.1,1.63,4.23,4.23,0,0,1,.89-.84c-.16.62-.29,1.23-.41,1.83a2.16,2.16,0,0,0-.85,1.47,3.62,3.62,0,0,1,.72-.78c-.11.55-.2,1.09-.28,1.62a1.7,1.7,0,0,0-.63,1.36,3,3,0,0,1,.52-.74c-.06.42-.13.83-.19,1.22L50,68a1.52,1.52,0,0,0-.47,1.12,2.58,2.58,0,0,1,.38-.57c-.06.4-.13.8-.19,1.2a1,1,0,0,0-.32.94,1.58,1.58,0,0,1,.25-.51c-.07.4-.13.8-.2,1.19a1,1,0,0,0-.22.85,2.13,2.13,0,0,1,.12-.32c-.68,3.71-1.67,6.95-4.31,8-4.62,1.87-6.32-5.71-3.36-7.33,0,0-3.92,1.28-3.41,5.28A5.44,5.44,0,0,0,43.78,82.42ZM38.35,30.78s2.53-2.08,2.59-3.59C40.94,27.19,42,28.42,38.35,30.78Zm-6.2-5.25c6.85-4.79,16.08-7.22,16.08-7.22a4.47,4.47,0,0,0-1.79,1.37C41.32,20.6,32.15,25.53,32.15,25.53ZM44.73,38s-.11-3.41,5.32-6.21A14.94,14.94,0,0,0,44.73,38Zm8,4.47A5.38,5.38,0,0,1,59,42.11,7,7,0,0,0,52.73,42.5Z"/><text class="cls-3" transform="matrix(0.97, 0.23, -0.23, 0.97, 31.03, 94.32)">B</text><text class="cls-3" transform="matrix(0.99, 0.16, -0.16, 0.99, 39.06, 96.16)">A</text><text class="cls-3" transform="translate(47.12 97.49) rotate(6.02)">S</text><text class="cls-3" transform="translate(54.75 98.25) rotate(3.56)">I</text><text class="cls-3" transform="matrix(1, 0.02, -0.02, 1, 58.43, 98.52)">C</text><text class="cls-3" transform="translate(66.18 98.61) rotate(-1.37)"> </text><text class="cls-3" transform="translate(69.7 98.57) rotate(-3.88)">P</text><text class="cls-3" transform="translate(77.2 98.07) rotate(-7.14)">A</text><text class="cls-3" transform="translate(85.31 97.04) rotate(-10.55)">S</text><text class="cls-3" transform="translate(92.93 95.61) rotate(-13.84)">S</text></g></g></svg>