<svg xmlns="http://www.w3.org/2000/svg" viewBox="0 0 1912.37 353.78"><defs><style>.cls-1{fill:#fff;}</style></defs><g id="Calque_2" data-name="Calque 2"><g id="OBJECTS"><path class="cls-1" d="M212.18,300.44c58.53,12.64,120.45,9.18,175.24-5.61,55.79-15,106.16-39.8,151.39-67.31s85.83-57.88,123.48-86.88c18.68-14.28,37.65-29.95,61.07-41.5,23-11.79,52.21-17.37,77.36-13.36,25.34,3.4,46.59,13.4,63.56,25.14,16.82,12,29.84,26,38.65,40.71,17.55,29.26,20.49,57.22,20.61,78.86a183.2,183.2,0,0,1-6.92,49.26c-3.27,10.93-6.25,16.38-8,16.13s-2.37-6.22-2.54-17.21-.12-27.09-3-47.14c-3-19.82-9-44.35-25.62-67.11-8.07-11.2-19.55-21.69-33.4-30.32-14-8.4-30.65-14.86-48.2-16.26-17.61-1.7-34.8,2.27-51.95,11.69s-33.64,23.59-52.21,39c-36.89,30.6-77.52,63-124.76,93.2S465.5,320,402.89,337.56c-63.05,17.61-134,22.14-203.26,7.28-34.55-7.44-67.79-19.8-97-37.34s-54-40.08-71.83-66.23C13.16,215.21,2.62,186.19.41,156.81s4.24-59,20.46-84.48C37,47.26,60.73,27.6,88,15S146.77-2.91,175.84,1.61a153.51,153.51,0,0,1,73.1,31.61A161.11,161.11,0,0,1,292,84.43c9.51,18.31,15.56,37.14,15.21,56.14a62.71,62.71,0,0,1-6.69,27.36,56.12,56.12,0,0,1-19.19,20.87c-16.1,10.15-34.61,12.68-50.37,11-16-1.63-29.44-8.05-38.55-15.71-18.58-15.59-23.39-33-25.22-43.78a63.91,63.91,0,0,1-.76-12.64c.19-2.84.29-4.29.29-4.29s.1,1.45.29,4.27a67,67,0,0,0,2.4,12.29,69.67,69.67,0,0,0,28.31,38.7,63.08,63.08,0,0,0,34.19,10.58c13.22.33,28-3.31,39-11.73s16.25-21.75,14.94-36.66c-1.08-14.89-7.68-31-17.29-46.12a142.56,142.56,0,0,0-39.72-40.8c-16.53-11.43-36.7-19.5-58-21.37C128.62,27.9,81.55,52.8,60,90.41c-21.56,37.3-15.19,88.18,13.83,128.25C102.67,259.14,153.82,288.15,212.18,300.44Z"/><path class="cls-1" d="M1700.19,300.44c-58.54,12.64-120.46,9.18-175.24-5.61-55.79-15-106.16-39.8-151.39-67.31s-85.83-57.88-123.49-86.88c-18.67-14.28-37.64-29.95-61.07-41.5-23-11.79-52.21-17.37-77.35-13.36-25.34,3.4-46.59,13.4-63.56,25.14-16.83,12-29.84,26-38.65,40.71-17.56,29.26-20.49,57.22-20.61,78.86a182.79,182.79,0,0,0,6.92,49.26c3.26,10.93,6.25,16.38,8,16.13s2.36-6.22,2.54-17.21.12-27.09,3-47.14c3-19.82,9-44.35,25.63-67.11,8.07-11.2,19.55-21.69,33.4-30.32,14-8.4,30.65-14.86,48.2-16.26,17.61-1.7,34.8,2.27,52,11.69s33.63,23.59,52.21,39c36.89,30.6,77.52,63,124.76,93.2s101.49,58.25,164.1,75.8c63,17.61,134,22.14,203.26,7.28,34.55-7.44,67.78-19.8,97-37.34s54-40.08,71.83-66.23,28.2-55.08,30.41-84.46-4.24-59-20.47-84.48c-16.1-25.07-39.86-44.73-67.11-57.37s-58.79-17.87-87.85-13.35a153.51,153.51,0,0,0-73.1,31.61,161.11,161.11,0,0,0-43.06,51.21c-9.51,18.31-15.57,37.14-15.21,56.14a62.57,62.57,0,0,0,6.69,27.36A56,56,0,0,0,1631,188.8c16.1,10.15,34.61,12.68,50.36,11,16-1.63,29.45-8.05,38.55-15.71,18.59-15.59,23.4-33,25.23-43.78a65.5,65.5,0,0,0,.76-12.64c-.19-2.84-.29-4.29-.29-4.29s-.1,1.45-.3,4.27A66.84,66.84,0,0,1,1743,140a69.67,69.67,0,0,1-28.31,38.7,63.08,63.08,0,0,1-34.19,10.58c-13.23.33-28-3.31-39-11.73s-16.24-21.75-14.93-36.66c1.08-14.89,7.68-31,17.29-46.12a142.56,142.56,0,0,1,39.72-40.8c16.53-11.43,36.7-19.5,58-21.37,42.24-4.67,89.3,20.23,110.85,57.84,21.56,37.3,15.19,88.18-13.83,128.25C1809.7,259.14,1758.55,288.15,1700.19,300.44Z"/><path class="cls-1" d="M872.94,289.64s-30.37-153.5-81.51-131.8S857,281.88,872.94,289.64Z"/><path class="cls-1" d="M1032.21,296.59s135-85.32,94.94-123S1033.57,279.3,1032.21,296.59Z"/><path class="cls-1" d="M960.62,215.24s54.52-147.07-.88-153.69S951,200.67,960.62,215.24Z"/></g></g></svg>