<svg xmlns="http://www.w3.org/2000/svg" viewBox="0 0 142.92 206.48"><defs><style>.cls-1,.cls-6{fill:#006ac6;}.cls-2{fill:none;stroke:#fff;stroke-miterlimit:10;stroke-width:3px;}.cls-3,.cls-4,.cls-5{fill:#fff;}.cls-4{font-size:60.41px;}.cls-4,.cls-5,.cls-6{font-family:BigJohn, Big John;}.cls-5{font-size:60px;}.cls-6{font-size:23px;}.cls-7{letter-spacing:-0.01em;}</style></defs><g id="Calque_2" data-name="Calque 2"><g id="Calque_1-2" data-name="Calque 1"><path class="cls-1" d="M71.69,179.06C149.1,156,140.16,89.41,140.16,89.41V7.76C131,3.76,71.46,0,71.46,0h0S11.93,3.76,2.76,7.76V89.41S-6.18,156,71.23,179.06l.24.07Z"/><path class="cls-1" d="M71.69,179.06C149.1,156,140.16,89.41,140.16,89.41V7.76C131,3.76,71.46,0,71.46,0h0S11.93,3.76,2.76,7.76V89.41S-6.18,156,71.23,179.06l.24.07Z"/><path class="cls-2" d="M71.67,172c71.26-21.23,63-82.53,63-82.53V14.27c-8.44-3.69-63.24-7.15-63.24-7.15h0s-54.8,3.46-63.24,7.15V89.42S0,150.72,71.25,172l.22.06Z"/><path class="cls-3" d="M74,171.27H69V7.69c0-1,.39-1.76.88-1.76l1.46-.3a.86.86,0,0,1,.32,0l1.46.3c.48,0,.88.79.88,1.76Z"/><rect class="cls-3" x="68.96" y="25.96" width="5" height="127.21" transform="translate(-18.1 161.02) rotate(-90)"/><path id="LYS" class="cls-3" d="M58,118.51a5,5,0,0,0-5.53-2.44,7.05,7.05,0,0,0-4.72,3.16,16,16,0,0,0-2,5.61c-.09.53-.17,1.07-.26,1.62H43.76a2.91,2.91,0,0,0,.05-.7,2.07,2.07,0,0,1,0-.5c.64-2.57,1.27-5.14,1.94-7.71.55-2.12,1.21-4.23,1.69-6.37a4.51,4.51,0,0,0-.16-2.3,37.93,37.93,0,0,0-2-4.7,23.42,23.42,0,0,0-2-2.9,17.64,17.64,0,0,0-3.72,5.13,10.45,10.45,0,0,0-1.25,4.79,10.29,10.29,0,0,0,.18,1.24,8.22,8.22,0,0,0,.27,1.72c.78,2.09,1.65,4.16,2.44,6.25a13.63,13.63,0,0,1,.8,5.48,1.15,1.15,0,0,0,.09.57h-2a3.2,3.2,0,0,0,.09-.91,38.44,38.44,0,0,0-.62-4.15,7.16,7.16,0,0,0-1.11-2.6,8.56,8.56,0,0,0-2-1.7,5.44,5.44,0,0,0-4.63-.79,4.68,4.68,0,0,0-3.3,5.32,3.9,3.9,0,0,0,5.55,2.68s0-.09-.09-.11a2.36,2.36,0,0,1-.88-3.68,3,3,0,0,1,3.59-.34,5.35,5.35,0,0,1,2.22,4.36v1.92H36.72v1.79H42a2.91,2.91,0,0,0-.1.28A4.92,4.92,0,0,1,40,131.23a3.46,3.46,0,0,1-2.89.78c.26,1.58,1.57,1.84,3.45.72a7.79,7.79,0,0,0,2.51,5.34l2.67-4.89a2.16,2.16,0,0,0,3-.46,1.32,1.32,0,0,0,.13-.5c-.17,0-.38-.07-.5,0a1.55,1.55,0,0,1-1.62,0A4.57,4.57,0,0,1,44.69,130c-.24-.57-.44-1.15-.65-1.72,1.64,0,3.28,0,4.92,0,.68,0,.78-.26.77-.84s0-1-.81-1H46.78a12.66,12.66,0,0,1,1.56-4.57,4.59,4.59,0,0,1,2.91-2.34,2,2,0,0,1,1.87.53,1.67,1.67,0,0,1,0,2,15.06,15.06,0,0,1-1.87,1.54,4.64,4.64,0,0,0,4.47.72A4.32,4.32,0,0,0,58,118.51Z"/><path id="BLE" class="cls-3" d="M95.48,101.56l4,3.11.72-5.08h.89l.69,5.06,4.12-3c1.38,3.05-1.58,7.38,3.15,9.35l.56-4.86.88,0,.73,5.1,4.48-3.31V112c0,4.45.08,8.9-.08,13.33,0,1.16-.53,2.78-1.37,3.35a7.14,7.14,0,0,0-3.43,7.53,6.74,6.74,0,0,1-.36,2h-.82a35,35,0,0,1-.27-3.81c.06-1.76-.1-3.39-1.83-4.3-2.76-1.46-3.12-4-2.89-6.9-5,1.47-2.31,5.81-3.82,8.9-2.16-2.83.94-7.37-3.83-8.81a11.72,11.72,0,0,1-.23,2.54c-.34,1.08-.65,2.51-1.47,3A6.77,6.77,0,0,0,92,136.09a7.94,7.94,0,0,1-.25,2.08l-.82.12a13.7,13.7,0,0,1-.4-3.08c.23-2.52-.36-4.53-2.68-5.86-1.61-.91-2.12-2.33-2.08-4.19.1-5.55,0-11.09,0-17.27l4.29,3.17.75-5h.88l.56,4.61C94.59,110,94.59,110,95.48,101.56Zm14,27.82c.59-3.89.11-4.74-3.28-6C105.4,126.24,106.59,128.07,109.44,129.38Zm-22.11-6.29c-.47,3.84.24,5,3.31,5.87C91.52,126,90,124.39,87.33,123.09ZM100,116.8c1.07-3-.48-4.68-3-5.91C96.1,114.21,96.57,115.13,100,116.8Zm6.45-5.36c-.9,3.35-.47,4.2,3,6C110.5,114.35,109,112.67,106.43,111.44Zm3,11.88c1-3.18-.44-4.84-3.09-5.92C105.59,120.82,106,121.61,109.47,123.32Zm-21.9-11.95c-.9,3.32-.24,4.56,3,5.9C91.53,114.3,90,112.66,87.57,111.37ZM97,116.86c-.89,3.35-.2,4.61,3.05,5.74C101,119.63,99.58,118,97,116.86Zm-6.57,6.58c.75-3.79.21-4.76-3.09-5.88C86.42,120.42,88,122,90.42,123.44ZM100,111c1-3.1-.39-4.75-2.89-6C96.1,108.19,96.51,109.06,100,111Zm14.11,6.18c-3.7,2.45-3.92,3-2.76,6.16C113.83,122.06,115,120.23,114.07,117.16Zm0,6.14c-3.47,1.51-4,2.63-2.8,5.92C113.82,128,115,126.18,114.11,123.3Zm-19-.17c-2.66,1.44-4,3.13-3,6.13C94.94,128.11,96.05,126.28,95.14,123.13Zm9.47-12.26c-3.63,2.08-3.9,2.69-2.75,6C104.15,115.59,105.59,113.91,104.61,110.87Zm-3,.09c3.47-2,3.91-3,2.74-5.94C101.88,106.21,100.69,108,101.57,111Zm-9.43,12.29c3.32-1.61,3.69-2.35,2.9-5.83C92.39,118.58,91.16,120.33,92.14,123.25Zm9.44-.36c2.63-1.36,4-3,3-6.08C101.8,117.86,100.74,119.7,101.58,122.89Zm9.45-5.32c2.61-1.41,4.07-3.11,3-6.17C111.27,112.53,110.09,114.36,111,117.57Zm-15.92-6.11c-3.67,2.33-3.76,2.55-2.75,6C94.72,116.18,96.15,114.52,95.11,111.46Z"/><text class="cls-4" transform="translate(16.12 72.95) scale(0.76 1)">M</text><text class="cls-5" transform="translate(83.8 72.62)">B</text><text class="cls-6" transform="translate(0 202.85)">MYBLA<tspan class="cls-7" x="88.78" y="0">Z</tspan><tspan x="104.88" y="0">ON</tspan></text></g></g></svg>