<svg xmlns="http://www.w3.org/2000/svg" viewBox="0 0 738.45 133.48"><defs><style>.cls-1,.cls-6{fill:#006ac6;}.cls-2{fill:none;stroke:#fff;stroke-miterlimit:10;stroke-width:3px;}.cls-3,.cls-4,.cls-5{fill:#fff;}.cls-4{font-size:45.02px;}.cls-4,.cls-5,.cls-6{font-family:BigJohn, Big John;}.cls-5{font-size:44.71px;}.cls-6{font-size:100px;}.cls-7{letter-spacing:-0.01em;}</style></defs><g id="Calque_2" data-name="Calque 2"><g id="Calque_1-2" data-name="Calque 1"><path class="cls-1" d="M51.6,133.43c57.69-17.18,51-66.8,51-66.8V5.79C95.79,2.81,51.43,0,51.43,0h0S7.07,2.81.23,5.79V66.63s-6.66,49.62,51,66.8l.18,0Z"/><path class="cls-1" d="M51.6,133.43c57.69-17.18,51-66.8,51-66.8V5.79C95.79,2.81,51.43,0,51.43,0h0S7.07,2.81.23,5.79V66.63s-6.66,49.62,51,66.8l.18,0Z"/><path class="cls-2" d="M51.59,128.13c53.1-15.82,47-61.49,47-61.49v-56C92.26,7.89,51.43,5.3,51.43,5.3h0S10.6,7.89,4.3,10.63v56s-6.13,45.67,47,61.49l.17.05Z"/><path class="cls-3" d="M53.29,127.63H49.57V5.73c0-.73.29-1.31.66-1.31l1.08-.22a.49.49,0,0,1,.24,0l1.09.22c.36,0,.65.58.65,1.31Z"/><rect class="cls-3" x="49.57" y="19.34" width="3.73" height="94.8" transform="translate(-15.31 118.17) rotate(-90)"/><path id="LYS" class="cls-3" d="M41.4,88.31a3.7,3.7,0,0,0-4.12-1.82,5.28,5.28,0,0,0-3.52,2.36A11.82,11.82,0,0,0,32.27,93c-.07.39-.13.79-.2,1.21H30.79a2.89,2.89,0,0,0,0-.53,1.53,1.53,0,0,1,0-.37c.48-1.91.95-3.83,1.45-5.74.41-1.59.9-3.15,1.26-4.75a3.31,3.31,0,0,0-.12-1.71A29.22,29.22,0,0,0,32,77.63a19.64,19.64,0,0,0-1.51-2.16,12.81,12.81,0,0,0-2.77,3.83,7.82,7.82,0,0,0-.94,3.57c0,.3.09.61.13.92a7.59,7.59,0,0,0,.2,1.28c.59,1.56,1.24,3.1,1.83,4.65a10.19,10.19,0,0,1,.59,4.09,1,1,0,0,0,.07.42H28.05a2.28,2.28,0,0,0,.07-.68,26.77,26.77,0,0,0-.46-3.09,5.57,5.57,0,0,0-.82-1.94,6.5,6.5,0,0,0-1.52-1.27,4.08,4.08,0,0,0-3.45-.59,3.49,3.49,0,0,0-2.45,4,2.9,2.9,0,0,0,4.13,2s0-.06-.06-.08a1.76,1.76,0,0,1-.66-2.74,2.22,2.22,0,0,1,2.67-.25,4,4,0,0,1,1.66,3.25v1.43H25.54v1.33h3.95a1,1,0,0,0-.08.21,3.65,3.65,0,0,1-1.39,2,2.62,2.62,0,0,1-2.16.58c.2,1.18,1.18,1.38,2.57.54a5.85,5.85,0,0,0,1.87,4c.68-1.23,1.34-2.44,2-3.64a1.63,1.63,0,0,0,2.27-.35,1.06,1.06,0,0,0,.1-.37c-.13,0-.28,0-.38,0a1.13,1.13,0,0,1-1.2,0,3.46,3.46,0,0,1-1.6-1.69c-.17-.42-.33-.85-.48-1.28h3.67c.5,0,.58-.19.56-.62s0-.73-.6-.73H33a9.45,9.45,0,0,1,1.16-3.41,3.42,3.42,0,0,1,2.17-1.74,1.45,1.45,0,0,1,1.39.4,1.22,1.22,0,0,1,0,1.47,12,12,0,0,1-1.39,1.15,3.46,3.46,0,0,0,3.33.53A3.21,3.21,0,0,0,41.4,88.31Z"/><path id="BLE" class="cls-3" d="M69.33,75.68l3,2.32.54-3.78h.67L74.06,78l3.07-2.26c1,2.28-1.18,5.5,2.35,7l.42-3.62.66,0,.54,3.79,3.33-2.46c0,1.25,0,2.16,0,3.06,0,3.32.06,6.63-.06,9.94a3.47,3.47,0,0,1-1,2.49,5.32,5.32,0,0,0-2.55,5.61,5,5,0,0,1-.27,1.48h-.61a24.8,24.8,0,0,1-.2-2.84c0-1.31-.08-2.53-1.37-3.21-2-1.08-2.32-3-2.15-5.13-3.7,1.09-1.72,4.33-2.84,6.63-1.62-2.12.69-5.49-2.86-6.57a9,9,0,0,1-.17,1.89c-.25.81-.49,1.87-1.09,2.26a5,5,0,0,0-2.5,5.41,6,6,0,0,1-.19,1.55l-.61.09a10.14,10.14,0,0,1-.3-2.29c.17-1.88-.27-3.38-2-4.37a3.15,3.15,0,0,1-1.55-3.12c.08-4.14,0-8.27,0-12.88l3.2,2.37L65.87,79h.66l.41,3.44C68.67,82,68.67,82,69.33,75.68Zm10.4,20.73c.44-2.9.09-3.53-2.44-4.51C76.72,94.07,77.61,95.44,79.73,96.41ZM63.26,91.73c-.35,2.86.18,3.73,2.46,4.37C66.38,93.9,65.25,92.69,63.26,91.73ZM72.69,87c.79-2.28-.36-3.49-2.24-4.41C69.79,85.11,70.14,85.79,72.69,87Zm4.8-4c-.67,2.5-.35,3.13,2.25,4.45C80.52,85.21,79.4,84,77.49,83Zm2.26,8.85c.72-2.37-.32-3.6-2.3-4.4C76.86,90,77.17,90.62,79.75,91.89ZM63.43,83c-.66,2.48-.17,3.4,2.26,4.4C66.39,85.17,65.23,84,63.43,83Zm7,4.09c-.66,2.5-.14,3.44,2.28,4.28C73.45,89.15,72.38,87.91,70.45,87.08ZM65.56,92c.56-2.82.16-3.55-2.3-4.38C62.58,89.73,63.73,90.93,65.56,92Zm7.11-9.28c.75-2.31-.29-3.54-2.15-4.43C69.79,80.62,70.1,81.27,72.67,82.7Zm10.51,4.6c-2.76,1.83-2.92,2.21-2.05,4.6C83,91,83.9,89.59,83.18,87.3Zm0,4.58c-2.59,1.13-3,2-2.09,4.41C83,95.37,83.9,94,83.21,91.88Zm-14.13-.13c-2,1.07-3,2.33-2.2,4.57C68.92,95.47,69.75,94.1,69.08,91.75Zm7.06-9.13c-2.71,1.55-2.92,2-2.06,4.49C75.79,86.13,76.87,84.88,76.14,82.62Zm-2.28.07c2.59-1.48,2.92-2.22,2-4.43C74.1,79.15,73.21,80.48,73.86,82.69Zm-7,9.15c2.47-1.2,2.75-1.74,2.16-4.34C67,88.37,66.11,89.67,66.84,91.84Zm7-.27c2-1,3-2.26,2.26-4.53C74,87.83,73.25,89.2,73.87,91.57Zm7-4c2-1,3-2.32,2.24-4.6C81.1,83.86,80.22,85.22,80.92,87.61ZM69.05,83.06c-2.73,1.74-2.8,1.9-2,4.45C68.77,86.58,69.83,85.34,69.05,83.06Z"/><text class="cls-4" transform="translate(10.19 54.36) scale(0.76 1)">M</text><text class="cls-5" transform="translate(60.62 54.11)">B</text><text class="cls-6" transform="translate(117.06 101.34)">MYBLA<tspan class="cls-7" x="386" y="0">Z</tspan><tspan x="456" y="0">ON</tspan></text></g></g></svg>