<svg xmlns="http://www.w3.org/2000/svg" viewBox="0 0 155.62 99.39"><defs><style>.cls-1{fill:#006ac6;}.cls-2{font-size:10px;fill:#fff;font-family:FranklinGothic-Medium, Franklin Gothic Medium;font-weight:500;}</style></defs><g id="Calque_2" data-name="Calque 2"><g id="Layer_1" data-name="Layer 1"><path class="cls-1" d="M51.85,40.32c0-.3-.05-.6-.07-.9-.25.22-.28.58-.44.85A.86.86,0,0,1,51.85,40.32Z"/><path class="cls-1" d="M51.42,41.45a1.08,1.08,0,0,1,.55.37c0-.29,0-.59-.07-.89C51.67,41,51.58,41.26,51.42,41.45Z"/><path class="cls-1" d="M103.72,40.93c0,.3,0,.6-.08.9a1.06,1.06,0,0,1,.56-.38C104,41.25,104,41,103.72,40.93Z"/><path class="cls-1" d="M103.84,39.42c0,.3,0,.6-.07.9a.85.85,0,0,1,.51,0C104.12,40,104.09,39.64,103.84,39.42Z"/><path class="cls-1" d="M151.27,48.53c-2.61-1.26-4.73-1.2-6.66,0a2,2,0,0,0-.72.78,16.52,16.52,0,0,1-2,1.77,1.6,1.6,0,0,0,1.34-.07c-.14.22-.31.47-.51.74a1.83,1.83,0,0,0,.9.05s0,.08,0,.12a1.18,1.18,0,0,0,.6,1,9.7,9.7,0,0,1,.19-1.4c.18.64.65.61.65.61a3.33,3.33,0,0,1,.23-2.21,4.63,4.63,0,0,1,4.73-.83c1.33.55,4.51,2.11,4.36,8.87s-5.38,8.53-9,7.82c-2.23-.44-4.06-1.67-5-4.78-1.07-3.5-2-4.12-3-8.24l-.12-.51h0c-.55-2.23-1.18-4.25-1.66-5.74a42.28,42.28,0,0,1-1.45-5A34.31,34.31,0,0,1,136.49,46a42.52,42.52,0,0,1-.76-4.9c.68.09.92.27,1.29,1.28a5.54,5.54,0,0,0,0-2.28,7.08,7.08,0,0,0,2.89,1.47,9.18,9.18,0,0,1-1.77-3c.63-.29,1.44-.26,2.18,1a11,11,0,0,0-.92-2.17c.92,1.24,3.16,1.34,3.16,1.34s-2.75-2.18-1.73-4.09a13,13,0,0,0,1.6-3.93c1-3.64-1.65-5-1.65-5a4.15,4.15,0,0,1,2.35.4A4.49,4.49,0,0,0,140,23.38a1.47,1.47,0,0,0,.92-.73c-1.34.16-3.94-1.33-5.28-2.08v0c1.05-.47,2.35.59,2.35.59-1-1.67-2-2.09-2.63-2.13a.9.9,0,0,1,.38-.55c1.15-.76,3.77,3.37,3.77,3.37s-.84-4.11-2.93-5.1-2.28.42-4.25.22a2.34,2.34,0,0,1-1.65-.65,3,3,0,0,1,2,.07,1.29,1.29,0,0,0-.82-1.22,5.91,5.91,0,0,1,2.45.46A13.06,13.06,0,0,0,129.52,13a6.41,6.41,0,0,0-6,.74,14.63,14.63,0,0,1,1.18,1.52,2.52,2.52,0,0,1-1.22.27c-.55,0-1.08-.36-1.62-.2a3.94,3.94,0,0,1-2.07.68,9.13,9.13,0,0,0-2.87.42c-.19.15-.52.65-.33,1,0,0-.75,1.28.2,2a1.72,1.72,0,0,0,.31.88,1.87,1.87,0,0,1,.16-.64h0l.18.06a.66.66,0,0,0,.12.42,1.08,1.08,0,0,1,.11-.35c1.34.41,1.92.38,2.19,1.39,0,0-1-.37-1.47,0a.9.9,0,0,1-.47.19.79.79,0,0,1,0-.3.83.83,0,0,0-.2.32h-.22a1.74,1.74,0,0,1,0-.59,1.31,1.31,0,0,0-.41.82,2.64,2.64,0,0,0-.12,1.75c.28.46.43.73,2.07.9a5.93,5.93,0,0,1,2.82.67,15.16,15.16,0,0,1-1.78.74c-1.3.45-1.93-1-1.93-1-.34,1.65.7,1.79.7,1.79a2.4,2.4,0,0,0-2.41,2.62c1.08-.95,1.54-.34,1.73.44-2.1.92-3.6,3.36-4.44,2.54-1.31-1.29-4-1.61-6.71-4.39-.28-1,.08-2.6-.53-3.09-.79-.62-1.22-.27-1.64-.78-.55-.69-1.47-.12-1.47-.12.78.28.54.84.65,1.3a1.11,1.11,0,0,0-1.25.3c.73.05.68.44.83.8,0,0,0,0,0,0-5.45-1.93-10.43-5.62-14.5-9.46L89.67,13c-.85-.2-1.36-1.43-1.16-2.83s1.11-2.5,2-2.37h0L91.16,4,85.72,7.3v4.25a1.7,1.7,0,0,1-.37,1.29c-1-1.15-2-2.25-2.83-3.27V7.3L77.81,0,73.1,7.3V9.56c-.84,1-1.78,2.13-2.83,3.28a1.72,1.72,0,0,1-.36-1.29V7.3L64.46,4,65.1,7.8h0c.89-.13,1.79.93,2,2.37S66.8,12.79,66,13l.6,3.63c-4.07,3.84-9.05,7.54-14.5,9.47h0c.15-.36.1-.75.83-.8a1.11,1.11,0,0,0-1.25-.3c.11-.46-.12-1,.66-1.3,0,0-.93-.57-1.48.12-.42.51-.84.16-1.64.78-.61.49-.24,2.13-.52,3.09-2.71,2.78-5.4,3.1-6.72,4.39-.84.82-2.34-1.62-4.44-2.54.2-.78.65-1.39,1.73-.44a2.39,2.39,0,0,0-2.41-2.62s1.05-.14.7-1.79c0,0-.62,1.46-1.93,1A15.16,15.16,0,0,1,33.79,25a6,6,0,0,1,2.82-.67c1.64-.17,1.79-.44,2.08-.9a2.59,2.59,0,0,0-.13-1.75,1.31,1.31,0,0,0-.41-.82,1.35,1.35,0,0,1,0,.59h-.22a.72.72,0,0,0-.2-.32.79.79,0,0,1,0,.3.91.91,0,0,1-.46-.19c-.51-.4-1.48,0-1.48,0,.27-1,.85-1,2.19-1.39a.88.88,0,0,1,.11.35.7.7,0,0,0,.13-.42l.18-.06h0a1.91,1.91,0,0,1,.17.64,1.82,1.82,0,0,0,.31-.88c.94-.68.19-2,.19-2,.19-.35-.13-.85-.32-1A9.21,9.21,0,0,0,35.81,16a3.94,3.94,0,0,1-2.07-.68c-.54-.16-1.07.15-1.62.2a2.55,2.55,0,0,1-1.22-.27,13.53,13.53,0,0,1,1.19-1.52,6.43,6.43,0,0,0-6-.74,13.06,13.06,0,0,0-4.82,2.59,5.91,5.91,0,0,1,2.45-.46,1.29,1.29,0,0,0-.82,1.22A3.06,3.06,0,0,1,25,16.29a2.4,2.4,0,0,1-1.66.65c-2,.2-2.16-1.21-4.25-.22s-2.93,5.1-2.93,5.1,2.63-4.13,3.77-3.37a.91.91,0,0,1,.39.55c-.65,0-1.61.46-2.63,2.13,0,0,1.29-1.06,2.34-.59v0c-1.34.75-3.93,2.24-5.28,2.08a1.47,1.47,0,0,0,.92.73,4.49,4.49,0,0,0-3.14,2.71,4.2,4.2,0,0,1,2.36-.4s-2.63,1.35-1.66,5a13.27,13.27,0,0,0,1.6,3.93c1,1.91-1.73,4.09-1.73,4.09s2.24-.1,3.16-1.34a11.71,11.71,0,0,0-.92,2.17c.74-1.23,1.55-1.26,2.18-1a9,9,0,0,1-1.77,3,7,7,0,0,0,2.89-1.47,5.54,5.54,0,0,0,0,2.28c.37-1,.62-1.19,1.29-1.28a40.39,40.39,0,0,1-.76,4.9,34.31,34.31,0,0,1,2.37-4.42,42.28,42.28,0,0,1-1.45,5c-.48,1.49-1.11,3.51-1.65,5.74h0c0,.17-.09.34-.13.51-1,4.12-1.91,4.74-3,8.24-.95,3.11-2.79,4.34-5,4.78-3.58.71-8.8-1.06-9-7.82s3-8.32,4.36-8.87a4.63,4.63,0,0,1,4.73.83,3.27,3.27,0,0,1,.23,2.21s.47,0,.65-.61a11.1,11.1,0,0,1,.2,1.4,1.18,1.18,0,0,0,.59-1,.49.49,0,0,0,0-.12A1.87,1.87,0,0,0,13,51.8c-.21-.27-.38-.52-.52-.74a1.63,1.63,0,0,0,1.35.07,15.12,15.12,0,0,1-2-1.77,2,2,0,0,0-.73-.78c-1.93-1.25-4-1.31-6.66,0-1.86.9-5.6,4.57-3.94,11.87s6.87,7.86,9.78,7.35,5.33-1.73,6.42-3.23A9.74,9.74,0,0,0,17.45,63c.5,3.9.77,5.44,1.69,7.26,0,0,1.18,1.85.18,2.81-.64.6-1.4.93-1.86,1.39a2.05,2.05,0,0,0-.55,1.67c0,2.86,3,4.87,4.52,7.77.19.37.69.46,1.09.55a4,4,0,0,0,1.78-.06c.5-.08,1.12-.54,1.41.5a1.59,1.59,0,0,0,.05-1.25c.51,0,1.14-.22,1.37.6a1.41,1.41,0,0,0-.25-1.64c.61-.09,1.29-.75,1.87.16,0,0,.37-1.41-1.59-2.22a1.39,1.39,0,0,0-1.38,0c-.84-.12-.43-.09-2.05.51,0,0-1.15-.36-2.31-3.55,1-.13,1.58-.87,3.46-2.12,2.22-1.48,3.59-3,4.06-4.41a14.52,14.52,0,0,0,.28-4.8c1.82-.13,2.49.86,4.81-.07a7.72,7.72,0,0,1,.5,2.34c0,.87-.2,1.67-.14,2.31a2.06,2.06,0,0,0,.91,1.5c2.16,1.88,3.3.22,8.85,1.58.41.1.8-.23,1.13-.49A3.8,3.8,0,0,0,46.38,72c.26-.43.32-1.19,1.3-.75a1.63,1.63,0,0,0-.92-.85c.33-.39.57-1,1.34-.65,0,0-.46-1-1.41-.88.31-.52.26-1.46,1.32-1.32,0,0-.83-1.19-2.72-.22a1.37,1.37,0,0,0-.86,1.07c-.64.56-.36.28-.94,1.9,0,0-1.61.47-4.8-.71.17-2,.91-1.58,1.17-3.83.31-2.65.69-4.68-1-6.74a4,4,0,0,0-4.75-1.14,13.34,13.34,0,0,1-3.11.28,4.91,4.91,0,0,1,.09-1C31.5,55,33.21,54.81,35,52.74A38.49,38.49,0,0,0,37.84,49,13.21,13.21,0,0,0,43,47.67c1.4-.83,2.11-1.88,3.28-2A5,5,0,0,0,48,45.2h0l.23-.13c.54-.23.81-.32,1.45-.64A3.23,3.23,0,0,0,51,43a1,1,0,0,1,1-.89c1.54,16.84,5.49,28.9,9.51,37.18l1.22,0c-5.16-10.41-10.29-27.07-10.34-52.2,13-4.57,23.19-18.77,25.42-22C80,8.35,90.28,22.55,103.23,27.12c-.06,27.44-6.17,44.79-11.75,54.9l.44,0c.27,0,.54,0,.81,0,4.46-8.28,9.17-21.1,10.89-39.86a1,1,0,0,1,1,.89,3.29,3.29,0,0,0,1.31,1.44c.64.32.91.41,1.46.64l.22.13h0a5,5,0,0,0,1.69.44c1.17.15,1.88,1.2,3.28,2A13.3,13.3,0,0,0,117.78,49a40.16,40.16,0,0,0,2.86,3.72c1.77,2.07,3.48,2.21,3.91,4.39a4.91,4.91,0,0,1,.09,1,13.34,13.34,0,0,1-3.11-.28A4,4,0,0,0,116.78,59c-1.71,2.06-1.32,4.09-1,6.74.26,2.25,1,1.88,1.17,3.83-3.19,1.18-4.8.71-4.8.71-.58-1.62-.3-1.34-.94-1.9a1.35,1.35,0,0,0-.86-1.07c-1.89-1-2.72.22-2.72.22,1.06-.14,1,.8,1.33,1.32-1-.16-1.42.88-1.42.88.78-.36,1,.26,1.35.65a1.63,1.63,0,0,0-.93.85c1-.44,1,.32,1.3.75a3.74,3.74,0,0,0,1.11,1.39c.32.26.72.59,1.12.49,5.55-1.36,6.7.3,8.85-1.58a2,2,0,0,0,.91-1.5c.06-.64-.18-1.44-.13-2.31a7.56,7.56,0,0,1,.49-2.34c2.32.93,3-.06,4.82.07a14.24,14.24,0,0,0,.27,4.8c.48,1.38,1.84,2.93,4.06,4.41,1.88,1.25,2.49,2,3.46,2.12-1.16,3.19-2.31,3.55-2.31,3.55-1.61-.6-1.21-.63-2-.51a1.39,1.39,0,0,0-1.38,0c-2,.81-1.59,2.22-1.59,2.22.58-.91,1.27-.25,1.87-.16a1.41,1.41,0,0,0-.25,1.64c.23-.82.86-.6,1.37-.6a1.64,1.64,0,0,0,0,1.25c.3-1,.92-.58,1.42-.5a3.91,3.91,0,0,0,1.77.06c.41-.09.9-.18,1.1-.55,1.56-2.9,4.56-4.91,4.51-7.77a2,2,0,0,0-.55-1.67c-.46-.46-1.22-.79-1.85-1.39-1-1,.17-2.81.17-2.81.92-1.82,1.2-3.36,1.7-7.26a9.77,9.77,0,0,0,.83,1.48c1.09,1.5,3.52,2.72,6.42,3.23s8.12-.06,9.78-7.35S153.13,49.43,151.27,48.53Zm-9.7-18.84c-.39,2-1.31,2.88-1.11,3.58a2.45,2.45,0,0,1,.14-2.54c.86-1.44.58-2.4-1.19-3.94C139.41,26.79,142,27.74,141.57,29.69ZM15,30.73a2.46,2.46,0,0,1,.13,2.54c.21-.7-.72-1.62-1.11-3.58s2.16-2.9,2.16-2.9C14.44,28.33,14.17,29.29,15,30.73Zm4.18,5.46c.36,1.44-.32,2.29-1.43,3.62a9.66,9.66,0,0,0,1-3.4c0-1.47.22-3,1.16-3.77C20,32.64,18.85,34.75,19.21,36.19Zm-2.43-13s4.44-1.61,5.2-2.56C22,20.66,22.54,22.26,16.78,23.22ZM26.09,38.3a11.39,11.39,0,0,0-.25-3.49,2.89,2.89,0,0,1,0-2.23c-.18.56.06,1.07.46,2.29S26.22,37.35,26.09,38.3Zm7.3-13.78-.08,0-.11.05a1.38,1.38,0,0,1-.4.1,1.89,1.89,0,0,1-1.45-.43,2,2,0,0,1-.46-.52,1.7,1.7,0,0,1-.21-.58,1.49,1.49,0,0,1,0-.51,1.2,1.2,0,0,1,0-.2c0-.06,0-.12,0-.17a1.9,1.9,0,0,1,.09-.22l0-.08h0l0,.08a1.46,1.46,0,0,0-.06.23s0,.1,0,.16,0,.12,0,.19a2,2,0,0,0,.07.46,1.7,1.7,0,0,0,.66.92,1.76,1.76,0,0,0,.58.29,1.63,1.63,0,0,0,.66.05,1.32,1.32,0,0,0,.33-.08,1.4,1.4,0,0,0,.3-.15,3.56,3.56,0,0,1,.6-.27c.2-.08.4-.14.59-.2l.54-.13c.33-.08.62-.12.82-.15l.31,0v0l-.08,0-.22.07-.79.26-.25.08-.26.1c-.18.06-.37.14-.56.22a5.68,5.68,0,0,0-.55.28Zm3.24,4.95s-.48-2.16,1.53-1.43A1.48,1.48,0,0,0,36.63,29.47ZM50.9,38.9c-.55.38-.85-.08-1.79.28-.68.27-.84,1.75-1.3,2.63-3.19,1.16-3-.28-4.61.92-1,.7-1.58-.7-2.33-2a14.18,14.18,0,0,0,0-1.84,2.56,2.56,0,0,0,2.5-1c.67-.66,1.2-1.44,2.51-2.79,1.13-1.17,1.34-2.49,2.39-3A20.62,20.62,0,0,0,50,30.71s.77-.75,1.31-1.4l.06-.08c0,3.35.18,6.53.4,9.58A.89.89,0,0,0,50.9,38.9Zm.88.52c0,.3,0,.6.07.9a.86.86,0,0,0-.51,0C51.5,40,51.53,39.64,51.78,39.42Zm-.36,2c.16-.19.25-.42.48-.52,0,.3.05.6.07.89A1.08,1.08,0,0,0,51.42,41.45Zm52.22.38c0-.3,0-.6.08-.9.23.1.32.32.48.52A1.06,1.06,0,0,0,103.64,41.83Zm.13-1.51c0-.3,0-.6.07-.9.25.22.28.58.44.85A.85.85,0,0,0,103.77,40.32Zm11,.39c-.75,1.32-1.38,2.72-2.32,2-1.63-1.2-1.43.24-4.62-.92-.46-.88-.61-2.36-1.3-2.63-.94-.36-1.24.1-1.79-.28a.89.89,0,0,0-.84-.09c.22-3.05.35-6.24.4-9.59l.06.09c.54.65,1.31,1.4,1.31,1.4a21.12,21.12,0,0,0,1.73,1.35c1.05.54,1.25,1.86,2.38,3,1.31,1.35,1.84,2.13,2.51,2.79a2.56,2.56,0,0,0,2.5,1A14.18,14.18,0,0,0,114.75,40.71ZM119,29.47A1.49,1.49,0,0,0,117.46,28C119.48,27.31,119,29.47,119,29.47Zm6-6.29a2,2,0,0,1-.22.58,1.87,1.87,0,0,1-.46.52,1.89,1.89,0,0,1-1.45.43,1.38,1.38,0,0,1-.4-.1l-.1-.05-.08,0-.15-.09a5.85,5.85,0,0,0-.56-.28c-.19-.08-.37-.16-.55-.22l-.27-.1-.25-.08-.79-.26-.22-.07-.08,0v0l.32,0c.2,0,.48.07.81.15l.54.13c.19.06.39.12.59.2a4.06,4.06,0,0,1,.61.27,1.2,1.2,0,0,0,.3.15,1.16,1.16,0,0,0,.32.08,1.63,1.63,0,0,0,.66-.05,1.67,1.67,0,0,0,.58-.29,1.7,1.7,0,0,0,.66-.92,1.56,1.56,0,0,0,.07-.46c0-.07,0-.13,0-.19s0-.12,0-.16l0-.23,0-.08h0l0,.08a1,1,0,0,1,.09.22.84.84,0,0,1,.05.17,1.18,1.18,0,0,1,0,.2A2.26,2.26,0,0,1,125,23.18Zm4.83,11.63a11.39,11.39,0,0,0-.25,3.49c-.12-.95-.64-2.21-.24-3.43s.64-1.73.46-2.29A2.84,2.84,0,0,1,129.78,34.81Zm6.64,1.38c.35-1.44-.76-3.55-.76-3.55.94.8,1.15,2.3,1.16,3.77a9.59,9.59,0,0,0,1,3.4C136.73,38.48,136.06,37.63,136.42,36.19Zm-2.78-15.53c.76.95,5.2,2.56,5.2,2.56C133.09,22.26,133.64,20.66,133.64,20.66Z"/><path class="cls-1" d="M81.81,94.9a27.81,27.81,0,0,1-4,3.24,29.72,29.72,0,0,1-5.23-4.45l-1.72-.25a29.88,29.88,0,0,0,6.69,5.8l.26.15.26-.15A26.55,26.55,0,0,0,83.23,95Z"/><path class="cls-1" d="M82.9,46a21.58,21.58,0,0,1,3.6,3.8A8.3,8.3,0,0,0,82.9,46Z"/><path class="cls-1" d="M70.12,36.47c-1.9,3.28,2.15,3,2.15,3C69,39.32,70.12,36.47,70.12,36.47Z"/><path class="cls-1" d="M74.82,94a19.09,19.09,0,0,0,2.44,1.81l.55.32.55-.32A15.67,15.67,0,0,0,80,94.7l-1.52-.18C77.22,94.36,76,94.19,74.82,94Z"/><path class="cls-1" d="M90.38,82C95.69,72.86,102,56.25,102,29v-.78l-.74-.26C88.64,23.6,78.85,7.91,78.75,7.75l-.94-1.53-.94,1.53C76.77,7.91,67,23.59,54.39,28l-.74.26V29c0,24.77,5.19,40.75,10.12,50.35l1.18.07,1.42.11C61.46,70.48,56,54.79,55.86,29.79c10.79-4.12,19.2-15.4,22-19.44,2.74,4,11.16,15.32,22,19.44-.12,26.3-6.18,42.3-11.28,51.12-.22.37-.43.74-.65,1.1C88.7,82,89.55,82.05,90.38,82Z"/><path class="cls-1" d="M54.81,87.12l-.45,0,.1,1.42.63,0a.67.67,0,0,0,.68-.74C55.74,87.28,55.27,87.09,54.81,87.12Z"/><path class="cls-1" d="M110.94,78s0,0,0,0S110.93,78,110.94,78Z"/><path class="cls-1" d="M55.45,86c0-.37-.28-.5-.62-.48l-.58,0,.07,1.07.6,0A.54.54,0,0,0,55.45,86Z"/><path class="cls-1" d="M34.28,79.51a.11.11,0,0,0,0,0S34.28,79.5,34.28,79.51Z"/><path class="cls-1" d="M74.83,88.94c.84.11,1.26-.66,1.36-1.45s-.11-1.67-1-1.77-1.26.69-1.36,1.48S74,88.83,74.83,88.94Z"/><path class="cls-1" d="M85.11,87.56c-.15.49-.3,1-.46,1.43l.86,0C85.37,88.53,85.23,88.05,85.11,87.56Z"/><path class="cls-1" d="M55.91,85.83"/><path class="cls-1" d="M55.91,88.81c3.83,0,3.84-6,0-6s-3.84,6,0,6Z"/><path class="cls-1" d="M60.57,85.21A8.14,8.14,0,0,1,60.43,87a3,3,0,0,0,2.18,2.87,4.41,4.41,0,0,0,5.1-3.35c.4-1.72-.85-4-2.87-3.77a7.93,7.93,0,0,0-5.82,5,3,3,0,0,0,2.87,3.76,6.31,6.31,0,0,0,4.32-1.6,9,9,0,0,0,1.65-2c.57-.91,2-2.41.38-1.44h-3l1-.11,3.61.46a1.33,1.33,0,0,0,.29-1.61h-6c0,3.31.36,6.6,4.52,6.12,2.8-.33,7.75-.93,9.11-3.93a3.07,3.07,0,0,0-1.07-4.07c-5.87-4-9,12.73,1.26,9.86,9.43-2.65-1.71-14.84-4.75-5.81a2.89,2.89,0,0,0,.77,2.9l.2.17a3.06,3.06,0,0,0,3.61.46A4.44,4.44,0,0,0,79.94,88a3.05,3.05,0,0,0-1.36-3.37l-.51-.31a3.06,3.06,0,0,0-3.61.47c-1.59,1.38-1.56,3.35-1.12,5.27a3,3,0,0,0,2.07,2.08c3.82,1.14,8.76-2.81,7.22-7-1.41-3.84-6.54-2.83-7.83.49-1.67,4.28,2,9,6.48,6.43,3.23-1.84,4.33-8.27-.68-8.29-3.84,0-6,5.63-3.48,8.37,3,3.28,8.76.31,9.58-3.54s-4.36-7.66-7.82-5.32c-4.4,3-.65,8.23,3.06,9.34,2.88.86,14.51,2.14,11.79-4.5-1.82-4.42-10.51-3.14-10.21,2a3.07,3.07,0,0,0,3,3c2.89.36,6.06-2,5.71-5.17-.41-3.59-5-4.74-8-3.77-7.38,2.42.05,11,5.08,5.23a3,3,0,0,0-.61-4.68c-3.58-2.15-9.66,1.83-7.31,6,2.42,4.32,9.18,1.24,11.39-1.79a3,3,0,0,0-.46-3.61L92,84.85a2.94,2.94,0,0,0-2.89-.77A5.06,5.06,0,0,0,85.26,89a3,3,0,0,0,1.47,2.57c2.52,1.34,6.41,1.4,7.25-2H88.24c3.06,8.54,13.79-.22,7.48-4.64-8.48-5.94-9.15,10.51-1,7.26,8.82-3.53-3.45-15.17-6.17-6.27-2.44,8,14.42,7.66,12.91,0a3,3,0,0,0-2.87-2.19c-3.83,0-6.15,4.62-3.68,7.57a2.89,2.89,0,0,0,2.89.76c2.3-.69,4.16-2.19,4.57-4.66A3.1,3.1,0,0,0,101,84.1c-4-2.35-10,3.4-7.82,7.48,2.74,5.18,10.27-.24,10.44-4.48.21-4.92-7.09-4.63-7.28.08-.22,5.43,8,4.59,7.75-.54a3,3,0,0,0-3.77-2.87,3.38,3.38,0,0,0-2.63,2.15,3.13,3.13,0,0,0,.46,3.6l.37.42a3,3,0,0,0,3.61.46,7.12,7.12,0,0,0,3.09-3.49c.68-1.29.46-3.4-1.07-4.07-4-1.76-9.13-.58-12.48,2.06-2.48,1.95.25,5.62,2.89,5s6-1.84,8.78-1.85L101.2,83l.27-.1c-3.62,1.18-2.07,6.93,1.58,5.74a4.77,4.77,0,0,0,2.36-1.43c1.63-1.89.6-5.09-2.11-5.08-3.41,0-7,1.25-10.36,2.06l2.9,5a7.23,7.23,0,0,1,2.43-.86c.68-.14,3.42,0,2.84-.27L100,83.91c-.26.48-.46,1.1-1,1.35l3.61.47-.37-.42.47,3.61-.92.59L98.1,86.64l3.23-1.17.76,2.89-3.53.45-.77-2.9c-.79.74-.78,1.42,0,2.07l.76,2.89c.68-.88.46-1.42-.63-1.63l-1.36-3.36-.41.5,2.9.77-.53,2.6-2.87-2.19.1.47.76-2.9A3.21,3.21,0,0,0,94,88c-.93-2.62-5-3-5.74,0l1.5-1.58L91.21,89a1.12,1.12,0,0,1-.57.83l-2.9-.76.35.41-.47-3.61c-.9,1.24-2-.23-1.28,1.43v3l-.66-.49-.6-4.67-.25.16,2.08,2.08-.41-.27,3,3-.57,1.28-.77-2.9c0-1-.6-1.4-1.74-1.06q-3.78-2-5.52,2.29L78.3,88.22,77,86.39l2.08,2.08-.41.52-3.61.46.51.31L74.2,86.4l.67-.68,3.61.47-.2-.17.76,2.9q-2.17-2.67-5.25-.5l-1.07-4.07c-.13.29-5.09,1.1-5.87,1.24l2.9.77c1,1.11.43,0,.43-1.2,0-3.83-5.91-3.84-6,0,0,2.24-.25,4.19,1.45,5.82a3,3,0,0,0,3.61.47c3.41-2.6,2.45-7.92-1.05-10.17a2.93,2.93,0,0,0-3,0c-1.36.83-2.31,4.24-3.35,4.27l2.87,3.77c-.51,2,1.42-.78.08-.65L62,84.9c.16-.36.08-.35-.23,0l2.9-.77-.45-.06L66.38,87a10.68,10.68,0,0,0-.07-3.34c-1-3.69-6.75-2.13-5.74,1.58Z"/><path class="cls-1" d="M101.48,80.53l-1.1.42-1.33.42-1.53.42c-.54.13-1.12.23-1.72.36-1.2.2-2.5.39-3.89.49a41.05,41.05,0,0,1-4.35.13c-1.5,0-3-.11-4.6-.26-1.18-.11-2.37-.25-3.55-.4V79.33l1.86-1.23c3.61.53,4.81,1.77,4.81,1.77l2-2-2-2H80.47V72.66h.07a10.77,10.77,0,0,0,2.07-.6,8.36,8.36,0,0,0,2-1.14,7,7,0,0,0,1.76-2,6.32,6.32,0,0,0,.82-2.66c0-.1,0-.26,0-.37v-.28c0-.19,0-.39,0-.59a8.06,8.06,0,0,0-.2-1.23,6.7,6.7,0,0,0-.47-1.26,5.86,5.86,0,0,0-.74-1.16,6.15,6.15,0,0,0-1-.95,1.84,1.84,0,0,0-.22-.17L85,60a7,7,0,0,0,1.33-1.22,6.4,6.4,0,0,0,1-1.55,6.92,6.92,0,0,0,.46-1.65,8.39,8.39,0,0,0,.1-1.56v-.7l0-.38c0-.12,0-.24,0-.36a10.71,10.71,0,0,0-.29-1.39,9.51,9.51,0,0,0-1.14-2.53,3.62,3.62,0,0,0-.22-.32l.07-.09a5.66,5.66,0,0,0,.56-.85,6.62,6.62,0,0,0,.4-.91,8.12,8.12,0,0,0,.41-1.81c0-.3,0-.59.06-.88v-.66a1.77,1.77,0,0,0,0-.23A5.22,5.22,0,0,0,87.12,41a3.78,3.78,0,0,0-.59-.92,4,4,0,0,0-.82-.72,5.16,5.16,0,0,0-1.83-.69,9.31,9.31,0,0,0-1.71-.16c-.54,0-1.07,0-1.59,0h0v-3c.91.07,1.7.08,2.34.12a14.38,14.38,0,0,0,3-.18c1-.14,2.06,1,4.12.38,2.24-.62,2.42-.07,3.27-.78s-2.3-.33-1.77-.59,1-.1,1.54-.3a1,1,0,0,1,0,.42.56.56,0,0,0,.17-.41,1,1,0,0,1,.09.53.72.72,0,0,0,.12-.74,2.83,2.83,0,0,0,.28-.23c.47-.46-.23-1.17-1.36-1.39-1.43-.27-1.33-1.14-3.5-1.21-1,0-3.16,1.21-4.28,1.22a19.69,19.69,0,0,1-3.3-.2l-.78-.14,0-9.09-2.8-9.69L75,23l0,7.94c-.47-.09-1-.16-1.51-.22-.37,0-.75-.06-1.17-.06a8,8,0,0,0-1.33.1,5.8,5.8,0,0,0-1.52.46A4.73,4.73,0,0,0,68,32.27a5,5,0,0,0-.56.74,6.1,6.1,0,0,0-.8,2.31,10.5,10.5,0,0,0-.12,1.45v.71l0,.23,0,.2a3.41,3.41,0,0,0,.06.43,5.09,5.09,0,0,0,.68,1.79A4.12,4.12,0,0,0,68,41a4.31,4.31,0,0,0,.85.64,5.53,5.53,0,0,0,1.78.63,10.3,10.3,0,0,0,1.63.11A16.64,16.64,0,0,0,75.06,42v2.35H75a19.94,19.94,0,0,0-4.63,1.08c-.51.19-.89.35-1.15.46l-.39.17.15.4.4-.1c.27-.07.66-.17,1.18-.27a22.31,22.31,0,0,1,4.51-.46h0v2.58c-.35,0-.71,0-1.09.08a9.32,9.32,0,0,0-2,.45,5.84,5.84,0,0,0-1.07.52,4.9,4.9,0,0,0-1,.83,5,5,0,0,0-.74,1.11,5.06,5.06,0,0,0-.42,1.18,6.65,6.65,0,0,0-.16,1.14c0,.09,0,.18,0,.27v.78a8.12,8.12,0,0,0,.38,2.17,6.48,6.48,0,0,0,1.14,2.11,7.33,7.33,0,0,0,1.74,1.57h0l-.32.25A6.26,6.26,0,0,0,70,62.65a7.24,7.24,0,0,0-.44,1.14,8.09,8.09,0,0,0-.21,1.14l0,.28c0,.09,0,.2,0,.3s0,.35,0,.55a6.15,6.15,0,0,0,.17,1.27,6.22,6.22,0,0,0,1.15,2.35,7.25,7.25,0,0,0,1.82,1.62,9.45,9.45,0,0,0,2,.94c.23.08.47.15.71.21v3.47H69.53l-2,2,2,2s1.21-1.24,4.81-1.77l1.87,1.23v2.34l-2.61-.4c-1.53-.22-3-.47-4.5-.67s-2.88-.41-4.23-.54-2.64-.23-3.82-.31l-1.71,0-1.55,0-1.36,0-1.15.07c-.7,0-1.25.1-1.63.12l-.57,0c-2.32-.72-3.5-.91-3.9.23a14.75,14.75,0,0,0-1.74-.44c-2.5-2.39-4.17-3-4.37-1.87l-.2,1.24c-.4,0-6.75-2.19-8.48-4.91a6.23,6.23,0,0,0,3.69,5.51c3.86,1.79-2.76,1.89-3.8-.2a12.66,12.66,0,0,0,7.53,6c-.05.29-.08.49-.1.56-.08.52.49.91.49.91.79.46,1.59.91,2.39,1.35,0,.22-.06.36-.07.42-.08.52.51.88.51.88.87.46,1.75.91,2.63,1.35-.07.45-.11.76-.12.86s0,0,0,.07a.84.84,0,0,0,.93.95l.67-.14.8-.18.51-.11.58-.09,1.37-.23L54,91.94c.57-.07,1.19-.1,1.85-.16s1.34,0,2-.08,1.47,0,2.24,0,1.57,0,2.39.09c1.63.07,3.34.24,5.11.42s3.57.44,5.4.69,3.69.52,5.55.75,3.72.46,5.56.61,3.65.26,5.42.27,3.48,0,5.1-.21c.82-.06,1.6-.19,2.36-.29s1.5-.26,2.2-.4,1.36-.32,2-.5,1.23-.34,1.78-.54l1.54-.55,1.28-.54.54-.24.47-.23c.3-.14.54-.27.74-.37l.62-.3a1.15,1.15,0,0,0,.5-1.07c0-.1,0-.41-.11-.87l2.64-1.08s.6-.28.53-.8c0-.06,0-.21-.06-.42l2.42-1s.59-.27.51-.79c0-.07,0-.27-.08-.57,5.69-.58,8-3.73,8-3.74-1.13,1.52-8.07-.32-4-1s4-3.93,4-3.94c-2,1.67-8.55,2.18-8.92,2.25l-.18-1.24c-.18-1.16-1.9-.91-4.43,1.18a12.18,12.18,0,0,0-1.73.28c-.38-1.17-1.59-1.08-4-.37.08.81.16,1.62.25,2.43l-.53.24C102.66,80,102.16,80.29,101.48,80.53ZM87.62,77.85,86.1,79.41a7.78,7.78,0,0,0-3.67-1.56ZM82,76.2l-2.59,1.33V76.2ZM80,75.6H77.81V72.84c.23,0,.46,0,.69,0A11.79,11.79,0,0,0,80,72.74Zm-4.83-8.47-.07,0a2.29,2.29,0,0,1-.61-.49,1.21,1.21,0,0,1-.29-.48,1.24,1.24,0,0,1-.06-.29,1.36,1.36,0,0,1,0-.25v-.2a2.63,2.63,0,0,1,.14-.74,1.68,1.68,0,0,1,.35-.53,2.62,2.62,0,0,1,.55-.42Zm2.69-1.44V51.15l1.48-.1L80,51V67.64a7.82,7.82,0,0,1-1.55.19h-.59Zm4.55,0h0v.11s0,0,0,0a1.23,1.23,0,0,1-.07.29,1.15,1.15,0,0,1-.12.25,2,2,0,0,1-.5.51,3.81,3.81,0,0,1-.88.46l-.29.1V63.37a6,6,0,0,1,1,.46,2.18,2.18,0,0,1,.6.54,1.48,1.48,0,0,1,.25.61,2.89,2.89,0,0,1,.06.45,2.25,2.25,0,0,1,0,.26ZM86,62.63c-1.45-2-5-3.54-5-3.54A7.12,7.12,0,0,1,86,62.63ZM84.92,54a4.36,4.36,0,0,1-.53,1.89,3.29,3.29,0,0,1-1.3,1.23,8.07,8.07,0,0,1-2.15.75l-.42.1,0-7a14,14,0,0,0,2.29-.48,8.15,8.15,0,0,0,1.35-.55l0,0A7.56,7.56,0,0,1,84.92,54Zm-4.38-5.87V46.7a8.91,8.91,0,0,1,1,.52,5.75,5.75,0,0,1,.83.56l-.32.09A10.32,10.32,0,0,1,80.54,48.12ZM82.9,46a8.3,8.3,0,0,1,3.6,3.8Zm-2.1-5a12.81,12.81,0,0,1,1.37-.1,6.54,6.54,0,0,1,1.28.09,2.79,2.79,0,0,1,1,.37A1.57,1.57,0,0,1,85,42,3.12,3.12,0,0,1,85.2,43v.33c0,.14,0,.24,0,.35s0,.46-.08.68a4.54,4.54,0,0,1-.8,2.13,9.77,9.77,0,0,0-1.8-1.1,11.56,11.56,0,0,0-2-.7V41ZM80,37.72v6.86l-.52-.1c-.33-.06-.66-.1-1-.13l-.65-.05V35.2l.31.06c.65.12,1.26.19,1.83.25Zm-2.14-5.87c.8.17,1.56.31,2.14.41v.11c-.66-.07-1.46-.17-2.14-.28Zm3.25.59-.48,0v-.06ZM77.81,16.52,80,23.36v8.58l-1.13-.23-1-.23Zm-7.69,20s-1.14,2.85,2.15,3C72.27,39.48,68.22,39.75,70.12,36.47Zm4.73,2.61a15.89,15.89,0,0,1-2.49,0,3.37,3.37,0,0,1-1.63-.49.71.71,0,0,1-.24-.32,1.52,1.52,0,0,1-.13-.54c0-.06,0-.12,0-.18v-.38h0v0a2,2,0,0,1,0-.25,6.32,6.32,0,0,1,.1-.92,3.18,3.18,0,0,1,.2-.69,1.49,1.49,0,0,1,.23-.38,1,1,0,0,1,.28-.2,2.05,2.05,0,0,1,.51-.16,6.31,6.31,0,0,1,1.53,0c.56,0,1.13.12,1.7.2l.14,0v4.35ZM78.21,46a12.93,12.93,0,0,1,1.74.48v1.7l-.82,0H77.81v-2.3Zm-5.66,9.51a4.38,4.38,0,0,1-.29-1.16l0-.16v-.34s0-.1,0-.15a4.56,4.56,0,0,1,0-.55,3.07,3.07,0,0,1,.1-.43,1.62,1.62,0,0,1,.17-.32,1.3,1.3,0,0,1,.26-.27,2.44,2.44,0,0,1,.43-.26,6,6,0,0,1,1.25-.37l.63-.1,0,6A7.11,7.11,0,0,1,74,57a3.68,3.68,0,0,1-.86-.63A2.91,2.91,0,0,1,72.55,55.49Zm1.07,9.71a2.54,2.54,0,0,0,1.51,2.4v.22A1.88,1.88,0,0,1,73.62,65.2ZM68,77.85l1.72-1.65h1.65Zm5.25-1.07,3,1v1.13Zm-24.32,4a4.27,4.27,0,0,1-.63.18,8.7,8.7,0,0,1-.9.16c-.17,0-.34,0-.52,0a5,5,0,0,1-.55,0,3,3,0,0,1-.57-.1.74.74,0,0,1-.35-.17l0,0-.06-.09a.44.44,0,0,1-.06-.23.48.48,0,0,1,0-.18.88.88,0,0,1,.06-.1,1,1,0,0,1,.24-.2l.21-.13a3,3,0,0,1,.41-.19,1.14,1.14,0,0,1,.7,0,.47.47,0,0,1,.23.15l0,0a.11.11,0,0,0,0,0l-.17,0a1.19,1.19,0,0,0-.61.13,2.91,2.91,0,0,0-.36.22,2.11,2.11,0,0,0-.36.31.13.13,0,0,0,0,.2.6.6,0,0,0,.23.1,3.09,3.09,0,0,0,.52.07,13.49,13.49,0,0,0,2,0c.53,0,.88-.1.88-.1v0Zm6.29,8.38-1.48.1-.26-3.87s-.1-.32-.1-.34l1.5-.11c.66,0,1.39.1,1.44.9a1,1,0,0,1-.8,1,1.18,1.18,0,0,1,1.13,1.06C56.67,88.7,55.92,89.06,55.18,89.11ZM57,80.57c-.24.07-.58.2-1,.31s-.89.22-1.41.31c-.27,0-.53.09-.81.12l-.84.09-.84,0c-.28,0-.55,0-.82,0a3.72,3.72,0,0,1-.81-.09,1.63,1.63,0,0,1-.75-.36.86.86,0,0,1-.17-.23.59.59,0,0,1,0-.32.56.56,0,0,1,.25-.34,1.27,1.27,0,0,1,.47-.18,1.47,1.47,0,0,1,.3,0h.1v0h-.1a1.54,1.54,0,0,0-.27.07,1,1,0,0,0-.38.21.36.36,0,0,0-.13.22.26.26,0,0,0,.11.25,1.44,1.44,0,0,0,.63.22,4.61,4.61,0,0,0,.75,0c.53,0,1.09-.06,1.65-.11,2.23-.15,4.45-.51,4.45-.51v0Zm1.29,8.36-.14-3.87-.1-.35,2.65-.09,0,.57-1.78.06,0,1.2,1.36,0,0,.57L59,87,59,88.33l1.78-.06,0,.57Zm49.37-11,.23,0c.15,0,.36.06.61.12a7.88,7.88,0,0,0,.84.13c.15,0,.3,0,.46,0a1.68,1.68,0,0,0,.45,0,1.08,1.08,0,0,0,.41-.1l.09,0,.1-.05.1-.09-.06,0a1.35,1.35,0,0,0-.33-.19c-.23-.1-.43-.2-.57-.25l-.23-.09v0l.23,0a5.25,5.25,0,0,1,.61.15,1.79,1.79,0,0,1,.39.16.6.6,0,0,1,.19.17.26.26,0,0,1,0,.27.87.87,0,0,1-.4.31,1.38,1.38,0,0,1-.49.14,2.18,2.18,0,0,1-.51,0,2.52,2.52,0,0,1-.49-.07,5.18,5.18,0,0,1-.85-.23,6.72,6.72,0,0,1-.8-.33ZM79.75,86l-.46,2.78a.93.93,0,0,0,1.84.3l.46-2.77.64.1L81.8,89a1.66,1.66,0,0,1-3.28-.54l.37-2.25,0-.35ZM73,87.09a2,2,0,1,1,4,.51,2.12,2.12,0,0,1-1.29,1.8l.07,0a6.83,6.83,0,0,0,2.35,1.13,4.82,4.82,0,0,0,1.08-.06l.08.45a3.52,3.52,0,0,1-1.47.12,9.07,9.07,0,0,1-2.77-1.37,4.41,4.41,0,0,0-.71-.29A2,2,0,0,1,73,87.09Zm-8.14.48a1.35,1.35,0,0,1-1.48,1.31,2.66,2.66,0,0,1-1.36-.33l.27-.64a1.53,1.53,0,0,0,1,.42.64.64,0,0,0,.71-.62c0-.9-1.86-.67-1.86-2,0-.82.62-1.21,1.51-1.21a2.34,2.34,0,0,1,1.12.34l-.4.5a1.25,1.25,0,0,0-.8-.29c-.3,0-.59.16-.59.49C63,86.42,64.88,86.2,64.89,87.57Zm3.2,1.32-.83,0,.14-3.65-1.18,0,0-.58,3.19.12,0,.57-1.19,0Zm18,1.92-.38-1.22-1.24,0L84,90.75l-.67,0,1.61-4.18.63,0,1.38,4.26Zm2.51,0-.22-3.87s-.09-.31-.1-.34l.88,0,.21,3.64L91,90.06l0,.57Zm4.13-.31-.42-3.85s-.11-.31-.12-.34l.87-.1.46,4.2Zm4.36-.59-.82.13-.57-3.61-1.16.19L94.42,86l3.15-.5.09.57-1.17.18Zm4.42-.85-.75.17-.41-1.88-1.69-2,.84-.18,1.15,1.35.52-1.72.67-.14-.73,2.51Zm2.64-9.38c.34-.12.68-.24,1-.37a3.17,3.17,0,0,0,.86-.45.75.75,0,0,0,.16-.15,1.29,1.29,0,0,0,.15-.17l0,0,0,0h0s0,0,0,0h0l0-.08a.14.14,0,0,0,0-.06c0-.08-.16-.33-.39-.45a2.26,2.26,0,0,0-.73-.25,3,3,0,0,0-1.23,0c-.3.07-.48.13-.48.13a.08.08,0,0,0,0,0l.12-.07a2.87,2.87,0,0,1,.34-.16,3,3,0,0,1,1.28-.21,2.57,2.57,0,0,1,.86.21,1.81,1.81,0,0,1,.42.28.79.79,0,0,1,.24.5.78.78,0,0,1-.19.54,1.28,1.28,0,0,1-.17.22,1.31,1.31,0,0,1-.21.2,3.4,3.4,0,0,1-1,.53c-.69.26-1.39.47-2,.69s-1.25.45-1.77.65l-1.24.5-.47.2,0-.05s.16-.11.45-.28.69-.41,1.2-.66,1.09-.53,1.74-.79C103.45,79.89,103.78,79.75,104.12,79.64Z"/><path class="cls-1" d="M57.32,91.55c7.66,0,7.67-11.91,0-11.91s-7.67,11.91,0,11.91Z"/><text class="cls-2" transform="translate(55.15 88.92) rotate(-1.37)">S</text><text class="cls-2" transform="translate(60.74 88.8) rotate(3.26)">T</text><text class="cls-2" transform="translate(64.93 88.98) rotate(7.97)">A</text><text class="cls-2" transform="translate(70.84 89.93) rotate(9.5)">N</text><text class="cls-2" transform="translate(77.57 91.03) rotate(5.06)">D</text><text class="cls-2" transform="translate(83.99 91.64) rotate(2.35)">A</text><text class="cls-2" transform="translate(90.51 91.92) rotate(-4.87)">R</text><text class="cls-2" transform="translate(97.6 91.27) rotate(-14.26)">D</text></g></g></svg>