<svg width="60" height="60" viewBox="0 0 60 60" fill="none" xmlns="http://www.w3.org/2000/svg">
<path d="M27.9312 9.2571C28.3674 8.57741 28.1842 7.65846 27.524 7.21471L24.5787 5.23501C23.9312 4.79975 23.0671 4.98569 22.6393 5.6523L18.9923 11.3349L24.6963 14.2975L27.9312 9.2571Z" fill="#006AC6"/>
<path d="M32.9428 18.5807L35.6128 14.4202C36.049 13.7405 35.8658 12.8216 35.2056 12.3778L32.2603 10.3981C31.6127 9.96287 30.7487 10.1488 30.3209 10.8154L27.2388 15.618L32.9428 18.5807Z" fill="#006AC6"/>
<path d="M36.1652 27.1442L33.5826 25.952C32.7839 25.5832 32.4972 24.5563 32.9819 23.8007L38.002 15.9784C38.4298 15.3118 39.2939 15.1258 39.9414 15.5611L42.2803 17.1333C42.9405 17.577 43.1237 18.496 42.6875 19.1757L37.9112 26.6182C37.5302 27.2118 36.7929 27.434 36.1652 27.1442Z" fill="#006AC6"/>
<path d="M49.3561 21.8889L47.0173 20.3168C46.3697 19.8815 45.5057 20.0675 45.0779 20.7341L40.7951 27.4076C40.3103 28.163 40.597 29.19 41.3957 29.5587L43.9782 30.751C44.6059 31.0408 45.3433 30.8187 45.7243 30.2249L49.7634 23.9312C50.1996 23.2517 50.0164 22.3327 49.3561 21.8889Z" fill="#006AC6"/>
<path d="M42.8319 33.4284C43.3764 33.6799 43.9546 33.8074 44.5497 33.8074C45.7344 33.8074 46.8468 33.2952 47.6396 32.4123V36.6998C47.6396 39.5962 46.2546 42.2845 43.9347 43.8911C43.4113 44.2536 43.0575 44.4994 43.0575 44.4994C42.6664 44.7712 42.4315 45.2279 42.4315 45.7168V53.5353C42.4315 54.3443 41.8002 55.0002 41.0214 55.0002H19.6946C18.7773 55.0002 18.1041 54.1046 18.3266 53.1801L20.9053 42.4654C21.0076 42.0404 20.9214 41.5902 20.6704 41.2382L10.277 26.6629C9.92297 26.1664 9.90689 25.4924 10.2369 24.9784L16.7255 14.8677C17.1199 14.253 17.8933 14.0397 18.5294 14.37L29.9374 20.2954C30.696 20.6894 30.9506 21.685 30.4801 22.4181L29.6174 23.7625C29.3558 24.17 28.9155 24.4148 28.444 24.4148H19.5373C18.7358 24.4148 18.0906 25.1092 18.1287 25.9505C18.1645 26.7384 18.8178 27.3445 19.5771 27.3445H25.6099L32.1465 40.9249C32.4861 41.6304 33.3002 41.9664 33.9945 41.6471C34.7358 41.3063 35.0452 40.3963 34.6868 39.6517L28.763 27.3445H29.6541L42.8319 33.4284Z" fill="#006AC6"/>
</svg>
