<svg width="60" height="60" viewBox="0 0 60 60" fill="none" xmlns="http://www.w3.org/2000/svg">
<path d="M17.5 20C17.5 13.0964 23.0964 7.5 30 7.5C36.9036 7.5 42.5 13.0964 42.5 20C42.5 26.9036 36.9036 32.5 30 32.5C23.0964 32.5 17.5 26.9036 17.5 20ZM30 27.5C34.1421 27.5 37.5 24.1421 37.5 20C37.5 15.8579 34.1421 12.5 30 12.5C25.8579 12.5 22.5 15.8579 22.5 20C22.5 24.1421 25.8579 27.5 30 27.5Z" fill="#006AC6"/>
<path d="M15.8579 40.8579C12.1071 44.6086 10 49.6957 10 55H15C15 51.0218 16.5804 47.2064 19.3934 44.3934C22.2064 41.5804 26.0218 40 30 40C33.9782 40 37.7936 41.5804 40.6066 44.3934C43.4196 47.2064 45 51.0218 45 55H50C50 49.6957 47.8929 44.6086 44.1421 40.8579C40.3914 37.1071 35.3043 35 30 35C24.6957 35 19.6086 37.1071 15.8579 40.8579Z" fill="#006AC6"/>
</svg>
